ISO-10303-21;
HEADER;
FILE_DESCRIPTION(('FreeCAD Model'),'2;1');
FILE_NAME('Open CASCADE Shape Model','2026-05-28T01:09:25',('Author'),(
    ''),'Open CASCADE STEP processor 7.8','FreeCAD','Unknown');
FILE_SCHEMA(('AUTOMOTIVE_DESIGN { 1 0 10303 214 1 1 1 1 }'));
ENDSEC;
DATA;
#1 = APPLICATION_PROTOCOL_DEFINITION('international standard',
  'automotive_design',2000,#2);
#2 = APPLICATION_CONTEXT(
  'core data for automotive mechanical design processes');
#3 = SHAPE_DEFINITION_REPRESENTATION(#4,#10);
#4 = PRODUCT_DEFINITION_SHAPE('','',#5);
#5 = PRODUCT_DEFINITION('design','',#6,#9);
#6 = PRODUCT_DEFINITION_FORMATION('','',#7);
#7 = PRODUCT('pinDisk','pinDisk','',(#8));
#8 = PRODUCT_CONTEXT('',#2,'mechanical');
#9 = PRODUCT_DEFINITION_CONTEXT('part definition',#2,'design');
#10 = ADVANCED_BREP_SHAPE_REPRESENTATION('',(#11,#15),#1501);
#11 = AXIS2_PLACEMENT_3D('',#12,#13,#14);
#12 = CARTESIAN_POINT('',(0.,0.,0.));
#13 = DIRECTION('',(0.,0.,1.));
#14 = DIRECTION('',(1.,0.,-0.));
#15 = MANIFOLD_SOLID_BREP('',#16);
#16 = CLOSED_SHELL('',(#17,#155,#179,#204,#229,#254,#279,#304,#329,#354,
    #379,#404,#429,#454,#474,#494,#514,#534,#554,#574,#594,#614,#634,
    #654,#674,#699,#724,#749,#774,#799,#824,#849,#874,#899,#924,#949,
    #958,#967,#976,#985,#994,#1003,#1012,#1021,#1030,#1039,#1161,#1186,
    #1195,#1220,#1229,#1254,#1263,#1288,#1297,#1322,#1331,#1356,#1365,
    #1390,#1399,#1424,#1433,#1458,#1467,#1492));
#17 = ADVANCED_FACE('',(#18,#29,#40,#51,#62,#73,#84,#95,#106,#117,#128,
    #139),#150,.T.);
#18 = FACE_BOUND('',#19,.T.);
#19 = EDGE_LOOP('',(#20));
#20 = ORIENTED_EDGE('',*,*,#21,.T.);
#21 = EDGE_CURVE('',#22,#22,#24,.T.);
#22 = VERTEX_POINT('',#23);
#23 = CARTESIAN_POINT('',(47.5,0.,10.));
#24 = CIRCLE('',#25,47.5);
#25 = AXIS2_PLACEMENT_3D('',#26,#27,#28);
#26 = CARTESIAN_POINT('',(0.,0.,10.));
#27 = DIRECTION('',(0.,0.,1.));
#28 = DIRECTION('',(1.,0.,0.));
#29 = FACE_BOUND('',#30,.T.);
#30 = EDGE_LOOP('',(#31));
#31 = ORIENTED_EDGE('',*,*,#32,.T.);
#32 = EDGE_CURVE('',#33,#33,#35,.T.);
#33 = VERTEX_POINT('',#34);
#34 = CARTESIAN_POINT('',(-29.04371009806,-21.1014905573,10.));
#35 = CIRCLE('',#36,4.7);
#36 = AXIS2_PLACEMENT_3D('',#37,#38,#39);
#37 = CARTESIAN_POINT('',(-32.84608997162,-23.86408124307,10.));
#38 = DIRECTION('',(0.,0.,-1.));
#39 = DIRECTION('',(0.809016994375,0.587785252292,0.));
#40 = FACE_BOUND('',#41,.T.);
#41 = EDGE_LOOP('',(#42));
#42 = ORIENTED_EDGE('',*,*,#43,.T.);
#43 = EDGE_CURVE('',#44,#44,#46,.T.);
#44 = VERTEX_POINT('',#45);
#45 = CARTESIAN_POINT('',(-11.09371009806,-34.14292893499,10.));
#46 = CIRCLE('',#47,4.7);
#47 = AXIS2_PLACEMENT_3D('',#48,#49,#50);
#48 = CARTESIAN_POINT('',(-12.54608997162,-38.61289456158,10.));
#49 = DIRECTION('',(0.,0.,-1.));
#50 = DIRECTION('',(0.309016994375,0.951056516295,0.));
#51 = FACE_BOUND('',#52,.T.);
#52 = EDGE_LOOP('',(#53));
#53 = ORIENTED_EDGE('',*,*,#54,.T.);
#54 = EDGE_CURVE('',#55,#55,#57,.T.);
#55 = VERTEX_POINT('',#56);
#56 = CARTESIAN_POINT('',(11.093710098061,-34.14292893499,10.));
#57 = CIRCLE('',#58,4.7);
#58 = AXIS2_PLACEMENT_3D('',#59,#60,#61);
#59 = CARTESIAN_POINT('',(12.546089971623,-38.61289456158,10.));
#60 = DIRECTION('',(0.,0.,-1.));
#61 = DIRECTION('',(-0.309016994375,0.951056516295,0.));
#62 = FACE_BOUND('',#63,.T.);
#63 = EDGE_LOOP('',(#64));
#64 = ORIENTED_EDGE('',*,*,#65,.T.);
#65 = EDGE_CURVE('',#66,#66,#68,.T.);
#66 = VERTEX_POINT('',#67);
#67 = CARTESIAN_POINT('',(29.043710098061,-21.1014905573,10.));
#68 = CIRCLE('',#69,4.7);
#69 = AXIS2_PLACEMENT_3D('',#70,#71,#72);
#70 = CARTESIAN_POINT('',(32.846089971623,-23.86408124307,10.));
#71 = DIRECTION('',(0.,0.,-1.));
#72 = DIRECTION('',(-0.809016994375,0.587785252292,0.));
#73 = FACE_BOUND('',#74,.T.);
#74 = EDGE_LOOP('',(#75));
#75 = ORIENTED_EDGE('',*,*,#76,.T.);
#76 = EDGE_CURVE('',#77,#77,#79,.T.);
#77 = VERTEX_POINT('',#78);
#78 = CARTESIAN_POINT('',(35.9,-4.396482008939E-15,10.));
#79 = CIRCLE('',#80,4.7);
#80 = AXIS2_PLACEMENT_3D('',#81,#82,#83);
#81 = CARTESIAN_POINT('',(40.6,-4.972066004538E-15,10.));
#82 = DIRECTION('',(0.,0.,-1.));
#83 = DIRECTION('',(-1.,1.224646799147E-16,0.));
#84 = FACE_BOUND('',#85,.T.);
#85 = EDGE_LOOP('',(#86));
#86 = ORIENTED_EDGE('',*,*,#87,.T.);
#87 = EDGE_CURVE('',#88,#88,#90,.T.);
#88 = VERTEX_POINT('',#89);
#89 = CARTESIAN_POINT('',(-35.9,0.,10.));
#90 = CIRCLE('',#91,4.7);
#91 = AXIS2_PLACEMENT_3D('',#92,#93,#94);
#92 = CARTESIAN_POINT('',(-40.6,0.,10.));
#93 = DIRECTION('',(0.,0.,-1.));
#94 = DIRECTION('',(1.,0.,0.));
#95 = FACE_BOUND('',#96,.T.);
#96 = EDGE_LOOP('',(#97));
#97 = ORIENTED_EDGE('',*,*,#98,.T.);
#98 = EDGE_CURVE('',#99,#99,#101,.T.);
#99 = VERTEX_POINT('',#100);
#100 = CARTESIAN_POINT('',(-29.04371009806,21.1014905573,10.));
#101 = CIRCLE('',#102,4.7);
#102 = AXIS2_PLACEMENT_3D('',#103,#104,#105);
#103 = CARTESIAN_POINT('',(-32.84608997162,23.864081243074,10.));
#104 = DIRECTION('',(0.,-0.,-1.));
#105 = DIRECTION('',(0.809016994375,-0.587785252292,0.));
#106 = FACE_BOUND('',#107,.T.);
#107 = EDGE_LOOP('',(#108));
#108 = ORIENTED_EDGE('',*,*,#109,.T.);
#109 = EDGE_CURVE('',#110,#110,#112,.T.);
#110 = VERTEX_POINT('',#111);
#111 = CARTESIAN_POINT('',(-11.09371009806,34.142928934996,10.));
#112 = CIRCLE('',#113,4.7);
#113 = AXIS2_PLACEMENT_3D('',#114,#115,#116);
#114 = CARTESIAN_POINT('',(-12.54608997162,38.612894561583,10.));
#115 = DIRECTION('',(0.,-0.,-1.));
#116 = DIRECTION('',(0.309016994375,-0.951056516295,0.));
#117 = FACE_BOUND('',#118,.T.);
#118 = EDGE_LOOP('',(#119));
#119 = ORIENTED_EDGE('',*,*,#120,.F.);
#120 = EDGE_CURVE('',#121,#121,#123,.T.);
#121 = VERTEX_POINT('',#122);
#122 = CARTESIAN_POINT('',(34.208915126443,0.,10.));
#123 = CIRCLE('',#124,34.208915126443);
#124 = AXIS2_PLACEMENT_3D('',#125,#126,#127);
#125 = CARTESIAN_POINT('',(0.,0.,10.));
#126 = DIRECTION('',(0.,0.,1.));
#127 = DIRECTION('',(1.,0.,0.));
#128 = FACE_BOUND('',#129,.T.);
#129 = EDGE_LOOP('',(#130));
#130 = ORIENTED_EDGE('',*,*,#131,.T.);
#131 = EDGE_CURVE('',#132,#132,#134,.T.);
#132 = VERTEX_POINT('',#133);
#133 = CARTESIAN_POINT('',(11.093710098061,34.142928934996,10.));
#134 = CIRCLE('',#135,4.7);
#135 = AXIS2_PLACEMENT_3D('',#136,#137,#138);
#136 = CARTESIAN_POINT('',(12.546089971623,38.612894561583,10.));
#137 = DIRECTION('',(0.,0.,-1.));
#138 = DIRECTION('',(-0.309016994375,-0.951056516295,-0.));
#139 = FACE_BOUND('',#140,.T.);
#140 = EDGE_LOOP('',(#141));
#141 = ORIENTED_EDGE('',*,*,#142,.T.);
#142 = EDGE_CURVE('',#143,#143,#145,.T.);
#143 = VERTEX_POINT('',#144);
#144 = CARTESIAN_POINT('',(29.043710098061,21.1014905573,10.));
#145 = CIRCLE('',#146,4.7);
#146 = AXIS2_PLACEMENT_3D('',#147,#148,#149);
#147 = CARTESIAN_POINT('',(32.846089971623,23.864081243074,10.));
#148 = DIRECTION('',(0.,0.,-1.));
#149 = DIRECTION('',(-0.809016994375,-0.587785252292,-0.));
#150 = PLANE('',#151);
#151 = AXIS2_PLACEMENT_3D('',#152,#153,#154);
#152 = CARTESIAN_POINT('',(-1.606608685486E-15,2.628563599171E-15,10.));
#153 = DIRECTION('',(0.,0.,1.));
#154 = DIRECTION('',(1.,0.,0.));
#155 = ADVANCED_FACE('',(#156),#174,.T.);
#156 = FACE_BOUND('',#157,.F.);
#157 = EDGE_LOOP('',(#158,#167,#172,#173));
#158 = ORIENTED_EDGE('',*,*,#159,.F.);
#159 = EDGE_CURVE('',#160,#160,#162,.T.);
#160 = VERTEX_POINT('',#161);
#161 = CARTESIAN_POINT('',(47.5,0.,0.));
#162 = CIRCLE('',#163,47.5);
#163 = AXIS2_PLACEMENT_3D('',#164,#165,#166);
#164 = CARTESIAN_POINT('',(0.,0.,0.));
#165 = DIRECTION('',(0.,0.,1.));
#166 = DIRECTION('',(1.,0.,0.));
#167 = ORIENTED_EDGE('',*,*,#168,.F.);
#168 = EDGE_CURVE('',#22,#160,#169,.T.);
#169 = B_SPLINE_CURVE_WITH_KNOTS('',1,(#170,#171),.UNSPECIFIED.,.F.,.F.,
  (2,2),(-10.,0.),.PIECEWISE_BEZIER_KNOTS.);
#170 = CARTESIAN_POINT('',(47.5,-1.16341445919E-14,10.));
#171 = CARTESIAN_POINT('',(47.5,-1.16341445919E-14,0.));
#172 = ORIENTED_EDGE('',*,*,#21,.T.);
#173 = ORIENTED_EDGE('',*,*,#168,.T.);
#174 = CYLINDRICAL_SURFACE('',#175,47.5);
#175 = AXIS2_PLACEMENT_3D('',#176,#177,#178);
#176 = CARTESIAN_POINT('',(0.,0.,0.));
#177 = DIRECTION('',(-0.,-0.,-1.));
#178 = DIRECTION('',(1.,0.,0.));
#179 = ADVANCED_FACE('',(#180),#199,.T.);
#180 = FACE_BOUND('',#181,.F.);
#181 = EDGE_LOOP('',(#182,#183,#191,#198));
#182 = ORIENTED_EDGE('',*,*,#32,.T.);
#183 = ORIENTED_EDGE('',*,*,#184,.T.);
#184 = EDGE_CURVE('',#33,#185,#187,.T.);
#185 = VERTEX_POINT('',#186);
#186 = CARTESIAN_POINT('',(-29.04371009806,-21.1014905573,25.));
#187 = LINE('',#188,#189);
#188 = CARTESIAN_POINT('',(-29.04371009806,-21.1014905573,0.));
#189 = VECTOR('',#190,1.);
#190 = DIRECTION('',(0.,0.,1.));
#191 = ORIENTED_EDGE('',*,*,#192,.T.);
#192 = EDGE_CURVE('',#185,#185,#193,.T.);
#193 = CIRCLE('',#194,4.7);
#194 = AXIS2_PLACEMENT_3D('',#195,#196,#197);
#195 = CARTESIAN_POINT('',(-32.84608997162,-23.86408124307,25.));
#196 = DIRECTION('',(0.,-0.,1.));
#197 = DIRECTION('',(0.809016994375,0.587785252292,0.));
#198 = ORIENTED_EDGE('',*,*,#184,.F.);
#199 = CYLINDRICAL_SURFACE('',#200,4.7);
#200 = AXIS2_PLACEMENT_3D('',#201,#202,#203);
#201 = CARTESIAN_POINT('',(-32.84608997162,-23.86408124307,0.));
#202 = DIRECTION('',(0.,-0.,-1.));
#203 = DIRECTION('',(0.809016994375,0.587785252292,0.));
#204 = ADVANCED_FACE('',(#205),#224,.T.);
#205 = FACE_BOUND('',#206,.F.);
#206 = EDGE_LOOP('',(#207,#208,#216,#223));
#207 = ORIENTED_EDGE('',*,*,#43,.T.);
#208 = ORIENTED_EDGE('',*,*,#209,.T.);
#209 = EDGE_CURVE('',#44,#210,#212,.T.);
#210 = VERTEX_POINT('',#211);
#211 = CARTESIAN_POINT('',(-11.09371009806,-34.14292893499,25.));
#212 = LINE('',#213,#214);
#213 = CARTESIAN_POINT('',(-11.09371009806,-34.14292893499,0.));
#214 = VECTOR('',#215,1.);
#215 = DIRECTION('',(0.,0.,1.));
#216 = ORIENTED_EDGE('',*,*,#217,.T.);
#217 = EDGE_CURVE('',#210,#210,#218,.T.);
#218 = CIRCLE('',#219,4.7);
#219 = AXIS2_PLACEMENT_3D('',#220,#221,#222);
#220 = CARTESIAN_POINT('',(-12.54608997162,-38.61289456158,25.));
#221 = DIRECTION('',(0.,-0.,1.));
#222 = DIRECTION('',(0.309016994375,0.951056516295,0.));
#223 = ORIENTED_EDGE('',*,*,#209,.F.);
#224 = CYLINDRICAL_SURFACE('',#225,4.7);
#225 = AXIS2_PLACEMENT_3D('',#226,#227,#228);
#226 = CARTESIAN_POINT('',(-12.54608997162,-38.61289456158,0.));
#227 = DIRECTION('',(0.,0.,-1.));
#228 = DIRECTION('',(0.309016994375,0.951056516295,0.));
#229 = ADVANCED_FACE('',(#230),#249,.T.);
#230 = FACE_BOUND('',#231,.F.);
#231 = EDGE_LOOP('',(#232,#233,#241,#248));
#232 = ORIENTED_EDGE('',*,*,#54,.T.);
#233 = ORIENTED_EDGE('',*,*,#234,.T.);
#234 = EDGE_CURVE('',#55,#235,#237,.T.);
#235 = VERTEX_POINT('',#236);
#236 = CARTESIAN_POINT('',(11.093710098061,-34.14292893499,25.));
#237 = LINE('',#238,#239);
#238 = CARTESIAN_POINT('',(11.093710098061,-34.14292893499,0.));
#239 = VECTOR('',#240,1.);
#240 = DIRECTION('',(0.,0.,1.));
#241 = ORIENTED_EDGE('',*,*,#242,.T.);
#242 = EDGE_CURVE('',#235,#235,#243,.T.);
#243 = CIRCLE('',#244,4.7);
#244 = AXIS2_PLACEMENT_3D('',#245,#246,#247);
#245 = CARTESIAN_POINT('',(12.546089971623,-38.61289456158,25.));
#246 = DIRECTION('',(0.,0.,1.));
#247 = DIRECTION('',(-0.309016994375,0.951056516295,0.));
#248 = ORIENTED_EDGE('',*,*,#234,.F.);
#249 = CYLINDRICAL_SURFACE('',#250,4.7);
#250 = AXIS2_PLACEMENT_3D('',#251,#252,#253);
#251 = CARTESIAN_POINT('',(12.546089971623,-38.61289456158,0.));
#252 = DIRECTION('',(-0.,0.,-1.));
#253 = DIRECTION('',(-0.309016994375,0.951056516295,0.));
#254 = ADVANCED_FACE('',(#255),#274,.T.);
#255 = FACE_BOUND('',#256,.F.);
#256 = EDGE_LOOP('',(#257,#258,#266,#273));
#257 = ORIENTED_EDGE('',*,*,#65,.T.);
#258 = ORIENTED_EDGE('',*,*,#259,.T.);
#259 = EDGE_CURVE('',#66,#260,#262,.T.);
#260 = VERTEX_POINT('',#261);
#261 = CARTESIAN_POINT('',(29.043710098061,-21.1014905573,25.));
#262 = LINE('',#263,#264);
#263 = CARTESIAN_POINT('',(29.043710098061,-21.1014905573,0.));
#264 = VECTOR('',#265,1.);
#265 = DIRECTION('',(0.,0.,1.));
#266 = ORIENTED_EDGE('',*,*,#267,.T.);
#267 = EDGE_CURVE('',#260,#260,#268,.T.);
#268 = CIRCLE('',#269,4.7);
#269 = AXIS2_PLACEMENT_3D('',#270,#271,#272);
#270 = CARTESIAN_POINT('',(32.846089971623,-23.86408124307,25.));
#271 = DIRECTION('',(0.,0.,1.));
#272 = DIRECTION('',(-0.809016994375,0.587785252292,0.));
#273 = ORIENTED_EDGE('',*,*,#259,.F.);
#274 = CYLINDRICAL_SURFACE('',#275,4.7);
#275 = AXIS2_PLACEMENT_3D('',#276,#277,#278);
#276 = CARTESIAN_POINT('',(32.846089971623,-23.86408124307,0.));
#277 = DIRECTION('',(0.,0.,-1.));
#278 = DIRECTION('',(-0.809016994375,0.587785252292,0.));
#279 = ADVANCED_FACE('',(#280),#299,.T.);
#280 = FACE_BOUND('',#281,.F.);
#281 = EDGE_LOOP('',(#282,#283,#291,#298));
#282 = ORIENTED_EDGE('',*,*,#76,.T.);
#283 = ORIENTED_EDGE('',*,*,#284,.T.);
#284 = EDGE_CURVE('',#77,#285,#287,.T.);
#285 = VERTEX_POINT('',#286);
#286 = CARTESIAN_POINT('',(35.9,-4.396482008939E-15,25.));
#287 = LINE('',#288,#289);
#288 = CARTESIAN_POINT('',(35.9,-4.396482008939E-15,0.));
#289 = VECTOR('',#290,1.);
#290 = DIRECTION('',(0.,0.,1.));
#291 = ORIENTED_EDGE('',*,*,#292,.T.);
#292 = EDGE_CURVE('',#285,#285,#293,.T.);
#293 = CIRCLE('',#294,4.7);
#294 = AXIS2_PLACEMENT_3D('',#295,#296,#297);
#295 = CARTESIAN_POINT('',(40.6,-4.972066004538E-15,25.));
#296 = DIRECTION('',(0.,0.,1.));
#297 = DIRECTION('',(-1.,1.224646799147E-16,0.));
#298 = ORIENTED_EDGE('',*,*,#284,.F.);
#299 = CYLINDRICAL_SURFACE('',#300,4.7);
#300 = AXIS2_PLACEMENT_3D('',#301,#302,#303);
#301 = CARTESIAN_POINT('',(40.6,-4.972066004538E-15,0.));
#302 = DIRECTION('',(0.,0.,-1.));
#303 = DIRECTION('',(-1.,1.224646799147E-16,0.));
#304 = ADVANCED_FACE('',(#305),#324,.T.);
#305 = FACE_BOUND('',#306,.F.);
#306 = EDGE_LOOP('',(#307,#308,#316,#323));
#307 = ORIENTED_EDGE('',*,*,#87,.T.);
#308 = ORIENTED_EDGE('',*,*,#309,.T.);
#309 = EDGE_CURVE('',#88,#310,#312,.T.);
#310 = VERTEX_POINT('',#311);
#311 = CARTESIAN_POINT('',(-35.9,0.,25.));
#312 = LINE('',#313,#314);
#313 = CARTESIAN_POINT('',(-35.9,0.,0.));
#314 = VECTOR('',#315,1.);
#315 = DIRECTION('',(0.,0.,1.));
#316 = ORIENTED_EDGE('',*,*,#317,.T.);
#317 = EDGE_CURVE('',#310,#310,#318,.T.);
#318 = CIRCLE('',#319,4.7);
#319 = AXIS2_PLACEMENT_3D('',#320,#321,#322);
#320 = CARTESIAN_POINT('',(-40.6,0.,25.));
#321 = DIRECTION('',(0.,0.,1.));
#322 = DIRECTION('',(1.,0.,0.));
#323 = ORIENTED_EDGE('',*,*,#309,.F.);
#324 = CYLINDRICAL_SURFACE('',#325,4.7);
#325 = AXIS2_PLACEMENT_3D('',#326,#327,#328);
#326 = CARTESIAN_POINT('',(-40.6,0.,0.));
#327 = DIRECTION('',(-0.,-0.,-1.));
#328 = DIRECTION('',(1.,0.,0.));
#329 = ADVANCED_FACE('',(#330),#349,.T.);
#330 = FACE_BOUND('',#331,.F.);
#331 = EDGE_LOOP('',(#332,#333,#341,#348));
#332 = ORIENTED_EDGE('',*,*,#98,.T.);
#333 = ORIENTED_EDGE('',*,*,#334,.T.);
#334 = EDGE_CURVE('',#99,#335,#337,.T.);
#335 = VERTEX_POINT('',#336);
#336 = CARTESIAN_POINT('',(-29.04371009806,21.1014905573,25.));
#337 = LINE('',#338,#339);
#338 = CARTESIAN_POINT('',(-29.04371009806,21.1014905573,0.));
#339 = VECTOR('',#340,1.);
#340 = DIRECTION('',(0.,0.,1.));
#341 = ORIENTED_EDGE('',*,*,#342,.T.);
#342 = EDGE_CURVE('',#335,#335,#343,.T.);
#343 = CIRCLE('',#344,4.7);
#344 = AXIS2_PLACEMENT_3D('',#345,#346,#347);
#345 = CARTESIAN_POINT('',(-32.84608997162,23.864081243074,25.));
#346 = DIRECTION('',(-0.,0.,1.));
#347 = DIRECTION('',(0.809016994375,-0.587785252292,0.));
#348 = ORIENTED_EDGE('',*,*,#334,.F.);
#349 = CYLINDRICAL_SURFACE('',#350,4.7);
#350 = AXIS2_PLACEMENT_3D('',#351,#352,#353);
#351 = CARTESIAN_POINT('',(-32.84608997162,23.864081243074,0.));
#352 = DIRECTION('',(0.,0.,-1.));
#353 = DIRECTION('',(0.809016994375,-0.587785252292,0.));
#354 = ADVANCED_FACE('',(#355),#374,.T.);
#355 = FACE_BOUND('',#356,.F.);
#356 = EDGE_LOOP('',(#357,#358,#366,#373));
#357 = ORIENTED_EDGE('',*,*,#109,.T.);
#358 = ORIENTED_EDGE('',*,*,#359,.T.);
#359 = EDGE_CURVE('',#110,#360,#362,.T.);
#360 = VERTEX_POINT('',#361);
#361 = CARTESIAN_POINT('',(-11.09371009806,34.142928934996,25.));
#362 = LINE('',#363,#364);
#363 = CARTESIAN_POINT('',(-11.09371009806,34.142928934996,0.));
#364 = VECTOR('',#365,1.);
#365 = DIRECTION('',(0.,0.,1.));
#366 = ORIENTED_EDGE('',*,*,#367,.T.);
#367 = EDGE_CURVE('',#360,#360,#368,.T.);
#368 = CIRCLE('',#369,4.7);
#369 = AXIS2_PLACEMENT_3D('',#370,#371,#372);
#370 = CARTESIAN_POINT('',(-12.54608997162,38.612894561583,25.));
#371 = DIRECTION('',(-0.,0.,1.));
#372 = DIRECTION('',(0.309016994375,-0.951056516295,0.));
#373 = ORIENTED_EDGE('',*,*,#359,.F.);
#374 = CYLINDRICAL_SURFACE('',#375,4.7);
#375 = AXIS2_PLACEMENT_3D('',#376,#377,#378);
#376 = CARTESIAN_POINT('',(-12.54608997162,38.612894561583,0.));
#377 = DIRECTION('',(0.,0.,-1.));
#378 = DIRECTION('',(0.309016994375,-0.951056516295,0.));
#379 = ADVANCED_FACE('',(#380),#399,.F.);
#380 = FACE_BOUND('',#381,.T.);
#381 = EDGE_LOOP('',(#382,#391,#397,#398));
#382 = ORIENTED_EDGE('',*,*,#383,.T.);
#383 = EDGE_CURVE('',#384,#384,#386,.T.);
#384 = VERTEX_POINT('',#385);
#385 = CARTESIAN_POINT('',(34.208915126443,0.,5.));
#386 = CIRCLE('',#387,34.208915126443);
#387 = AXIS2_PLACEMENT_3D('',#388,#389,#390);
#388 = CARTESIAN_POINT('',(0.,0.,5.));
#389 = DIRECTION('',(0.,0.,-1.));
#390 = DIRECTION('',(1.,0.,0.));
#391 = ORIENTED_EDGE('',*,*,#392,.T.);
#392 = EDGE_CURVE('',#384,#121,#393,.T.);
#393 = LINE('',#394,#395);
#394 = CARTESIAN_POINT('',(34.208915126443,0.,0.));
#395 = VECTOR('',#396,1.);
#396 = DIRECTION('',(0.,0.,1.));
#397 = ORIENTED_EDGE('',*,*,#120,.T.);
#398 = ORIENTED_EDGE('',*,*,#392,.F.);
#399 = CYLINDRICAL_SURFACE('',#400,34.208915126443);
#400 = AXIS2_PLACEMENT_3D('',#401,#402,#403);
#401 = CARTESIAN_POINT('',(0.,0.,0.));
#402 = DIRECTION('',(-0.,-0.,-1.));
#403 = DIRECTION('',(1.,0.,0.));
#404 = ADVANCED_FACE('',(#405),#424,.T.);
#405 = FACE_BOUND('',#406,.F.);
#406 = EDGE_LOOP('',(#407,#408,#416,#423));
#407 = ORIENTED_EDGE('',*,*,#131,.T.);
#408 = ORIENTED_EDGE('',*,*,#409,.T.);
#409 = EDGE_CURVE('',#132,#410,#412,.T.);
#410 = VERTEX_POINT('',#411);
#411 = CARTESIAN_POINT('',(11.093710098061,34.142928934996,25.));
#412 = LINE('',#413,#414);
#413 = CARTESIAN_POINT('',(11.093710098061,34.142928934996,0.));
#414 = VECTOR('',#415,1.);
#415 = DIRECTION('',(0.,0.,1.));
#416 = ORIENTED_EDGE('',*,*,#417,.T.);
#417 = EDGE_CURVE('',#410,#410,#418,.T.);
#418 = CIRCLE('',#419,4.7);
#419 = AXIS2_PLACEMENT_3D('',#420,#421,#422);
#420 = CARTESIAN_POINT('',(12.546089971623,38.612894561583,25.));
#421 = DIRECTION('',(0.,0.,1.));
#422 = DIRECTION('',(-0.309016994375,-0.951056516295,0.));
#423 = ORIENTED_EDGE('',*,*,#409,.F.);
#424 = CYLINDRICAL_SURFACE('',#425,4.7);
#425 = AXIS2_PLACEMENT_3D('',#426,#427,#428);
#426 = CARTESIAN_POINT('',(12.546089971623,38.612894561583,0.));
#427 = DIRECTION('',(0.,-0.,-1.));
#428 = DIRECTION('',(-0.309016994375,-0.951056516295,0.));
#429 = ADVANCED_FACE('',(#430),#449,.T.);
#430 = FACE_BOUND('',#431,.F.);
#431 = EDGE_LOOP('',(#432,#433,#441,#448));
#432 = ORIENTED_EDGE('',*,*,#142,.T.);
#433 = ORIENTED_EDGE('',*,*,#434,.T.);
#434 = EDGE_CURVE('',#143,#435,#437,.T.);
#435 = VERTEX_POINT('',#436);
#436 = CARTESIAN_POINT('',(29.043710098061,21.1014905573,25.));
#437 = LINE('',#438,#439);
#438 = CARTESIAN_POINT('',(29.043710098061,21.1014905573,0.));
#439 = VECTOR('',#440,1.);
#440 = DIRECTION('',(0.,0.,1.));
#441 = ORIENTED_EDGE('',*,*,#442,.T.);
#442 = EDGE_CURVE('',#435,#435,#443,.T.);
#443 = CIRCLE('',#444,4.7);
#444 = AXIS2_PLACEMENT_3D('',#445,#446,#447);
#445 = CARTESIAN_POINT('',(32.846089971623,23.864081243074,25.));
#446 = DIRECTION('',(0.,0.,1.));
#447 = DIRECTION('',(-0.809016994375,-0.587785252292,0.));
#448 = ORIENTED_EDGE('',*,*,#434,.F.);
#449 = CYLINDRICAL_SURFACE('',#450,4.7);
#450 = AXIS2_PLACEMENT_3D('',#451,#452,#453);
#451 = CARTESIAN_POINT('',(32.846089971623,23.864081243074,0.));
#452 = DIRECTION('',(0.,-0.,-1.));
#453 = DIRECTION('',(-0.809016994375,-0.587785252292,0.));
#454 = ADVANCED_FACE('',(#455,#458),#469,.T.);
#455 = FACE_BOUND('',#456,.T.);
#456 = EDGE_LOOP('',(#457));
#457 = ORIENTED_EDGE('',*,*,#192,.T.);
#458 = FACE_BOUND('',#459,.T.);
#459 = EDGE_LOOP('',(#460));
#460 = ORIENTED_EDGE('',*,*,#461,.T.);
#461 = EDGE_CURVE('',#462,#462,#464,.T.);
#462 = VERTEX_POINT('',#463);
#463 = CARTESIAN_POINT('',(-31.89549500323,-23.17343357163,25.));
#464 = CIRCLE('',#465,1.175);
#465 = AXIS2_PLACEMENT_3D('',#466,#467,#468);
#466 = CARTESIAN_POINT('',(-32.84608997162,-23.86408124307,25.));
#467 = DIRECTION('',(0.,0.,-1.));
#468 = DIRECTION('',(0.809016994375,0.587785252292,0.));
#469 = PLANE('',#470);
#470 = AXIS2_PLACEMENT_3D('',#471,#472,#473);
#471 = CARTESIAN_POINT('',(-32.84608997162,-23.86408124307,25.));
#472 = DIRECTION('',(0.,0.,1.));
#473 = DIRECTION('',(0.809016994375,0.587785252292,0.));
#474 = ADVANCED_FACE('',(#475,#478),#489,.T.);
#475 = FACE_BOUND('',#476,.T.);
#476 = EDGE_LOOP('',(#477));
#477 = ORIENTED_EDGE('',*,*,#217,.T.);
#478 = FACE_BOUND('',#479,.T.);
#479 = EDGE_LOOP('',(#480));
#480 = ORIENTED_EDGE('',*,*,#481,.T.);
#481 = EDGE_CURVE('',#482,#482,#484,.T.);
#482 = VERTEX_POINT('',#483);
#483 = CARTESIAN_POINT('',(-12.18299500323,-37.49540315493,25.));
#484 = CIRCLE('',#485,1.175);
#485 = AXIS2_PLACEMENT_3D('',#486,#487,#488);
#486 = CARTESIAN_POINT('',(-12.54608997162,-38.61289456158,25.));
#487 = DIRECTION('',(0.,0.,-1.));
#488 = DIRECTION('',(0.309016994375,0.951056516295,0.));
#489 = PLANE('',#490);
#490 = AXIS2_PLACEMENT_3D('',#491,#492,#493);
#491 = CARTESIAN_POINT('',(-12.54608997162,-38.61289456158,25.));
#492 = DIRECTION('',(0.,0.,1.));
#493 = DIRECTION('',(0.309016994375,0.951056516295,0.));
#494 = ADVANCED_FACE('',(#495,#498),#509,.T.);
#495 = FACE_BOUND('',#496,.T.);
#496 = EDGE_LOOP('',(#497));
#497 = ORIENTED_EDGE('',*,*,#242,.T.);
#498 = FACE_BOUND('',#499,.T.);
#499 = EDGE_LOOP('',(#500));
#500 = ORIENTED_EDGE('',*,*,#501,.T.);
#501 = EDGE_CURVE('',#502,#502,#504,.T.);
#502 = VERTEX_POINT('',#503);
#503 = CARTESIAN_POINT('',(12.182995003232,-37.49540315493,25.));
#504 = CIRCLE('',#505,1.175);
#505 = AXIS2_PLACEMENT_3D('',#506,#507,#508);
#506 = CARTESIAN_POINT('',(12.546089971623,-38.61289456158,25.));
#507 = DIRECTION('',(0.,0.,-1.));
#508 = DIRECTION('',(-0.309016994375,0.951056516295,0.));
#509 = PLANE('',#510);
#510 = AXIS2_PLACEMENT_3D('',#511,#512,#513);
#511 = CARTESIAN_POINT('',(12.546089971623,-38.61289456158,25.));
#512 = DIRECTION('',(0.,0.,1.));
#513 = DIRECTION('',(-0.309016994375,0.951056516295,0.));
#514 = ADVANCED_FACE('',(#515,#518),#529,.T.);
#515 = FACE_BOUND('',#516,.T.);
#516 = EDGE_LOOP('',(#517));
#517 = ORIENTED_EDGE('',*,*,#267,.T.);
#518 = FACE_BOUND('',#519,.T.);
#519 = EDGE_LOOP('',(#520));
#520 = ORIENTED_EDGE('',*,*,#521,.T.);
#521 = EDGE_CURVE('',#522,#522,#524,.T.);
#522 = VERTEX_POINT('',#523);
#523 = CARTESIAN_POINT('',(31.895495003232,-23.17343357163,25.));
#524 = CIRCLE('',#525,1.175);
#525 = AXIS2_PLACEMENT_3D('',#526,#527,#528);
#526 = CARTESIAN_POINT('',(32.846089971623,-23.86408124307,25.));
#527 = DIRECTION('',(0.,0.,-1.));
#528 = DIRECTION('',(-0.809016994375,0.587785252292,0.));
#529 = PLANE('',#530);
#530 = AXIS2_PLACEMENT_3D('',#531,#532,#533);
#531 = CARTESIAN_POINT('',(32.846089971623,-23.86408124307,25.));
#532 = DIRECTION('',(0.,0.,1.));
#533 = DIRECTION('',(-0.809016994375,0.587785252292,0.));
#534 = ADVANCED_FACE('',(#535,#538),#549,.T.);
#535 = FACE_BOUND('',#536,.T.);
#536 = EDGE_LOOP('',(#537));
#537 = ORIENTED_EDGE('',*,*,#292,.T.);
#538 = FACE_BOUND('',#539,.T.);
#539 = EDGE_LOOP('',(#540));
#540 = ORIENTED_EDGE('',*,*,#541,.T.);
#541 = EDGE_CURVE('',#542,#542,#544,.T.);
#542 = VERTEX_POINT('',#543);
#543 = CARTESIAN_POINT('',(39.425,-4.828170005638E-15,25.));
#544 = CIRCLE('',#545,1.175);
#545 = AXIS2_PLACEMENT_3D('',#546,#547,#548);
#546 = CARTESIAN_POINT('',(40.6,-4.972066004538E-15,25.));
#547 = DIRECTION('',(0.,0.,-1.));
#548 = DIRECTION('',(-1.,1.224646799147E-16,0.));
#549 = PLANE('',#550);
#550 = AXIS2_PLACEMENT_3D('',#551,#552,#553);
#551 = CARTESIAN_POINT('',(40.6,-5.362094090774E-15,25.));
#552 = DIRECTION('',(0.,0.,1.));
#553 = DIRECTION('',(-1.,1.224646799147E-16,0.));
#554 = ADVANCED_FACE('',(#555,#558),#569,.T.);
#555 = FACE_BOUND('',#556,.T.);
#556 = EDGE_LOOP('',(#557));
#557 = ORIENTED_EDGE('',*,*,#317,.T.);
#558 = FACE_BOUND('',#559,.T.);
#559 = EDGE_LOOP('',(#560));
#560 = ORIENTED_EDGE('',*,*,#561,.T.);
#561 = EDGE_CURVE('',#562,#562,#564,.T.);
#562 = VERTEX_POINT('',#563);
#563 = CARTESIAN_POINT('',(-39.425,0.,25.));
#564 = CIRCLE('',#565,1.175);
#565 = AXIS2_PLACEMENT_3D('',#566,#567,#568);
#566 = CARTESIAN_POINT('',(-40.6,0.,25.));
#567 = DIRECTION('',(0.,0.,-1.));
#568 = DIRECTION('',(1.,0.,0.));
#569 = PLANE('',#570);
#570 = AXIS2_PLACEMENT_3D('',#571,#572,#573);
#571 = CARTESIAN_POINT('',(-40.6,3.900280862355E-16,25.));
#572 = DIRECTION('',(0.,0.,1.));
#573 = DIRECTION('',(1.,0.,0.));
#574 = ADVANCED_FACE('',(#575,#578),#589,.T.);
#575 = FACE_BOUND('',#576,.T.);
#576 = EDGE_LOOP('',(#577));
#577 = ORIENTED_EDGE('',*,*,#342,.T.);
#578 = FACE_BOUND('',#579,.T.);
#579 = EDGE_LOOP('',(#580));
#580 = ORIENTED_EDGE('',*,*,#581,.T.);
#581 = EDGE_CURVE('',#582,#582,#584,.T.);
#582 = VERTEX_POINT('',#583);
#583 = CARTESIAN_POINT('',(-31.89549500323,23.173433571631,25.));
#584 = CIRCLE('',#585,1.175);
#585 = AXIS2_PLACEMENT_3D('',#586,#587,#588);
#586 = CARTESIAN_POINT('',(-32.84608997162,23.864081243074,25.));
#587 = DIRECTION('',(0.,-0.,-1.));
#588 = DIRECTION('',(0.809016994375,-0.587785252292,0.));
#589 = PLANE('',#590);
#590 = AXIS2_PLACEMENT_3D('',#591,#592,#593);
#591 = CARTESIAN_POINT('',(-32.84608997162,23.864081243074,25.));
#592 = DIRECTION('',(0.,0.,1.));
#593 = DIRECTION('',(0.809016994375,-0.587785252292,0.));
#594 = ADVANCED_FACE('',(#595,#598),#609,.T.);
#595 = FACE_BOUND('',#596,.T.);
#596 = EDGE_LOOP('',(#597));
#597 = ORIENTED_EDGE('',*,*,#367,.T.);
#598 = FACE_BOUND('',#599,.T.);
#599 = EDGE_LOOP('',(#600));
#600 = ORIENTED_EDGE('',*,*,#601,.T.);
#601 = EDGE_CURVE('',#602,#602,#604,.T.);
#602 = VERTEX_POINT('',#603);
#603 = CARTESIAN_POINT('',(-12.18299500323,37.495403154936,25.));
#604 = CIRCLE('',#605,1.175);
#605 = AXIS2_PLACEMENT_3D('',#606,#607,#608);
#606 = CARTESIAN_POINT('',(-12.54608997162,38.612894561583,25.));
#607 = DIRECTION('',(0.,-0.,-1.));
#608 = DIRECTION('',(0.309016994375,-0.951056516295,0.));
#609 = PLANE('',#610);
#610 = AXIS2_PLACEMENT_3D('',#611,#612,#613);
#611 = CARTESIAN_POINT('',(-12.54608997162,38.612894561583,25.));
#612 = DIRECTION('',(0.,0.,1.));
#613 = DIRECTION('',(0.309016994375,-0.951056516295,0.));
#614 = ADVANCED_FACE('',(#615,#618),#629,.T.);
#615 = FACE_BOUND('',#616,.T.);
#616 = EDGE_LOOP('',(#617));
#617 = ORIENTED_EDGE('',*,*,#383,.F.);
#618 = FACE_BOUND('',#619,.T.);
#619 = EDGE_LOOP('',(#620));
#620 = ORIENTED_EDGE('',*,*,#621,.F.);
#621 = EDGE_CURVE('',#622,#622,#624,.T.);
#622 = VERTEX_POINT('',#623);
#623 = CARTESIAN_POINT('',(6.8,0.,5.));
#624 = CIRCLE('',#625,6.8);
#625 = AXIS2_PLACEMENT_3D('',#626,#627,#628);
#626 = CARTESIAN_POINT('',(0.,0.,5.));
#627 = DIRECTION('',(0.,0.,1.));
#628 = DIRECTION('',(1.,0.,0.));
#629 = PLANE('',#630);
#630 = AXIS2_PLACEMENT_3D('',#631,#632,#633);
#631 = CARTESIAN_POINT('',(-1.611715809991E-15,3.138947712002E-15,5.));
#632 = DIRECTION('',(0.,0.,1.));
#633 = DIRECTION('',(1.,0.,0.));
#634 = ADVANCED_FACE('',(#635,#638),#649,.T.);
#635 = FACE_BOUND('',#636,.T.);
#636 = EDGE_LOOP('',(#637));
#637 = ORIENTED_EDGE('',*,*,#417,.T.);
#638 = FACE_BOUND('',#639,.T.);
#639 = EDGE_LOOP('',(#640));
#640 = ORIENTED_EDGE('',*,*,#641,.T.);
#641 = EDGE_CURVE('',#642,#642,#644,.T.);
#642 = VERTEX_POINT('',#643);
#643 = CARTESIAN_POINT('',(12.182995003232,37.495403154936,25.));
#644 = CIRCLE('',#645,1.175);
#645 = AXIS2_PLACEMENT_3D('',#646,#647,#648);
#646 = CARTESIAN_POINT('',(12.546089971623,38.612894561583,25.));
#647 = DIRECTION('',(0.,0.,-1.));
#648 = DIRECTION('',(-0.309016994375,-0.951056516295,-0.));
#649 = PLANE('',#650);
#650 = AXIS2_PLACEMENT_3D('',#651,#652,#653);
#651 = CARTESIAN_POINT('',(12.546089971623,38.612894561583,25.));
#652 = DIRECTION('',(0.,0.,1.));
#653 = DIRECTION('',(-0.309016994375,-0.951056516295,0.));
#654 = ADVANCED_FACE('',(#655,#658),#669,.T.);
#655 = FACE_BOUND('',#656,.T.);
#656 = EDGE_LOOP('',(#657));
#657 = ORIENTED_EDGE('',*,*,#442,.T.);
#658 = FACE_BOUND('',#659,.T.);
#659 = EDGE_LOOP('',(#660));
#660 = ORIENTED_EDGE('',*,*,#661,.T.);
#661 = EDGE_CURVE('',#662,#662,#664,.T.);
#662 = VERTEX_POINT('',#663);
#663 = CARTESIAN_POINT('',(31.895495003232,23.173433571631,25.));
#664 = CIRCLE('',#665,1.175);
#665 = AXIS2_PLACEMENT_3D('',#666,#667,#668);
#666 = CARTESIAN_POINT('',(32.846089971623,23.864081243074,25.));
#667 = DIRECTION('',(0.,0.,-1.));
#668 = DIRECTION('',(-0.809016994375,-0.587785252292,-0.));
#669 = PLANE('',#670);
#670 = AXIS2_PLACEMENT_3D('',#671,#672,#673);
#671 = CARTESIAN_POINT('',(32.846089971623,23.864081243074,25.));
#672 = DIRECTION('',(0.,0.,1.));
#673 = DIRECTION('',(-0.809016994375,-0.587785252292,0.));
#674 = ADVANCED_FACE('',(#675),#694,.F.);
#675 = FACE_BOUND('',#676,.T.);
#676 = EDGE_LOOP('',(#677,#685,#686,#687));
#677 = ORIENTED_EDGE('',*,*,#678,.T.);
#678 = EDGE_CURVE('',#679,#622,#681,.T.);
#679 = VERTEX_POINT('',#680);
#680 = CARTESIAN_POINT('',(6.8,0.,0.));
#681 = LINE('',#682,#683);
#682 = CARTESIAN_POINT('',(6.8,0.,0.));
#683 = VECTOR('',#684,1.);
#684 = DIRECTION('',(0.,0.,1.));
#685 = ORIENTED_EDGE('',*,*,#621,.T.);
#686 = ORIENTED_EDGE('',*,*,#678,.F.);
#687 = ORIENTED_EDGE('',*,*,#688,.F.);
#688 = EDGE_CURVE('',#679,#679,#689,.T.);
#689 = CIRCLE('',#690,6.8);
#690 = AXIS2_PLACEMENT_3D('',#691,#692,#693);
#691 = CARTESIAN_POINT('',(0.,0.,0.));
#692 = DIRECTION('',(0.,0.,1.));
#693 = DIRECTION('',(1.,0.,0.));
#694 = CYLINDRICAL_SURFACE('',#695,6.8);
#695 = AXIS2_PLACEMENT_3D('',#696,#697,#698);
#696 = CARTESIAN_POINT('',(0.,0.,0.));
#697 = DIRECTION('',(-0.,-0.,-1.));
#698 = DIRECTION('',(1.,0.,0.));
#699 = ADVANCED_FACE('',(#700),#719,.T.);
#700 = FACE_BOUND('',#701,.F.);
#701 = EDGE_LOOP('',(#702,#703,#711,#718));
#702 = ORIENTED_EDGE('',*,*,#461,.T.);
#703 = ORIENTED_EDGE('',*,*,#704,.T.);
#704 = EDGE_CURVE('',#462,#705,#707,.T.);
#705 = VERTEX_POINT('',#706);
#706 = CARTESIAN_POINT('',(-31.89549500323,-23.17343357163,30.));
#707 = LINE('',#708,#709);
#708 = CARTESIAN_POINT('',(-31.89549500323,-23.17343357163,0.));
#709 = VECTOR('',#710,1.);
#710 = DIRECTION('',(0.,0.,1.));
#711 = ORIENTED_EDGE('',*,*,#712,.T.);
#712 = EDGE_CURVE('',#705,#705,#713,.T.);
#713 = CIRCLE('',#714,1.175);
#714 = AXIS2_PLACEMENT_3D('',#715,#716,#717);
#715 = CARTESIAN_POINT('',(-32.84608997162,-23.86408124307,30.));
#716 = DIRECTION('',(0.,-0.,1.));
#717 = DIRECTION('',(0.809016994375,0.587785252292,0.));
#718 = ORIENTED_EDGE('',*,*,#704,.F.);
#719 = CYLINDRICAL_SURFACE('',#720,1.175);
#720 = AXIS2_PLACEMENT_3D('',#721,#722,#723);
#721 = CARTESIAN_POINT('',(-32.84608997162,-23.86408124307,0.));
#722 = DIRECTION('',(0.,-0.,-1.));
#723 = DIRECTION('',(0.809016994375,0.587785252292,0.));
#724 = ADVANCED_FACE('',(#725),#744,.T.);
#725 = FACE_BOUND('',#726,.F.);
#726 = EDGE_LOOP('',(#727,#728,#736,#743));
#727 = ORIENTED_EDGE('',*,*,#481,.T.);
#728 = ORIENTED_EDGE('',*,*,#729,.T.);
#729 = EDGE_CURVE('',#482,#730,#732,.T.);
#730 = VERTEX_POINT('',#731);
#731 = CARTESIAN_POINT('',(-12.18299500323,-37.49540315493,30.));
#732 = LINE('',#733,#734);
#733 = CARTESIAN_POINT('',(-12.18299500323,-37.49540315493,0.));
#734 = VECTOR('',#735,1.);
#735 = DIRECTION('',(0.,0.,1.));
#736 = ORIENTED_EDGE('',*,*,#737,.T.);
#737 = EDGE_CURVE('',#730,#730,#738,.T.);
#738 = CIRCLE('',#739,1.175);
#739 = AXIS2_PLACEMENT_3D('',#740,#741,#742);
#740 = CARTESIAN_POINT('',(-12.54608997162,-38.61289456158,30.));
#741 = DIRECTION('',(0.,-0.,1.));
#742 = DIRECTION('',(0.309016994375,0.951056516295,0.));
#743 = ORIENTED_EDGE('',*,*,#729,.F.);
#744 = CYLINDRICAL_SURFACE('',#745,1.175);
#745 = AXIS2_PLACEMENT_3D('',#746,#747,#748);
#746 = CARTESIAN_POINT('',(-12.54608997162,-38.61289456158,0.));
#747 = DIRECTION('',(0.,0.,-1.));
#748 = DIRECTION('',(0.309016994375,0.951056516295,0.));
#749 = ADVANCED_FACE('',(#750),#769,.T.);
#750 = FACE_BOUND('',#751,.F.);
#751 = EDGE_LOOP('',(#752,#753,#761,#768));
#752 = ORIENTED_EDGE('',*,*,#501,.T.);
#753 = ORIENTED_EDGE('',*,*,#754,.T.);
#754 = EDGE_CURVE('',#502,#755,#757,.T.);
#755 = VERTEX_POINT('',#756);
#756 = CARTESIAN_POINT('',(12.182995003232,-37.49540315493,30.));
#757 = LINE('',#758,#759);
#758 = CARTESIAN_POINT('',(12.182995003232,-37.49540315493,0.));
#759 = VECTOR('',#760,1.);
#760 = DIRECTION('',(0.,0.,1.));
#761 = ORIENTED_EDGE('',*,*,#762,.T.);
#762 = EDGE_CURVE('',#755,#755,#763,.T.);
#763 = CIRCLE('',#764,1.175);
#764 = AXIS2_PLACEMENT_3D('',#765,#766,#767);
#765 = CARTESIAN_POINT('',(12.546089971623,-38.61289456158,30.));
#766 = DIRECTION('',(0.,0.,1.));
#767 = DIRECTION('',(-0.309016994375,0.951056516295,0.));
#768 = ORIENTED_EDGE('',*,*,#754,.F.);
#769 = CYLINDRICAL_SURFACE('',#770,1.175);
#770 = AXIS2_PLACEMENT_3D('',#771,#772,#773);
#771 = CARTESIAN_POINT('',(12.546089971623,-38.61289456158,0.));
#772 = DIRECTION('',(-0.,0.,-1.));
#773 = DIRECTION('',(-0.309016994375,0.951056516295,0.));
#774 = ADVANCED_FACE('',(#775),#794,.T.);
#775 = FACE_BOUND('',#776,.F.);
#776 = EDGE_LOOP('',(#777,#778,#786,#793));
#777 = ORIENTED_EDGE('',*,*,#521,.T.);
#778 = ORIENTED_EDGE('',*,*,#779,.T.);
#779 = EDGE_CURVE('',#522,#780,#782,.T.);
#780 = VERTEX_POINT('',#781);
#781 = CARTESIAN_POINT('',(31.895495003232,-23.17343357163,30.));
#782 = LINE('',#783,#784);
#783 = CARTESIAN_POINT('',(31.895495003232,-23.17343357163,0.));
#784 = VECTOR('',#785,1.);
#785 = DIRECTION('',(0.,0.,1.));
#786 = ORIENTED_EDGE('',*,*,#787,.T.);
#787 = EDGE_CURVE('',#780,#780,#788,.T.);
#788 = CIRCLE('',#789,1.175);
#789 = AXIS2_PLACEMENT_3D('',#790,#791,#792);
#790 = CARTESIAN_POINT('',(32.846089971623,-23.86408124307,30.));
#791 = DIRECTION('',(0.,0.,1.));
#792 = DIRECTION('',(-0.809016994375,0.587785252292,0.));
#793 = ORIENTED_EDGE('',*,*,#779,.F.);
#794 = CYLINDRICAL_SURFACE('',#795,1.175);
#795 = AXIS2_PLACEMENT_3D('',#796,#797,#798);
#796 = CARTESIAN_POINT('',(32.846089971623,-23.86408124307,0.));
#797 = DIRECTION('',(0.,0.,-1.));
#798 = DIRECTION('',(-0.809016994375,0.587785252292,0.));
#799 = ADVANCED_FACE('',(#800),#819,.T.);
#800 = FACE_BOUND('',#801,.F.);
#801 = EDGE_LOOP('',(#802,#803,#811,#818));
#802 = ORIENTED_EDGE('',*,*,#541,.T.);
#803 = ORIENTED_EDGE('',*,*,#804,.T.);
#804 = EDGE_CURVE('',#542,#805,#807,.T.);
#805 = VERTEX_POINT('',#806);
#806 = CARTESIAN_POINT('',(39.425,-4.828170005638E-15,30.));
#807 = LINE('',#808,#809);
#808 = CARTESIAN_POINT('',(39.425,-4.828170005638E-15,0.));
#809 = VECTOR('',#810,1.);
#810 = DIRECTION('',(0.,0.,1.));
#811 = ORIENTED_EDGE('',*,*,#812,.T.);
#812 = EDGE_CURVE('',#805,#805,#813,.T.);
#813 = CIRCLE('',#814,1.175);
#814 = AXIS2_PLACEMENT_3D('',#815,#816,#817);
#815 = CARTESIAN_POINT('',(40.6,-4.972066004538E-15,30.));
#816 = DIRECTION('',(0.,0.,1.));
#817 = DIRECTION('',(-1.,1.224646799147E-16,0.));
#818 = ORIENTED_EDGE('',*,*,#804,.F.);
#819 = CYLINDRICAL_SURFACE('',#820,1.175);
#820 = AXIS2_PLACEMENT_3D('',#821,#822,#823);
#821 = CARTESIAN_POINT('',(40.6,-4.972066004538E-15,0.));
#822 = DIRECTION('',(0.,0.,-1.));
#823 = DIRECTION('',(-1.,1.224646799147E-16,0.));
#824 = ADVANCED_FACE('',(#825),#844,.T.);
#825 = FACE_BOUND('',#826,.F.);
#826 = EDGE_LOOP('',(#827,#828,#836,#843));
#827 = ORIENTED_EDGE('',*,*,#561,.T.);
#828 = ORIENTED_EDGE('',*,*,#829,.T.);
#829 = EDGE_CURVE('',#562,#830,#832,.T.);
#830 = VERTEX_POINT('',#831);
#831 = CARTESIAN_POINT('',(-39.425,0.,30.));
#832 = LINE('',#833,#834);
#833 = CARTESIAN_POINT('',(-39.425,0.,0.));
#834 = VECTOR('',#835,1.);
#835 = DIRECTION('',(0.,0.,1.));
#836 = ORIENTED_EDGE('',*,*,#837,.T.);
#837 = EDGE_CURVE('',#830,#830,#838,.T.);
#838 = CIRCLE('',#839,1.175);
#839 = AXIS2_PLACEMENT_3D('',#840,#841,#842);
#840 = CARTESIAN_POINT('',(-40.6,0.,30.));
#841 = DIRECTION('',(0.,0.,1.));
#842 = DIRECTION('',(1.,0.,0.));
#843 = ORIENTED_EDGE('',*,*,#829,.F.);
#844 = CYLINDRICAL_SURFACE('',#845,1.175);
#845 = AXIS2_PLACEMENT_3D('',#846,#847,#848);
#846 = CARTESIAN_POINT('',(-40.6,0.,0.));
#847 = DIRECTION('',(-0.,-0.,-1.));
#848 = DIRECTION('',(1.,0.,0.));
#849 = ADVANCED_FACE('',(#850),#869,.T.);
#850 = FACE_BOUND('',#851,.F.);
#851 = EDGE_LOOP('',(#852,#853,#861,#868));
#852 = ORIENTED_EDGE('',*,*,#581,.T.);
#853 = ORIENTED_EDGE('',*,*,#854,.T.);
#854 = EDGE_CURVE('',#582,#855,#857,.T.);
#855 = VERTEX_POINT('',#856);
#856 = CARTESIAN_POINT('',(-31.89549500323,23.173433571631,30.));
#857 = LINE('',#858,#859);
#858 = CARTESIAN_POINT('',(-31.89549500323,23.173433571631,0.));
#859 = VECTOR('',#860,1.);
#860 = DIRECTION('',(0.,0.,1.));
#861 = ORIENTED_EDGE('',*,*,#862,.T.);
#862 = EDGE_CURVE('',#855,#855,#863,.T.);
#863 = CIRCLE('',#864,1.175);
#864 = AXIS2_PLACEMENT_3D('',#865,#866,#867);
#865 = CARTESIAN_POINT('',(-32.84608997162,23.864081243074,30.));
#866 = DIRECTION('',(-0.,0.,1.));
#867 = DIRECTION('',(0.809016994375,-0.587785252292,0.));
#868 = ORIENTED_EDGE('',*,*,#854,.F.);
#869 = CYLINDRICAL_SURFACE('',#870,1.175);
#870 = AXIS2_PLACEMENT_3D('',#871,#872,#873);
#871 = CARTESIAN_POINT('',(-32.84608997162,23.864081243074,0.));
#872 = DIRECTION('',(0.,0.,-1.));
#873 = DIRECTION('',(0.809016994375,-0.587785252292,0.));
#874 = ADVANCED_FACE('',(#875),#894,.T.);
#875 = FACE_BOUND('',#876,.F.);
#876 = EDGE_LOOP('',(#877,#878,#886,#893));
#877 = ORIENTED_EDGE('',*,*,#601,.T.);
#878 = ORIENTED_EDGE('',*,*,#879,.T.);
#879 = EDGE_CURVE('',#602,#880,#882,.T.);
#880 = VERTEX_POINT('',#881);
#881 = CARTESIAN_POINT('',(-12.18299500323,37.495403154936,30.));
#882 = LINE('',#883,#884);
#883 = CARTESIAN_POINT('',(-12.18299500323,37.495403154936,0.));
#884 = VECTOR('',#885,1.);
#885 = DIRECTION('',(0.,0.,1.));
#886 = ORIENTED_EDGE('',*,*,#887,.T.);
#887 = EDGE_CURVE('',#880,#880,#888,.T.);
#888 = CIRCLE('',#889,1.175);
#889 = AXIS2_PLACEMENT_3D('',#890,#891,#892);
#890 = CARTESIAN_POINT('',(-12.54608997162,38.612894561583,30.));
#891 = DIRECTION('',(-0.,0.,1.));
#892 = DIRECTION('',(0.309016994375,-0.951056516295,0.));
#893 = ORIENTED_EDGE('',*,*,#879,.F.);
#894 = CYLINDRICAL_SURFACE('',#895,1.175);
#895 = AXIS2_PLACEMENT_3D('',#896,#897,#898);
#896 = CARTESIAN_POINT('',(-12.54608997162,38.612894561583,0.));
#897 = DIRECTION('',(0.,0.,-1.));
#898 = DIRECTION('',(0.309016994375,-0.951056516295,0.));
#899 = ADVANCED_FACE('',(#900),#919,.T.);
#900 = FACE_BOUND('',#901,.F.);
#901 = EDGE_LOOP('',(#902,#903,#911,#918));
#902 = ORIENTED_EDGE('',*,*,#641,.T.);
#903 = ORIENTED_EDGE('',*,*,#904,.T.);
#904 = EDGE_CURVE('',#642,#905,#907,.T.);
#905 = VERTEX_POINT('',#906);
#906 = CARTESIAN_POINT('',(12.182995003232,37.495403154936,30.));
#907 = LINE('',#908,#909);
#908 = CARTESIAN_POINT('',(12.182995003232,37.495403154936,0.));
#909 = VECTOR('',#910,1.);
#910 = DIRECTION('',(0.,0.,1.));
#911 = ORIENTED_EDGE('',*,*,#912,.T.);
#912 = EDGE_CURVE('',#905,#905,#913,.T.);
#913 = CIRCLE('',#914,1.175);
#914 = AXIS2_PLACEMENT_3D('',#915,#916,#917);
#915 = CARTESIAN_POINT('',(12.546089971623,38.612894561583,30.));
#916 = DIRECTION('',(0.,0.,1.));
#917 = DIRECTION('',(-0.309016994375,-0.951056516295,0.));
#918 = ORIENTED_EDGE('',*,*,#904,.F.);
#919 = CYLINDRICAL_SURFACE('',#920,1.175);
#920 = AXIS2_PLACEMENT_3D('',#921,#922,#923);
#921 = CARTESIAN_POINT('',(12.546089971623,38.612894561583,0.));
#922 = DIRECTION('',(0.,-0.,-1.));
#923 = DIRECTION('',(-0.309016994375,-0.951056516295,0.));
#924 = ADVANCED_FACE('',(#925),#944,.T.);
#925 = FACE_BOUND('',#926,.F.);
#926 = EDGE_LOOP('',(#927,#928,#936,#943));
#927 = ORIENTED_EDGE('',*,*,#661,.T.);
#928 = ORIENTED_EDGE('',*,*,#929,.T.);
#929 = EDGE_CURVE('',#662,#930,#932,.T.);
#930 = VERTEX_POINT('',#931);
#931 = CARTESIAN_POINT('',(31.895495003232,23.173433571631,30.));
#932 = LINE('',#933,#934);
#933 = CARTESIAN_POINT('',(31.895495003232,23.173433571631,0.));
#934 = VECTOR('',#935,1.);
#935 = DIRECTION('',(0.,0.,1.));
#936 = ORIENTED_EDGE('',*,*,#937,.T.);
#937 = EDGE_CURVE('',#930,#930,#938,.T.);
#938 = CIRCLE('',#939,1.175);
#939 = AXIS2_PLACEMENT_3D('',#940,#941,#942);
#940 = CARTESIAN_POINT('',(32.846089971623,23.864081243074,30.));
#941 = DIRECTION('',(0.,0.,1.));
#942 = DIRECTION('',(-0.809016994375,-0.587785252292,0.));
#943 = ORIENTED_EDGE('',*,*,#929,.F.);
#944 = CYLINDRICAL_SURFACE('',#945,1.175);
#945 = AXIS2_PLACEMENT_3D('',#946,#947,#948);
#946 = CARTESIAN_POINT('',(32.846089971623,23.864081243074,0.));
#947 = DIRECTION('',(0.,-0.,-1.));
#948 = DIRECTION('',(-0.809016994375,-0.587785252292,0.));
#949 = ADVANCED_FACE('',(#950),#953,.T.);
#950 = FACE_BOUND('',#951,.T.);
#951 = EDGE_LOOP('',(#952));
#952 = ORIENTED_EDGE('',*,*,#712,.T.);
#953 = PLANE('',#954);
#954 = AXIS2_PLACEMENT_3D('',#955,#956,#957);
#955 = CARTESIAN_POINT('',(-32.84608997162,-23.86408124307,30.));
#956 = DIRECTION('',(0.,0.,1.));
#957 = DIRECTION('',(0.809016994375,0.587785252292,0.));
#958 = ADVANCED_FACE('',(#959),#962,.T.);
#959 = FACE_BOUND('',#960,.T.);
#960 = EDGE_LOOP('',(#961));
#961 = ORIENTED_EDGE('',*,*,#737,.T.);
#962 = PLANE('',#963);
#963 = AXIS2_PLACEMENT_3D('',#964,#965,#966);
#964 = CARTESIAN_POINT('',(-12.54608997162,-38.61289456158,30.));
#965 = DIRECTION('',(0.,0.,1.));
#966 = DIRECTION('',(0.309016994375,0.951056516295,0.));
#967 = ADVANCED_FACE('',(#968),#971,.T.);
#968 = FACE_BOUND('',#969,.T.);
#969 = EDGE_LOOP('',(#970));
#970 = ORIENTED_EDGE('',*,*,#762,.T.);
#971 = PLANE('',#972);
#972 = AXIS2_PLACEMENT_3D('',#973,#974,#975);
#973 = CARTESIAN_POINT('',(12.546089971623,-38.61289456158,30.));
#974 = DIRECTION('',(0.,0.,1.));
#975 = DIRECTION('',(-0.309016994375,0.951056516295,0.));
#976 = ADVANCED_FACE('',(#977),#980,.T.);
#977 = FACE_BOUND('',#978,.T.);
#978 = EDGE_LOOP('',(#979));
#979 = ORIENTED_EDGE('',*,*,#787,.T.);
#980 = PLANE('',#981);
#981 = AXIS2_PLACEMENT_3D('',#982,#983,#984);
#982 = CARTESIAN_POINT('',(32.846089971623,-23.86408124307,30.));
#983 = DIRECTION('',(0.,0.,1.));
#984 = DIRECTION('',(-0.809016994375,0.587785252292,0.));
#985 = ADVANCED_FACE('',(#986),#989,.T.);
#986 = FACE_BOUND('',#987,.T.);
#987 = EDGE_LOOP('',(#988));
#988 = ORIENTED_EDGE('',*,*,#812,.T.);
#989 = PLANE('',#990);
#990 = AXIS2_PLACEMENT_3D('',#991,#992,#993);
#991 = CARTESIAN_POINT('',(40.6,-4.996836848834E-15,30.));
#992 = DIRECTION('',(0.,0.,1.));
#993 = DIRECTION('',(-1.,1.224646799147E-16,0.));
#994 = ADVANCED_FACE('',(#995),#998,.T.);
#995 = FACE_BOUND('',#996,.T.);
#996 = EDGE_LOOP('',(#997));
#997 = ORIENTED_EDGE('',*,*,#837,.T.);
#998 = PLANE('',#999);
#999 = AXIS2_PLACEMENT_3D('',#1000,#1001,#1002);
#1000 = CARTESIAN_POINT('',(-40.6,2.477084429613E-17,30.));
#1001 = DIRECTION('',(0.,0.,1.));
#1002 = DIRECTION('',(1.,0.,0.));
#1003 = ADVANCED_FACE('',(#1004),#1007,.T.);
#1004 = FACE_BOUND('',#1005,.T.);
#1005 = EDGE_LOOP('',(#1006));
#1006 = ORIENTED_EDGE('',*,*,#862,.T.);
#1007 = PLANE('',#1008);
#1008 = AXIS2_PLACEMENT_3D('',#1009,#1010,#1011);
#1009 = CARTESIAN_POINT('',(-32.84608997162,23.864081243074,30.));
#1010 = DIRECTION('',(0.,0.,1.));
#1011 = DIRECTION('',(0.809016994375,-0.587785252292,0.));
#1012 = ADVANCED_FACE('',(#1013),#1016,.T.);
#1013 = FACE_BOUND('',#1014,.T.);
#1014 = EDGE_LOOP('',(#1015));
#1015 = ORIENTED_EDGE('',*,*,#887,.T.);
#1016 = PLANE('',#1017);
#1017 = AXIS2_PLACEMENT_3D('',#1018,#1019,#1020);
#1018 = CARTESIAN_POINT('',(-12.54608997162,38.612894561583,30.));
#1019 = DIRECTION('',(0.,0.,1.));
#1020 = DIRECTION('',(0.309016994375,-0.951056516295,0.));
#1021 = ADVANCED_FACE('',(#1022),#1025,.T.);
#1022 = FACE_BOUND('',#1023,.T.);
#1023 = EDGE_LOOP('',(#1024));
#1024 = ORIENTED_EDGE('',*,*,#912,.T.);
#1025 = PLANE('',#1026);
#1026 = AXIS2_PLACEMENT_3D('',#1027,#1028,#1029);
#1027 = CARTESIAN_POINT('',(12.546089971623,38.612894561583,30.));
#1028 = DIRECTION('',(0.,0.,1.));
#1029 = DIRECTION('',(-0.309016994375,-0.951056516295,0.));
#1030 = ADVANCED_FACE('',(#1031),#1034,.T.);
#1031 = FACE_BOUND('',#1032,.T.);
#1032 = EDGE_LOOP('',(#1033));
#1033 = ORIENTED_EDGE('',*,*,#937,.T.);
#1034 = PLANE('',#1035);
#1035 = AXIS2_PLACEMENT_3D('',#1036,#1037,#1038);
#1036 = CARTESIAN_POINT('',(32.846089971623,23.864081243074,30.));
#1037 = DIRECTION('',(0.,0.,1.));
#1038 = DIRECTION('',(-0.809016994375,-0.587785252292,0.));
#1039 = ADVANCED_FACE('',(#1040,#1043,#1046,#1057,#1068,#1079,#1090,
    #1101,#1112,#1123,#1134,#1145),#1156,.T.);
#1040 = FACE_BOUND('',#1041,.T.);
#1041 = EDGE_LOOP('',(#1042));
#1042 = ORIENTED_EDGE('',*,*,#159,.F.);
#1043 = FACE_BOUND('',#1044,.T.);
#1044 = EDGE_LOOP('',(#1045));
#1045 = ORIENTED_EDGE('',*,*,#688,.T.);
#1046 = FACE_BOUND('',#1047,.T.);
#1047 = EDGE_LOOP('',(#1048));
#1048 = ORIENTED_EDGE('',*,*,#1049,.T.);
#1049 = EDGE_CURVE('',#1050,#1050,#1052,.T.);
#1050 = VERTEX_POINT('',#1051);
#1051 = CARTESIAN_POINT('',(31.65278990492,-22.99709799594,0.));
#1052 = CIRCLE('',#1053,1.475);
#1053 = AXIS2_PLACEMENT_3D('',#1054,#1055,#1056);
#1054 = CARTESIAN_POINT('',(32.846089971623,-23.86408124307,0.));
#1055 = DIRECTION('',(0.,0.,1.));
#1056 = DIRECTION('',(-0.809016994375,0.587785252292,0.));
#1057 = FACE_BOUND('',#1058,.T.);
#1058 = EDGE_LOOP('',(#1059));
#1059 = ORIENTED_EDGE('',*,*,#1060,.T.);
#1060 = EDGE_CURVE('',#1061,#1061,#1063,.T.);
#1061 = VERTEX_POINT('',#1062);
#1062 = CARTESIAN_POINT('',(-31.65278990492,-22.99709799594,0.));
#1063 = CIRCLE('',#1064,1.475);
#1064 = AXIS2_PLACEMENT_3D('',#1065,#1066,#1067);
#1065 = CARTESIAN_POINT('',(-32.84608997162,-23.86408124307,0.));
#1066 = DIRECTION('',(0.,-0.,1.));
#1067 = DIRECTION('',(0.809016994375,0.587785252292,0.));
#1068 = FACE_BOUND('',#1069,.T.);
#1069 = EDGE_LOOP('',(#1070));
#1070 = ORIENTED_EDGE('',*,*,#1071,.T.);
#1071 = EDGE_CURVE('',#1072,#1072,#1074,.T.);
#1072 = VERTEX_POINT('',#1073);
#1073 = CARTESIAN_POINT('',(31.65278990492,22.997097995943,0.));
#1074 = CIRCLE('',#1075,1.475);
#1075 = AXIS2_PLACEMENT_3D('',#1076,#1077,#1078);
#1076 = CARTESIAN_POINT('',(32.846089971623,23.864081243074,0.));
#1077 = DIRECTION('',(0.,0.,1.));
#1078 = DIRECTION('',(-0.809016994375,-0.587785252292,0.));
#1079 = FACE_BOUND('',#1080,.T.);
#1080 = EDGE_LOOP('',(#1081));
#1081 = ORIENTED_EDGE('',*,*,#1082,.T.);
#1082 = EDGE_CURVE('',#1083,#1083,#1085,.T.);
#1083 = VERTEX_POINT('',#1084);
#1084 = CARTESIAN_POINT('',(-31.65278990492,22.997097995943,0.));
#1085 = CIRCLE('',#1086,1.475);
#1086 = AXIS2_PLACEMENT_3D('',#1087,#1088,#1089);
#1087 = CARTESIAN_POINT('',(-32.84608997162,23.864081243074,0.));
#1088 = DIRECTION('',(-0.,0.,1.));
#1089 = DIRECTION('',(0.809016994375,-0.587785252292,0.));
#1090 = FACE_BOUND('',#1091,.T.);
#1091 = EDGE_LOOP('',(#1092));
#1092 = ORIENTED_EDGE('',*,*,#1093,.T.);
#1093 = EDGE_CURVE('',#1094,#1094,#1096,.T.);
#1094 = VERTEX_POINT('',#1095);
#1095 = CARTESIAN_POINT('',(-39.125,0.,0.));
#1096 = CIRCLE('',#1097,1.475);
#1097 = AXIS2_PLACEMENT_3D('',#1098,#1099,#1100);
#1098 = CARTESIAN_POINT('',(-40.6,0.,0.));
#1099 = DIRECTION('',(0.,0.,1.));
#1100 = DIRECTION('',(1.,0.,0.));
#1101 = FACE_BOUND('',#1102,.T.);
#1102 = EDGE_LOOP('',(#1103));
#1103 = ORIENTED_EDGE('',*,*,#1104,.T.);
#1104 = EDGE_CURVE('',#1105,#1105,#1107,.T.);
#1105 = VERTEX_POINT('',#1106);
#1106 = CARTESIAN_POINT('',(39.125,-4.791430601664E-15,0.));
#1107 = CIRCLE('',#1108,1.475);
#1108 = AXIS2_PLACEMENT_3D('',#1109,#1110,#1111);
#1109 = CARTESIAN_POINT('',(40.6,-4.972066004538E-15,0.));
#1110 = DIRECTION('',(0.,0.,1.));
#1111 = DIRECTION('',(-1.,1.224646799147E-16,0.));
#1112 = FACE_BOUND('',#1113,.T.);
#1113 = EDGE_LOOP('',(#1114));
#1114 = ORIENTED_EDGE('',*,*,#1115,.T.);
#1115 = EDGE_CURVE('',#1116,#1116,#1118,.T.);
#1116 = VERTEX_POINT('',#1117);
#1117 = CARTESIAN_POINT('',(12.09028990492,-37.21008620004,0.));
#1118 = CIRCLE('',#1119,1.475);
#1119 = AXIS2_PLACEMENT_3D('',#1120,#1121,#1122);
#1120 = CARTESIAN_POINT('',(12.546089971623,-38.61289456158,0.));
#1121 = DIRECTION('',(0.,0.,1.));
#1122 = DIRECTION('',(-0.309016994375,0.951056516295,0.));
#1123 = FACE_BOUND('',#1124,.T.);
#1124 = EDGE_LOOP('',(#1125));
#1125 = ORIENTED_EDGE('',*,*,#1126,.T.);
#1126 = EDGE_CURVE('',#1127,#1127,#1129,.T.);
#1127 = VERTEX_POINT('',#1128);
#1128 = CARTESIAN_POINT('',(-12.09028990492,-37.21008620004,0.));
#1129 = CIRCLE('',#1130,1.475);
#1130 = AXIS2_PLACEMENT_3D('',#1131,#1132,#1133);
#1131 = CARTESIAN_POINT('',(-12.54608997162,-38.61289456158,0.));
#1132 = DIRECTION('',(0.,-0.,1.));
#1133 = DIRECTION('',(0.309016994375,0.951056516295,0.));
#1134 = FACE_BOUND('',#1135,.T.);
#1135 = EDGE_LOOP('',(#1136));
#1136 = ORIENTED_EDGE('',*,*,#1137,.T.);
#1137 = EDGE_CURVE('',#1138,#1138,#1140,.T.);
#1138 = VERTEX_POINT('',#1139);
#1139 = CARTESIAN_POINT('',(12.09028990492,37.210086200048,0.));
#1140 = CIRCLE('',#1141,1.475);
#1141 = AXIS2_PLACEMENT_3D('',#1142,#1143,#1144);
#1142 = CARTESIAN_POINT('',(12.546089971623,38.612894561583,0.));
#1143 = DIRECTION('',(0.,0.,1.));
#1144 = DIRECTION('',(-0.309016994375,-0.951056516295,0.));
#1145 = FACE_BOUND('',#1146,.T.);
#1146 = EDGE_LOOP('',(#1147));
#1147 = ORIENTED_EDGE('',*,*,#1148,.T.);
#1148 = EDGE_CURVE('',#1149,#1149,#1151,.T.);
#1149 = VERTEX_POINT('',#1150);
#1150 = CARTESIAN_POINT('',(-12.09028990492,37.210086200048,0.));
#1151 = CIRCLE('',#1152,1.475);
#1152 = AXIS2_PLACEMENT_3D('',#1153,#1154,#1155);
#1153 = CARTESIAN_POINT('',(-12.54608997162,38.612894561583,0.));
#1154 = DIRECTION('',(-0.,0.,1.));
#1155 = DIRECTION('',(0.309016994375,-0.951056516295,0.));
#1156 = PLANE('',#1157);
#1157 = AXIS2_PLACEMENT_3D('',#1158,#1159,#1160);
#1158 = CARTESIAN_POINT('',(-1.842445652264E-15,3.588312858141E-15,0.));
#1159 = DIRECTION('',(-0.,-0.,-1.));
#1160 = DIRECTION('',(-1.,0.,0.));
#1161 = ADVANCED_FACE('',(#1162),#1181,.F.);
#1162 = FACE_BOUND('',#1163,.T.);
#1163 = EDGE_LOOP('',(#1164,#1172,#1179,#1180));
#1164 = ORIENTED_EDGE('',*,*,#1165,.T.);
#1165 = EDGE_CURVE('',#1050,#1166,#1168,.T.);
#1166 = VERTEX_POINT('',#1167);
#1167 = CARTESIAN_POINT('',(31.65278990492,-22.99709799594,15.));
#1168 = LINE('',#1169,#1170);
#1169 = CARTESIAN_POINT('',(31.65278990492,-22.99709799594,0.));
#1170 = VECTOR('',#1171,1.);
#1171 = DIRECTION('',(0.,0.,1.));
#1172 = ORIENTED_EDGE('',*,*,#1173,.T.);
#1173 = EDGE_CURVE('',#1166,#1166,#1174,.T.);
#1174 = CIRCLE('',#1175,1.475);
#1175 = AXIS2_PLACEMENT_3D('',#1176,#1177,#1178);
#1176 = CARTESIAN_POINT('',(32.846089971623,-23.86408124307,15.));
#1177 = DIRECTION('',(0.,0.,1.));
#1178 = DIRECTION('',(-0.809016994375,0.587785252292,0.));
#1179 = ORIENTED_EDGE('',*,*,#1165,.F.);
#1180 = ORIENTED_EDGE('',*,*,#1049,.F.);
#1181 = CYLINDRICAL_SURFACE('',#1182,1.475);
#1182 = AXIS2_PLACEMENT_3D('',#1183,#1184,#1185);
#1183 = CARTESIAN_POINT('',(32.846089971623,-23.86408124307,0.));
#1184 = DIRECTION('',(0.,0.,-1.));
#1185 = DIRECTION('',(-0.809016994375,0.587785252292,0.));
#1186 = ADVANCED_FACE('',(#1187),#1190,.F.);
#1187 = FACE_BOUND('',#1188,.F.);
#1188 = EDGE_LOOP('',(#1189));
#1189 = ORIENTED_EDGE('',*,*,#1173,.T.);
#1190 = PLANE('',#1191);
#1191 = AXIS2_PLACEMENT_3D('',#1192,#1193,#1194);
#1192 = CARTESIAN_POINT('',(32.846089971623,-23.86408124307,15.));
#1193 = DIRECTION('',(0.,0.,1.));
#1194 = DIRECTION('',(-0.809016994375,0.587785252292,0.));
#1195 = ADVANCED_FACE('',(#1196),#1215,.F.);
#1196 = FACE_BOUND('',#1197,.T.);
#1197 = EDGE_LOOP('',(#1198,#1206,#1213,#1214));
#1198 = ORIENTED_EDGE('',*,*,#1199,.T.);
#1199 = EDGE_CURVE('',#1061,#1200,#1202,.T.);
#1200 = VERTEX_POINT('',#1201);
#1201 = CARTESIAN_POINT('',(-31.65278990492,-22.99709799594,15.));
#1202 = LINE('',#1203,#1204);
#1203 = CARTESIAN_POINT('',(-31.65278990492,-22.99709799594,0.));
#1204 = VECTOR('',#1205,1.);
#1205 = DIRECTION('',(0.,0.,1.));
#1206 = ORIENTED_EDGE('',*,*,#1207,.T.);
#1207 = EDGE_CURVE('',#1200,#1200,#1208,.T.);
#1208 = CIRCLE('',#1209,1.475);
#1209 = AXIS2_PLACEMENT_3D('',#1210,#1211,#1212);
#1210 = CARTESIAN_POINT('',(-32.84608997162,-23.86408124307,15.));
#1211 = DIRECTION('',(0.,-0.,1.));
#1212 = DIRECTION('',(0.809016994375,0.587785252292,0.));
#1213 = ORIENTED_EDGE('',*,*,#1199,.F.);
#1214 = ORIENTED_EDGE('',*,*,#1060,.F.);
#1215 = CYLINDRICAL_SURFACE('',#1216,1.475);
#1216 = AXIS2_PLACEMENT_3D('',#1217,#1218,#1219);
#1217 = CARTESIAN_POINT('',(-32.84608997162,-23.86408124307,0.));
#1218 = DIRECTION('',(0.,-0.,-1.));
#1219 = DIRECTION('',(0.809016994375,0.587785252292,0.));
#1220 = ADVANCED_FACE('',(#1221),#1224,.F.);
#1221 = FACE_BOUND('',#1222,.F.);
#1222 = EDGE_LOOP('',(#1223));
#1223 = ORIENTED_EDGE('',*,*,#1207,.T.);
#1224 = PLANE('',#1225);
#1225 = AXIS2_PLACEMENT_3D('',#1226,#1227,#1228);
#1226 = CARTESIAN_POINT('',(-32.84608997162,-23.86408124307,15.));
#1227 = DIRECTION('',(0.,0.,1.));
#1228 = DIRECTION('',(0.809016994375,0.587785252292,0.));
#1229 = ADVANCED_FACE('',(#1230),#1249,.F.);
#1230 = FACE_BOUND('',#1231,.T.);
#1231 = EDGE_LOOP('',(#1232,#1240,#1247,#1248));
#1232 = ORIENTED_EDGE('',*,*,#1233,.T.);
#1233 = EDGE_CURVE('',#1072,#1234,#1236,.T.);
#1234 = VERTEX_POINT('',#1235);
#1235 = CARTESIAN_POINT('',(31.65278990492,22.997097995943,15.));
#1236 = LINE('',#1237,#1238);
#1237 = CARTESIAN_POINT('',(31.65278990492,22.997097995943,0.));
#1238 = VECTOR('',#1239,1.);
#1239 = DIRECTION('',(0.,0.,1.));
#1240 = ORIENTED_EDGE('',*,*,#1241,.T.);
#1241 = EDGE_CURVE('',#1234,#1234,#1242,.T.);
#1242 = CIRCLE('',#1243,1.475);
#1243 = AXIS2_PLACEMENT_3D('',#1244,#1245,#1246);
#1244 = CARTESIAN_POINT('',(32.846089971623,23.864081243074,15.));
#1245 = DIRECTION('',(0.,0.,1.));
#1246 = DIRECTION('',(-0.809016994375,-0.587785252292,0.));
#1247 = ORIENTED_EDGE('',*,*,#1233,.F.);
#1248 = ORIENTED_EDGE('',*,*,#1071,.F.);
#1249 = CYLINDRICAL_SURFACE('',#1250,1.475);
#1250 = AXIS2_PLACEMENT_3D('',#1251,#1252,#1253);
#1251 = CARTESIAN_POINT('',(32.846089971623,23.864081243074,0.));
#1252 = DIRECTION('',(0.,-0.,-1.));
#1253 = DIRECTION('',(-0.809016994375,-0.587785252292,0.));
#1254 = ADVANCED_FACE('',(#1255),#1258,.F.);
#1255 = FACE_BOUND('',#1256,.F.);
#1256 = EDGE_LOOP('',(#1257));
#1257 = ORIENTED_EDGE('',*,*,#1241,.T.);
#1258 = PLANE('',#1259);
#1259 = AXIS2_PLACEMENT_3D('',#1260,#1261,#1262);
#1260 = CARTESIAN_POINT('',(32.846089971623,23.864081243074,15.));
#1261 = DIRECTION('',(0.,0.,1.));
#1262 = DIRECTION('',(-0.809016994375,-0.587785252292,0.));
#1263 = ADVANCED_FACE('',(#1264),#1283,.F.);
#1264 = FACE_BOUND('',#1265,.T.);
#1265 = EDGE_LOOP('',(#1266,#1274,#1281,#1282));
#1266 = ORIENTED_EDGE('',*,*,#1267,.T.);
#1267 = EDGE_CURVE('',#1083,#1268,#1270,.T.);
#1268 = VERTEX_POINT('',#1269);
#1269 = CARTESIAN_POINT('',(-31.65278990492,22.997097995943,15.));
#1270 = LINE('',#1271,#1272);
#1271 = CARTESIAN_POINT('',(-31.65278990492,22.997097995943,0.));
#1272 = VECTOR('',#1273,1.);
#1273 = DIRECTION('',(0.,0.,1.));
#1274 = ORIENTED_EDGE('',*,*,#1275,.T.);
#1275 = EDGE_CURVE('',#1268,#1268,#1276,.T.);
#1276 = CIRCLE('',#1277,1.475);
#1277 = AXIS2_PLACEMENT_3D('',#1278,#1279,#1280);
#1278 = CARTESIAN_POINT('',(-32.84608997162,23.864081243074,15.));
#1279 = DIRECTION('',(-0.,0.,1.));
#1280 = DIRECTION('',(0.809016994375,-0.587785252292,0.));
#1281 = ORIENTED_EDGE('',*,*,#1267,.F.);
#1282 = ORIENTED_EDGE('',*,*,#1082,.F.);
#1283 = CYLINDRICAL_SURFACE('',#1284,1.475);
#1284 = AXIS2_PLACEMENT_3D('',#1285,#1286,#1287);
#1285 = CARTESIAN_POINT('',(-32.84608997162,23.864081243074,0.));
#1286 = DIRECTION('',(0.,0.,-1.));
#1287 = DIRECTION('',(0.809016994375,-0.587785252292,0.));
#1288 = ADVANCED_FACE('',(#1289),#1292,.F.);
#1289 = FACE_BOUND('',#1290,.F.);
#1290 = EDGE_LOOP('',(#1291));
#1291 = ORIENTED_EDGE('',*,*,#1275,.T.);
#1292 = PLANE('',#1293);
#1293 = AXIS2_PLACEMENT_3D('',#1294,#1295,#1296);
#1294 = CARTESIAN_POINT('',(-32.84608997162,23.864081243074,15.));
#1295 = DIRECTION('',(0.,0.,1.));
#1296 = DIRECTION('',(0.809016994375,-0.587785252292,0.));
#1297 = ADVANCED_FACE('',(#1298),#1317,.F.);
#1298 = FACE_BOUND('',#1299,.T.);
#1299 = EDGE_LOOP('',(#1300,#1308,#1315,#1316));
#1300 = ORIENTED_EDGE('',*,*,#1301,.T.);
#1301 = EDGE_CURVE('',#1094,#1302,#1304,.T.);
#1302 = VERTEX_POINT('',#1303);
#1303 = CARTESIAN_POINT('',(-39.125,0.,15.));
#1304 = LINE('',#1305,#1306);
#1305 = CARTESIAN_POINT('',(-39.125,0.,0.));
#1306 = VECTOR('',#1307,1.);
#1307 = DIRECTION('',(0.,0.,1.));
#1308 = ORIENTED_EDGE('',*,*,#1309,.T.);
#1309 = EDGE_CURVE('',#1302,#1302,#1310,.T.);
#1310 = CIRCLE('',#1311,1.475);
#1311 = AXIS2_PLACEMENT_3D('',#1312,#1313,#1314);
#1312 = CARTESIAN_POINT('',(-40.6,0.,15.));
#1313 = DIRECTION('',(0.,0.,1.));
#1314 = DIRECTION('',(1.,0.,0.));
#1315 = ORIENTED_EDGE('',*,*,#1301,.F.);
#1316 = ORIENTED_EDGE('',*,*,#1093,.F.);
#1317 = CYLINDRICAL_SURFACE('',#1318,1.475);
#1318 = AXIS2_PLACEMENT_3D('',#1319,#1320,#1321);
#1319 = CARTESIAN_POINT('',(-40.6,0.,0.));
#1320 = DIRECTION('',(-0.,-0.,-1.));
#1321 = DIRECTION('',(1.,0.,0.));
#1322 = ADVANCED_FACE('',(#1323),#1326,.F.);
#1323 = FACE_BOUND('',#1324,.F.);
#1324 = EDGE_LOOP('',(#1325));
#1325 = ORIENTED_EDGE('',*,*,#1309,.T.);
#1326 = PLANE('',#1327);
#1327 = AXIS2_PLACEMENT_3D('',#1328,#1329,#1330);
#1328 = CARTESIAN_POINT('',(-40.6,-3.499236934452E-16,15.));
#1329 = DIRECTION('',(0.,0.,1.));
#1330 = DIRECTION('',(1.,0.,0.));
#1331 = ADVANCED_FACE('',(#1332),#1351,.F.);
#1332 = FACE_BOUND('',#1333,.T.);
#1333 = EDGE_LOOP('',(#1334,#1342,#1349,#1350));
#1334 = ORIENTED_EDGE('',*,*,#1335,.T.);
#1335 = EDGE_CURVE('',#1105,#1336,#1338,.T.);
#1336 = VERTEX_POINT('',#1337);
#1337 = CARTESIAN_POINT('',(39.125,-4.791430601664E-15,15.));
#1338 = LINE('',#1339,#1340);
#1339 = CARTESIAN_POINT('',(39.125,-4.791430601664E-15,0.));
#1340 = VECTOR('',#1341,1.);
#1341 = DIRECTION('',(0.,0.,1.));
#1342 = ORIENTED_EDGE('',*,*,#1343,.T.);
#1343 = EDGE_CURVE('',#1336,#1336,#1344,.T.);
#1344 = CIRCLE('',#1345,1.475);
#1345 = AXIS2_PLACEMENT_3D('',#1346,#1347,#1348);
#1346 = CARTESIAN_POINT('',(40.6,-4.972066004538E-15,15.));
#1347 = DIRECTION('',(0.,0.,1.));
#1348 = DIRECTION('',(-1.,1.224646799147E-16,0.));
#1349 = ORIENTED_EDGE('',*,*,#1335,.F.);
#1350 = ORIENTED_EDGE('',*,*,#1104,.F.);
#1351 = CYLINDRICAL_SURFACE('',#1352,1.475);
#1352 = AXIS2_PLACEMENT_3D('',#1353,#1354,#1355);
#1353 = CARTESIAN_POINT('',(40.6,-4.972066004538E-15,0.));
#1354 = DIRECTION('',(0.,0.,-1.));
#1355 = DIRECTION('',(-1.,1.224646799147E-16,0.));
#1356 = ADVANCED_FACE('',(#1357),#1360,.F.);
#1357 = FACE_BOUND('',#1358,.F.);
#1358 = EDGE_LOOP('',(#1359));
#1359 = ORIENTED_EDGE('',*,*,#1343,.T.);
#1360 = PLANE('',#1361);
#1361 = AXIS2_PLACEMENT_3D('',#1362,#1363,#1364);
#1362 = CARTESIAN_POINT('',(40.6,-4.622142311093E-15,15.));
#1363 = DIRECTION('',(0.,0.,1.));
#1364 = DIRECTION('',(-1.,1.224646799147E-16,0.));
#1365 = ADVANCED_FACE('',(#1366),#1385,.F.);
#1366 = FACE_BOUND('',#1367,.T.);
#1367 = EDGE_LOOP('',(#1368,#1376,#1383,#1384));
#1368 = ORIENTED_EDGE('',*,*,#1369,.T.);
#1369 = EDGE_CURVE('',#1116,#1370,#1372,.T.);
#1370 = VERTEX_POINT('',#1371);
#1371 = CARTESIAN_POINT('',(12.09028990492,-37.21008620004,15.));
#1372 = LINE('',#1373,#1374);
#1373 = CARTESIAN_POINT('',(12.09028990492,-37.21008620004,0.));
#1374 = VECTOR('',#1375,1.);
#1375 = DIRECTION('',(0.,0.,1.));
#1376 = ORIENTED_EDGE('',*,*,#1377,.T.);
#1377 = EDGE_CURVE('',#1370,#1370,#1378,.T.);
#1378 = CIRCLE('',#1379,1.475);
#1379 = AXIS2_PLACEMENT_3D('',#1380,#1381,#1382);
#1380 = CARTESIAN_POINT('',(12.546089971623,-38.61289456158,15.));
#1381 = DIRECTION('',(0.,0.,1.));
#1382 = DIRECTION('',(-0.309016994375,0.951056516295,0.));
#1383 = ORIENTED_EDGE('',*,*,#1369,.F.);
#1384 = ORIENTED_EDGE('',*,*,#1115,.F.);
#1385 = CYLINDRICAL_SURFACE('',#1386,1.475);
#1386 = AXIS2_PLACEMENT_3D('',#1387,#1388,#1389);
#1387 = CARTESIAN_POINT('',(12.546089971623,-38.61289456158,0.));
#1388 = DIRECTION('',(-0.,0.,-1.));
#1389 = DIRECTION('',(-0.309016994375,0.951056516295,0.));
#1390 = ADVANCED_FACE('',(#1391),#1394,.F.);
#1391 = FACE_BOUND('',#1392,.F.);
#1392 = EDGE_LOOP('',(#1393));
#1393 = ORIENTED_EDGE('',*,*,#1377,.T.);
#1394 = PLANE('',#1395);
#1395 = AXIS2_PLACEMENT_3D('',#1396,#1397,#1398);
#1396 = CARTESIAN_POINT('',(12.546089971623,-38.61289456158,15.));
#1397 = DIRECTION('',(0.,0.,1.));
#1398 = DIRECTION('',(-0.309016994375,0.951056516295,0.));
#1399 = ADVANCED_FACE('',(#1400),#1419,.F.);
#1400 = FACE_BOUND('',#1401,.T.);
#1401 = EDGE_LOOP('',(#1402,#1410,#1417,#1418));
#1402 = ORIENTED_EDGE('',*,*,#1403,.T.);
#1403 = EDGE_CURVE('',#1127,#1404,#1406,.T.);
#1404 = VERTEX_POINT('',#1405);
#1405 = CARTESIAN_POINT('',(-12.09028990492,-37.21008620004,15.));
#1406 = LINE('',#1407,#1408);
#1407 = CARTESIAN_POINT('',(-12.09028990492,-37.21008620004,0.));
#1408 = VECTOR('',#1409,1.);
#1409 = DIRECTION('',(0.,0.,1.));
#1410 = ORIENTED_EDGE('',*,*,#1411,.T.);
#1411 = EDGE_CURVE('',#1404,#1404,#1412,.T.);
#1412 = CIRCLE('',#1413,1.475);
#1413 = AXIS2_PLACEMENT_3D('',#1414,#1415,#1416);
#1414 = CARTESIAN_POINT('',(-12.54608997162,-38.61289456158,15.));
#1415 = DIRECTION('',(0.,-0.,1.));
#1416 = DIRECTION('',(0.309016994375,0.951056516295,0.));
#1417 = ORIENTED_EDGE('',*,*,#1403,.F.);
#1418 = ORIENTED_EDGE('',*,*,#1126,.F.);
#1419 = CYLINDRICAL_SURFACE('',#1420,1.475);
#1420 = AXIS2_PLACEMENT_3D('',#1421,#1422,#1423);
#1421 = CARTESIAN_POINT('',(-12.54608997162,-38.61289456158,0.));
#1422 = DIRECTION('',(0.,0.,-1.));
#1423 = DIRECTION('',(0.309016994375,0.951056516295,0.));
#1424 = ADVANCED_FACE('',(#1425),#1428,.F.);
#1425 = FACE_BOUND('',#1426,.F.);
#1426 = EDGE_LOOP('',(#1427));
#1427 = ORIENTED_EDGE('',*,*,#1411,.T.);
#1428 = PLANE('',#1429);
#1429 = AXIS2_PLACEMENT_3D('',#1430,#1431,#1432);
#1430 = CARTESIAN_POINT('',(-12.54608997162,-38.61289456158,15.));
#1431 = DIRECTION('',(0.,0.,1.));
#1432 = DIRECTION('',(0.309016994375,0.951056516295,0.));
#1433 = ADVANCED_FACE('',(#1434),#1453,.F.);
#1434 = FACE_BOUND('',#1435,.T.);
#1435 = EDGE_LOOP('',(#1436,#1444,#1451,#1452));
#1436 = ORIENTED_EDGE('',*,*,#1437,.T.);
#1437 = EDGE_CURVE('',#1138,#1438,#1440,.T.);
#1438 = VERTEX_POINT('',#1439);
#1439 = CARTESIAN_POINT('',(12.09028990492,37.210086200048,15.));
#1440 = LINE('',#1441,#1442);
#1441 = CARTESIAN_POINT('',(12.09028990492,37.210086200048,0.));
#1442 = VECTOR('',#1443,1.);
#1443 = DIRECTION('',(0.,0.,1.));
#1444 = ORIENTED_EDGE('',*,*,#1445,.T.);
#1445 = EDGE_CURVE('',#1438,#1438,#1446,.T.);
#1446 = CIRCLE('',#1447,1.475);
#1447 = AXIS2_PLACEMENT_3D('',#1448,#1449,#1450);
#1448 = CARTESIAN_POINT('',(12.546089971623,38.612894561583,15.));
#1449 = DIRECTION('',(0.,0.,1.));
#1450 = DIRECTION('',(-0.309016994375,-0.951056516295,0.));
#1451 = ORIENTED_EDGE('',*,*,#1437,.F.);
#1452 = ORIENTED_EDGE('',*,*,#1137,.F.);
#1453 = CYLINDRICAL_SURFACE('',#1454,1.475);
#1454 = AXIS2_PLACEMENT_3D('',#1455,#1456,#1457);
#1455 = CARTESIAN_POINT('',(12.546089971623,38.612894561583,0.));
#1456 = DIRECTION('',(0.,-0.,-1.));
#1457 = DIRECTION('',(-0.309016994375,-0.951056516295,0.));
#1458 = ADVANCED_FACE('',(#1459),#1462,.F.);
#1459 = FACE_BOUND('',#1460,.F.);
#1460 = EDGE_LOOP('',(#1461));
#1461 = ORIENTED_EDGE('',*,*,#1445,.T.);
#1462 = PLANE('',#1463);
#1463 = AXIS2_PLACEMENT_3D('',#1464,#1465,#1466);
#1464 = CARTESIAN_POINT('',(12.546089971623,38.612894561583,15.));
#1465 = DIRECTION('',(0.,0.,1.));
#1466 = DIRECTION('',(-0.309016994375,-0.951056516295,0.));
#1467 = ADVANCED_FACE('',(#1468),#1487,.F.);
#1468 = FACE_BOUND('',#1469,.T.);
#1469 = EDGE_LOOP('',(#1470,#1478,#1485,#1486));
#1470 = ORIENTED_EDGE('',*,*,#1471,.T.);
#1471 = EDGE_CURVE('',#1149,#1472,#1474,.T.);
#1472 = VERTEX_POINT('',#1473);
#1473 = CARTESIAN_POINT('',(-12.09028990492,37.210086200048,15.));
#1474 = LINE('',#1475,#1476);
#1475 = CARTESIAN_POINT('',(-12.09028990492,37.210086200048,0.));
#1476 = VECTOR('',#1477,1.);
#1477 = DIRECTION('',(0.,0.,1.));
#1478 = ORIENTED_EDGE('',*,*,#1479,.T.);
#1479 = EDGE_CURVE('',#1472,#1472,#1480,.T.);
#1480 = CIRCLE('',#1481,1.475);
#1481 = AXIS2_PLACEMENT_3D('',#1482,#1483,#1484);
#1482 = CARTESIAN_POINT('',(-12.54608997162,38.612894561583,15.));
#1483 = DIRECTION('',(-0.,0.,1.));
#1484 = DIRECTION('',(0.309016994375,-0.951056516295,0.));
#1485 = ORIENTED_EDGE('',*,*,#1471,.F.);
#1486 = ORIENTED_EDGE('',*,*,#1148,.F.);
#1487 = CYLINDRICAL_SURFACE('',#1488,1.475);
#1488 = AXIS2_PLACEMENT_3D('',#1489,#1490,#1491);
#1489 = CARTESIAN_POINT('',(-12.54608997162,38.612894561583,0.));
#1490 = DIRECTION('',(0.,0.,-1.));
#1491 = DIRECTION('',(0.309016994375,-0.951056516295,0.));
#1492 = ADVANCED_FACE('',(#1493),#1496,.F.);
#1493 = FACE_BOUND('',#1494,.F.);
#1494 = EDGE_LOOP('',(#1495));
#1495 = ORIENTED_EDGE('',*,*,#1479,.T.);
#1496 = PLANE('',#1497);
#1497 = AXIS2_PLACEMENT_3D('',#1498,#1499,#1500);
#1498 = CARTESIAN_POINT('',(-12.54608997162,38.612894561583,15.));
#1499 = DIRECTION('',(0.,0.,1.));
#1500 = DIRECTION('',(0.309016994375,-0.951056516295,0.));
#1501 = ( GEOMETRIC_REPRESENTATION_CONTEXT(3) 
GLOBAL_UNCERTAINTY_ASSIGNED_CONTEXT((#1505)) 
GLOBAL_UNIT_ASSIGNED_CONTEXT((#1502,#1503,#1504)) REPRESENTATION_CONTEXT
('Context #1','3D Context with UNIT and UNCERTAINTY') );
#1502 = ( LENGTH_UNIT() NAMED_UNIT(*) SI_UNIT(.MILLI.,.METRE.) );
#1503 = ( NAMED_UNIT(*) PLANE_ANGLE_UNIT() SI_UNIT($,.RADIAN.) );
#1504 = ( NAMED_UNIT(*) SI_UNIT($,.STERADIAN.) SOLID_ANGLE_UNIT() );
#1505 = UNCERTAINTY_MEASURE_WITH_UNIT(LENGTH_MEASURE(2.E-07),#1502,
  'distance_accuracy_value','confusion accuracy');
#1506 = PRODUCT_RELATED_PRODUCT_CATEGORY('part',$,(#7));
ENDSEC;
END-ISO-10303-21;
