ISO-10303-21;
HEADER;
FILE_DESCRIPTION(('FreeCAD Model'),'2;1');
FILE_NAME('Open CASCADE Shape Model','2026-05-26T02:31:33',('Author'),(
    ''),'Open CASCADE STEP processor 7.8','FreeCAD','Unknown');
FILE_SCHEMA(('AUTOMOTIVE_DESIGN { 1 0 10303 214 1 1 1 1 }'));
ENDSEC;
DATA;
#1 = APPLICATION_PROTOCOL_DEFINITION('international standard',
  'automotive_design',2000,#2);
#2 = APPLICATION_CONTEXT(
  'core data for automotive mechanical design processes');
#3 = SHAPE_DEFINITION_REPRESENTATION(#4,#10);
#4 = PRODUCT_DEFINITION_SHAPE('','',#5);
#5 = PRODUCT_DEFINITION('design','',#6,#9);
#6 = PRODUCT_DEFINITION_FORMATION('','',#7);
#7 = PRODUCT('pinDisk','pinDisk','',(#8));
#8 = PRODUCT_CONTEXT('',#2,'mechanical');
#9 = PRODUCT_DEFINITION_CONTEXT('part definition',#2,'design');
#10 = ADVANCED_BREP_SHAPE_REPRESENTATION('',(#11,#15),#2041);
#11 = AXIS2_PLACEMENT_3D('',#12,#13,#14);
#12 = CARTESIAN_POINT('',(0.,0.,0.));
#13 = DIRECTION('',(0.,0.,1.));
#14 = DIRECTION('',(1.,0.,-0.));
#15 = MANIFOLD_SOLID_BREP('',#16);
#16 = CLOSED_SHELL('',(#17,#199,#223,#248,#273,#298,#323,#348,#373,#398,
    #423,#448,#473,#498,#523,#548,#573,#598,#618,#638,#658,#678,#698,
    #718,#738,#758,#778,#798,#818,#838,#858,#878,#898,#923,#948,#973,
    #998,#1023,#1048,#1073,#1098,#1123,#1148,#1173,#1198,#1223,#1248,
    #1273,#1282,#1291,#1300,#1309,#1318,#1327,#1336,#1345,#1354,#1363,
    #1372,#1381,#1390,#1399,#1565,#1590,#1599,#1624,#1633,#1658,#1667,
    #1692,#1701,#1726,#1735,#1760,#1769,#1794,#1803,#1828,#1837,#1862,
    #1871,#1896,#1905,#1930,#1939,#1964,#1973,#1998,#2007,#2032));
#17 = ADVANCED_FACE('',(#18,#29,#40,#51,#62,#73,#84,#95,#106,#117,#128,
    #139,#150,#161,#172,#183),#194,.T.);
#18 = FACE_BOUND('',#19,.T.);
#19 = EDGE_LOOP('',(#20));
#20 = ORIENTED_EDGE('',*,*,#21,.T.);
#21 = EDGE_CURVE('',#22,#22,#24,.T.);
#22 = VERTEX_POINT('',#23);
#23 = CARTESIAN_POINT('',(47.5,0.,10.));
#24 = CIRCLE('',#25,47.5);
#25 = AXIS2_PLACEMENT_3D('',#26,#27,#28);
#26 = CARTESIAN_POINT('',(0.,0.,10.));
#27 = DIRECTION('',(0.,0.,1.));
#28 = DIRECTION('',(1.,0.,0.));
#29 = FACE_BOUND('',#30,.T.);
#30 = EDGE_LOOP('',(#31));
#31 = ORIENTED_EDGE('',*,*,#32,.T.);
#32 = EDGE_CURVE('',#33,#33,#35,.T.);
#33 = VERTEX_POINT('',#34);
#34 = CARTESIAN_POINT('',(-22.38328388672,-28.0677502206,10.));
#35 = CIRCLE('',#36,4.7);
#36 = AXIS2_PLACEMENT_3D('',#37,#38,#39);
#37 = CARTESIAN_POINT('',(-25.31368595546,-31.7423581882,10.));
#38 = DIRECTION('',(0.,0.,-1.));
#39 = DIRECTION('',(0.623489801859,0.781831482468,0.));
#40 = FACE_BOUND('',#41,.T.);
#41 = EDGE_LOOP('',(#42));
#42 = ORIENTED_EDGE('',*,*,#43,.T.);
#43 = EDGE_CURVE('',#44,#44,#46,.T.);
#44 = VERTEX_POINT('',#45);
#45 = CARTESIAN_POINT('',(-7.988501529032,-34.99991204732,10.));
#46 = CIRCLE('',#47,4.7);
#47 = AXIS2_PLACEMENT_3D('',#48,#49,#50);
#48 = CARTESIAN_POINT('',(-9.034349918626,-39.58207323458,10.));
#49 = DIRECTION('',(0.,0.,-1.));
#50 = DIRECTION('',(0.222520933956,0.974927912182,0.));
#51 = FACE_BOUND('',#52,.T.);
#52 = EDGE_LOOP('',(#53));
#53 = ORIENTED_EDGE('',*,*,#54,.T.);
#54 = EDGE_CURVE('',#55,#55,#57,.T.);
#55 = VERTEX_POINT('',#56);
#56 = CARTESIAN_POINT('',(-32.34478235769,-15.57642623432,10.));
#57 = CIRCLE('',#58,4.7);
#58 = AXIS2_PLACEMENT_3D('',#59,#60,#61);
#59 = CARTESIAN_POINT('',(-36.57933603683,-17.61567980817,10.));
#60 = DIRECTION('',(0.,0.,-1.));
#61 = DIRECTION('',(0.900968867902,0.433883739118,0.));
#62 = FACE_BOUND('',#63,.T.);
#63 = EDGE_LOOP('',(#64));
#64 = ORIENTED_EDGE('',*,*,#65,.T.);
#65 = EDGE_CURVE('',#66,#66,#68,.T.);
#66 = VERTEX_POINT('',#67);
#67 = CARTESIAN_POINT('',(7.988501529032,-34.99991204732,10.));
#68 = CIRCLE('',#69,4.7);
#69 = AXIS2_PLACEMENT_3D('',#70,#71,#72);
#70 = CARTESIAN_POINT('',(9.034349918626,-39.58207323458,10.));
#71 = DIRECTION('',(0.,0.,-1.));
#72 = DIRECTION('',(-0.222520933956,0.974927912182,0.));
#73 = FACE_BOUND('',#74,.T.);
#74 = EDGE_LOOP('',(#75));
#75 = ORIENTED_EDGE('',*,*,#76,.T.);
#76 = EDGE_CURVE('',#77,#77,#79,.T.);
#77 = VERTEX_POINT('',#78);
#78 = CARTESIAN_POINT('',(22.383283886729,-28.0677502206,10.));
#79 = CIRCLE('',#80,4.7);
#80 = AXIS2_PLACEMENT_3D('',#81,#82,#83);
#81 = CARTESIAN_POINT('',(25.313685955465,-31.7423581882,10.));
#82 = DIRECTION('',(0.,0.,-1.));
#83 = DIRECTION('',(-0.623489801859,0.781831482468,0.));
#84 = FACE_BOUND('',#85,.T.);
#85 = EDGE_LOOP('',(#86));
#86 = ORIENTED_EDGE('',*,*,#87,.T.);
#87 = EDGE_CURVE('',#88,#88,#90,.T.);
#88 = VERTEX_POINT('',#89);
#89 = CARTESIAN_POINT('',(32.344782357697,-15.57642623432,10.));
#90 = CIRCLE('',#91,4.7);
#91 = AXIS2_PLACEMENT_3D('',#92,#93,#94);
#92 = CARTESIAN_POINT('',(36.579336036838,-17.61567980817,10.));
#93 = DIRECTION('',(0.,0.,-1.));
#94 = DIRECTION('',(-0.900968867902,0.433883739118,0.));
#95 = FACE_BOUND('',#96,.T.);
#96 = EDGE_LOOP('',(#97));
#97 = ORIENTED_EDGE('',*,*,#98,.T.);
#98 = EDGE_CURVE('',#99,#99,#101,.T.);
#99 = VERTEX_POINT('',#100);
#100 = CARTESIAN_POINT('',(35.9,-4.396482008939E-15,10.));
#101 = CIRCLE('',#102,4.7);
#102 = AXIS2_PLACEMENT_3D('',#103,#104,#105);
#103 = CARTESIAN_POINT('',(40.6,-4.972066004538E-15,10.));
#104 = DIRECTION('',(0.,0.,-1.));
#105 = DIRECTION('',(-1.,1.224646799147E-16,0.));
#106 = FACE_BOUND('',#107,.T.);
#107 = EDGE_LOOP('',(#108));
#108 = ORIENTED_EDGE('',*,*,#109,.T.);
#109 = EDGE_CURVE('',#110,#110,#112,.T.);
#110 = VERTEX_POINT('',#111);
#111 = CARTESIAN_POINT('',(-35.9,0.,10.));
#112 = CIRCLE('',#113,4.7);
#113 = AXIS2_PLACEMENT_3D('',#114,#115,#116);
#114 = CARTESIAN_POINT('',(-40.6,0.,10.));
#115 = DIRECTION('',(0.,0.,-1.));
#116 = DIRECTION('',(1.,0.,0.));
#117 = FACE_BOUND('',#118,.T.);
#118 = EDGE_LOOP('',(#119));
#119 = ORIENTED_EDGE('',*,*,#120,.T.);
#120 = EDGE_CURVE('',#121,#121,#123,.T.);
#121 = VERTEX_POINT('',#122);
#122 = CARTESIAN_POINT('',(-32.34478235769,15.57642623432,10.));
#123 = CIRCLE('',#124,4.7);
#124 = AXIS2_PLACEMENT_3D('',#125,#126,#127);
#125 = CARTESIAN_POINT('',(-36.57933603683,17.615679808173,10.));
#126 = DIRECTION('',(0.,-0.,-1.));
#127 = DIRECTION('',(0.900968867902,-0.433883739118,0.));
#128 = FACE_BOUND('',#129,.T.);
#129 = EDGE_LOOP('',(#130));
#130 = ORIENTED_EDGE('',*,*,#131,.T.);
#131 = EDGE_CURVE('',#132,#132,#134,.T.);
#132 = VERTEX_POINT('',#133);
#133 = CARTESIAN_POINT('',(-22.38328388672,28.067750220602,10.));
#134 = CIRCLE('',#135,4.7);
#135 = AXIS2_PLACEMENT_3D('',#136,#137,#138);
#136 = CARTESIAN_POINT('',(-25.31368595546,31.742358188202,10.));
#137 = DIRECTION('',(0.,-0.,-1.));
#138 = DIRECTION('',(0.623489801859,-0.781831482468,0.));
#139 = FACE_BOUND('',#140,.T.);
#140 = EDGE_LOOP('',(#141));
#141 = ORIENTED_EDGE('',*,*,#142,.T.);
#142 = EDGE_CURVE('',#143,#143,#145,.T.);
#143 = VERTEX_POINT('',#144);
#144 = CARTESIAN_POINT('',(-7.988501529032,34.999912047327,10.));
#145 = CIRCLE('',#146,4.7);
#146 = AXIS2_PLACEMENT_3D('',#147,#148,#149);
#147 = CARTESIAN_POINT('',(-9.034349918626,39.582073234582,10.));
#148 = DIRECTION('',(0.,-0.,-1.));
#149 = DIRECTION('',(0.222520933956,-0.974927912182,0.));
#150 = FACE_BOUND('',#151,.T.);
#151 = EDGE_LOOP('',(#152));
#152 = ORIENTED_EDGE('',*,*,#153,.F.);
#153 = EDGE_CURVE('',#154,#154,#156,.T.);
#154 = VERTEX_POINT('',#155);
#155 = CARTESIAN_POINT('',(34.208915126443,0.,10.));
#156 = CIRCLE('',#157,34.208915126443);
#157 = AXIS2_PLACEMENT_3D('',#158,#159,#160);
#158 = CARTESIAN_POINT('',(0.,0.,10.));
#159 = DIRECTION('',(0.,0.,1.));
#160 = DIRECTION('',(1.,0.,0.));
#161 = FACE_BOUND('',#162,.T.);
#162 = EDGE_LOOP('',(#163));
#163 = ORIENTED_EDGE('',*,*,#164,.T.);
#164 = EDGE_CURVE('',#165,#165,#167,.T.);
#165 = VERTEX_POINT('',#166);
#166 = CARTESIAN_POINT('',(32.344782357697,15.57642623432,10.));
#167 = CIRCLE('',#168,4.7);
#168 = AXIS2_PLACEMENT_3D('',#169,#170,#171);
#169 = CARTESIAN_POINT('',(36.579336036838,17.615679808173,10.));
#170 = DIRECTION('',(0.,0.,-1.));
#171 = DIRECTION('',(-0.900968867902,-0.433883739118,-0.));
#172 = FACE_BOUND('',#173,.T.);
#173 = EDGE_LOOP('',(#174));
#174 = ORIENTED_EDGE('',*,*,#175,.T.);
#175 = EDGE_CURVE('',#176,#176,#178,.T.);
#176 = VERTEX_POINT('',#177);
#177 = CARTESIAN_POINT('',(7.988501529032,34.999912047327,10.));
#178 = CIRCLE('',#179,4.7);
#179 = AXIS2_PLACEMENT_3D('',#180,#181,#182);
#180 = CARTESIAN_POINT('',(9.034349918626,39.582073234582,10.));
#181 = DIRECTION('',(0.,0.,-1.));
#182 = DIRECTION('',(-0.222520933956,-0.974927912182,-0.));
#183 = FACE_BOUND('',#184,.T.);
#184 = EDGE_LOOP('',(#185));
#185 = ORIENTED_EDGE('',*,*,#186,.T.);
#186 = EDGE_CURVE('',#187,#187,#189,.T.);
#187 = VERTEX_POINT('',#188);
#188 = CARTESIAN_POINT('',(22.383283886729,28.067750220602,10.));
#189 = CIRCLE('',#190,4.7);
#190 = AXIS2_PLACEMENT_3D('',#191,#192,#193);
#191 = CARTESIAN_POINT('',(25.313685955465,31.742358188202,10.));
#192 = DIRECTION('',(0.,0.,-1.));
#193 = DIRECTION('',(-0.623489801859,-0.781831482468,-0.));
#194 = PLANE('',#195);
#195 = AXIS2_PLACEMENT_3D('',#196,#197,#198);
#196 = CARTESIAN_POINT('',(-2.405905655199E-15,2.00257539828E-15,10.));
#197 = DIRECTION('',(0.,0.,1.));
#198 = DIRECTION('',(1.,0.,0.));
#199 = ADVANCED_FACE('',(#200),#218,.T.);
#200 = FACE_BOUND('',#201,.F.);
#201 = EDGE_LOOP('',(#202,#211,#216,#217));
#202 = ORIENTED_EDGE('',*,*,#203,.F.);
#203 = EDGE_CURVE('',#204,#204,#206,.T.);
#204 = VERTEX_POINT('',#205);
#205 = CARTESIAN_POINT('',(47.5,0.,0.));
#206 = CIRCLE('',#207,47.5);
#207 = AXIS2_PLACEMENT_3D('',#208,#209,#210);
#208 = CARTESIAN_POINT('',(0.,0.,0.));
#209 = DIRECTION('',(0.,0.,1.));
#210 = DIRECTION('',(1.,0.,0.));
#211 = ORIENTED_EDGE('',*,*,#212,.F.);
#212 = EDGE_CURVE('',#22,#204,#213,.T.);
#213 = B_SPLINE_CURVE_WITH_KNOTS('',1,(#214,#215),.UNSPECIFIED.,.F.,.F.,
  (2,2),(-10.,0.),.PIECEWISE_BEZIER_KNOTS.);
#214 = CARTESIAN_POINT('',(47.5,-1.16341445919E-14,10.));
#215 = CARTESIAN_POINT('',(47.5,-1.16341445919E-14,0.));
#216 = ORIENTED_EDGE('',*,*,#21,.T.);
#217 = ORIENTED_EDGE('',*,*,#212,.T.);
#218 = CYLINDRICAL_SURFACE('',#219,47.5);
#219 = AXIS2_PLACEMENT_3D('',#220,#221,#222);
#220 = CARTESIAN_POINT('',(0.,0.,0.));
#221 = DIRECTION('',(-0.,-0.,-1.));
#222 = DIRECTION('',(1.,0.,0.));
#223 = ADVANCED_FACE('',(#224),#243,.T.);
#224 = FACE_BOUND('',#225,.F.);
#225 = EDGE_LOOP('',(#226,#227,#235,#242));
#226 = ORIENTED_EDGE('',*,*,#32,.T.);
#227 = ORIENTED_EDGE('',*,*,#228,.T.);
#228 = EDGE_CURVE('',#33,#229,#231,.T.);
#229 = VERTEX_POINT('',#230);
#230 = CARTESIAN_POINT('',(-22.38328388672,-28.0677502206,25.));
#231 = LINE('',#232,#233);
#232 = CARTESIAN_POINT('',(-22.38328388672,-28.0677502206,0.));
#233 = VECTOR('',#234,1.);
#234 = DIRECTION('',(0.,0.,1.));
#235 = ORIENTED_EDGE('',*,*,#236,.T.);
#236 = EDGE_CURVE('',#229,#229,#237,.T.);
#237 = CIRCLE('',#238,4.7);
#238 = AXIS2_PLACEMENT_3D('',#239,#240,#241);
#239 = CARTESIAN_POINT('',(-25.31368595546,-31.7423581882,25.));
#240 = DIRECTION('',(0.,-0.,1.));
#241 = DIRECTION('',(0.623489801859,0.781831482468,0.));
#242 = ORIENTED_EDGE('',*,*,#228,.F.);
#243 = CYLINDRICAL_SURFACE('',#244,4.7);
#244 = AXIS2_PLACEMENT_3D('',#245,#246,#247);
#245 = CARTESIAN_POINT('',(-25.31368595546,-31.7423581882,0.));
#246 = DIRECTION('',(0.,-0.,-1.));
#247 = DIRECTION('',(0.623489801859,0.781831482468,0.));
#248 = ADVANCED_FACE('',(#249),#268,.T.);
#249 = FACE_BOUND('',#250,.F.);
#250 = EDGE_LOOP('',(#251,#252,#260,#267));
#251 = ORIENTED_EDGE('',*,*,#43,.T.);
#252 = ORIENTED_EDGE('',*,*,#253,.T.);
#253 = EDGE_CURVE('',#44,#254,#256,.T.);
#254 = VERTEX_POINT('',#255);
#255 = CARTESIAN_POINT('',(-7.988501529032,-34.99991204732,25.));
#256 = LINE('',#257,#258);
#257 = CARTESIAN_POINT('',(-7.988501529032,-34.99991204732,0.));
#258 = VECTOR('',#259,1.);
#259 = DIRECTION('',(0.,0.,1.));
#260 = ORIENTED_EDGE('',*,*,#261,.T.);
#261 = EDGE_CURVE('',#254,#254,#262,.T.);
#262 = CIRCLE('',#263,4.7);
#263 = AXIS2_PLACEMENT_3D('',#264,#265,#266);
#264 = CARTESIAN_POINT('',(-9.034349918626,-39.58207323458,25.));
#265 = DIRECTION('',(0.,-0.,1.));
#266 = DIRECTION('',(0.222520933956,0.974927912182,0.));
#267 = ORIENTED_EDGE('',*,*,#253,.F.);
#268 = CYLINDRICAL_SURFACE('',#269,4.7);
#269 = AXIS2_PLACEMENT_3D('',#270,#271,#272);
#270 = CARTESIAN_POINT('',(-9.034349918626,-39.58207323458,0.));
#271 = DIRECTION('',(0.,-0.,-1.));
#272 = DIRECTION('',(0.222520933956,0.974927912182,0.));
#273 = ADVANCED_FACE('',(#274),#293,.T.);
#274 = FACE_BOUND('',#275,.F.);
#275 = EDGE_LOOP('',(#276,#277,#285,#292));
#276 = ORIENTED_EDGE('',*,*,#54,.T.);
#277 = ORIENTED_EDGE('',*,*,#278,.T.);
#278 = EDGE_CURVE('',#55,#279,#281,.T.);
#279 = VERTEX_POINT('',#280);
#280 = CARTESIAN_POINT('',(-32.34478235769,-15.57642623432,25.));
#281 = LINE('',#282,#283);
#282 = CARTESIAN_POINT('',(-32.34478235769,-15.57642623432,0.));
#283 = VECTOR('',#284,1.);
#284 = DIRECTION('',(0.,0.,1.));
#285 = ORIENTED_EDGE('',*,*,#286,.T.);
#286 = EDGE_CURVE('',#279,#279,#287,.T.);
#287 = CIRCLE('',#288,4.7);
#288 = AXIS2_PLACEMENT_3D('',#289,#290,#291);
#289 = CARTESIAN_POINT('',(-36.57933603683,-17.61567980817,25.));
#290 = DIRECTION('',(0.,-0.,1.));
#291 = DIRECTION('',(0.900968867902,0.433883739118,0.));
#292 = ORIENTED_EDGE('',*,*,#278,.F.);
#293 = CYLINDRICAL_SURFACE('',#294,4.7);
#294 = AXIS2_PLACEMENT_3D('',#295,#296,#297);
#295 = CARTESIAN_POINT('',(-36.57933603683,-17.61567980817,0.));
#296 = DIRECTION('',(0.,0.,-1.));
#297 = DIRECTION('',(0.900968867902,0.433883739118,0.));
#298 = ADVANCED_FACE('',(#299),#318,.T.);
#299 = FACE_BOUND('',#300,.F.);
#300 = EDGE_LOOP('',(#301,#302,#310,#317));
#301 = ORIENTED_EDGE('',*,*,#65,.T.);
#302 = ORIENTED_EDGE('',*,*,#303,.T.);
#303 = EDGE_CURVE('',#66,#304,#306,.T.);
#304 = VERTEX_POINT('',#305);
#305 = CARTESIAN_POINT('',(7.988501529032,-34.99991204732,25.));
#306 = LINE('',#307,#308);
#307 = CARTESIAN_POINT('',(7.988501529032,-34.99991204732,0.));
#308 = VECTOR('',#309,1.);
#309 = DIRECTION('',(0.,0.,1.));
#310 = ORIENTED_EDGE('',*,*,#311,.T.);
#311 = EDGE_CURVE('',#304,#304,#312,.T.);
#312 = CIRCLE('',#313,4.7);
#313 = AXIS2_PLACEMENT_3D('',#314,#315,#316);
#314 = CARTESIAN_POINT('',(9.034349918626,-39.58207323458,25.));
#315 = DIRECTION('',(0.,0.,1.));
#316 = DIRECTION('',(-0.222520933956,0.974927912182,0.));
#317 = ORIENTED_EDGE('',*,*,#303,.F.);
#318 = CYLINDRICAL_SURFACE('',#319,4.7);
#319 = AXIS2_PLACEMENT_3D('',#320,#321,#322);
#320 = CARTESIAN_POINT('',(9.034349918626,-39.58207323458,0.));
#321 = DIRECTION('',(-0.,0.,-1.));
#322 = DIRECTION('',(-0.222520933956,0.974927912182,0.));
#323 = ADVANCED_FACE('',(#324),#343,.T.);
#324 = FACE_BOUND('',#325,.F.);
#325 = EDGE_LOOP('',(#326,#327,#335,#342));
#326 = ORIENTED_EDGE('',*,*,#76,.T.);
#327 = ORIENTED_EDGE('',*,*,#328,.T.);
#328 = EDGE_CURVE('',#77,#329,#331,.T.);
#329 = VERTEX_POINT('',#330);
#330 = CARTESIAN_POINT('',(22.383283886729,-28.0677502206,25.));
#331 = LINE('',#332,#333);
#332 = CARTESIAN_POINT('',(22.383283886729,-28.0677502206,0.));
#333 = VECTOR('',#334,1.);
#334 = DIRECTION('',(0.,0.,1.));
#335 = ORIENTED_EDGE('',*,*,#336,.T.);
#336 = EDGE_CURVE('',#329,#329,#337,.T.);
#337 = CIRCLE('',#338,4.7);
#338 = AXIS2_PLACEMENT_3D('',#339,#340,#341);
#339 = CARTESIAN_POINT('',(25.313685955465,-31.7423581882,25.));
#340 = DIRECTION('',(0.,0.,1.));
#341 = DIRECTION('',(-0.623489801859,0.781831482468,0.));
#342 = ORIENTED_EDGE('',*,*,#328,.F.);
#343 = CYLINDRICAL_SURFACE('',#344,4.7);
#344 = AXIS2_PLACEMENT_3D('',#345,#346,#347);
#345 = CARTESIAN_POINT('',(25.313685955465,-31.7423581882,0.));
#346 = DIRECTION('',(-0.,0.,-1.));
#347 = DIRECTION('',(-0.623489801859,0.781831482468,0.));
#348 = ADVANCED_FACE('',(#349),#368,.T.);
#349 = FACE_BOUND('',#350,.F.);
#350 = EDGE_LOOP('',(#351,#352,#360,#367));
#351 = ORIENTED_EDGE('',*,*,#87,.T.);
#352 = ORIENTED_EDGE('',*,*,#353,.T.);
#353 = EDGE_CURVE('',#88,#354,#356,.T.);
#354 = VERTEX_POINT('',#355);
#355 = CARTESIAN_POINT('',(32.344782357697,-15.57642623432,25.));
#356 = LINE('',#357,#358);
#357 = CARTESIAN_POINT('',(32.344782357697,-15.57642623432,0.));
#358 = VECTOR('',#359,1.);
#359 = DIRECTION('',(0.,0.,1.));
#360 = ORIENTED_EDGE('',*,*,#361,.T.);
#361 = EDGE_CURVE('',#354,#354,#362,.T.);
#362 = CIRCLE('',#363,4.7);
#363 = AXIS2_PLACEMENT_3D('',#364,#365,#366);
#364 = CARTESIAN_POINT('',(36.579336036838,-17.61567980817,25.));
#365 = DIRECTION('',(0.,0.,1.));
#366 = DIRECTION('',(-0.900968867902,0.433883739118,0.));
#367 = ORIENTED_EDGE('',*,*,#353,.F.);
#368 = CYLINDRICAL_SURFACE('',#369,4.7);
#369 = AXIS2_PLACEMENT_3D('',#370,#371,#372);
#370 = CARTESIAN_POINT('',(36.579336036838,-17.61567980817,0.));
#371 = DIRECTION('',(0.,0.,-1.));
#372 = DIRECTION('',(-0.900968867902,0.433883739118,0.));
#373 = ADVANCED_FACE('',(#374),#393,.T.);
#374 = FACE_BOUND('',#375,.F.);
#375 = EDGE_LOOP('',(#376,#377,#385,#392));
#376 = ORIENTED_EDGE('',*,*,#98,.T.);
#377 = ORIENTED_EDGE('',*,*,#378,.T.);
#378 = EDGE_CURVE('',#99,#379,#381,.T.);
#379 = VERTEX_POINT('',#380);
#380 = CARTESIAN_POINT('',(35.9,-4.396482008939E-15,25.));
#381 = LINE('',#382,#383);
#382 = CARTESIAN_POINT('',(35.9,-4.396482008939E-15,0.));
#383 = VECTOR('',#384,1.);
#384 = DIRECTION('',(0.,0.,1.));
#385 = ORIENTED_EDGE('',*,*,#386,.T.);
#386 = EDGE_CURVE('',#379,#379,#387,.T.);
#387 = CIRCLE('',#388,4.7);
#388 = AXIS2_PLACEMENT_3D('',#389,#390,#391);
#389 = CARTESIAN_POINT('',(40.6,-4.972066004538E-15,25.));
#390 = DIRECTION('',(0.,0.,1.));
#391 = DIRECTION('',(-1.,1.224646799147E-16,0.));
#392 = ORIENTED_EDGE('',*,*,#378,.F.);
#393 = CYLINDRICAL_SURFACE('',#394,4.7);
#394 = AXIS2_PLACEMENT_3D('',#395,#396,#397);
#395 = CARTESIAN_POINT('',(40.6,-4.972066004538E-15,0.));
#396 = DIRECTION('',(0.,0.,-1.));
#397 = DIRECTION('',(-1.,1.224646799147E-16,0.));
#398 = ADVANCED_FACE('',(#399),#418,.T.);
#399 = FACE_BOUND('',#400,.F.);
#400 = EDGE_LOOP('',(#401,#402,#410,#417));
#401 = ORIENTED_EDGE('',*,*,#109,.T.);
#402 = ORIENTED_EDGE('',*,*,#403,.T.);
#403 = EDGE_CURVE('',#110,#404,#406,.T.);
#404 = VERTEX_POINT('',#405);
#405 = CARTESIAN_POINT('',(-35.9,0.,25.));
#406 = LINE('',#407,#408);
#407 = CARTESIAN_POINT('',(-35.9,0.,0.));
#408 = VECTOR('',#409,1.);
#409 = DIRECTION('',(0.,0.,1.));
#410 = ORIENTED_EDGE('',*,*,#411,.T.);
#411 = EDGE_CURVE('',#404,#404,#412,.T.);
#412 = CIRCLE('',#413,4.7);
#413 = AXIS2_PLACEMENT_3D('',#414,#415,#416);
#414 = CARTESIAN_POINT('',(-40.6,0.,25.));
#415 = DIRECTION('',(0.,0.,1.));
#416 = DIRECTION('',(1.,0.,0.));
#417 = ORIENTED_EDGE('',*,*,#403,.F.);
#418 = CYLINDRICAL_SURFACE('',#419,4.7);
#419 = AXIS2_PLACEMENT_3D('',#420,#421,#422);
#420 = CARTESIAN_POINT('',(-40.6,0.,0.));
#421 = DIRECTION('',(-0.,-0.,-1.));
#422 = DIRECTION('',(1.,0.,0.));
#423 = ADVANCED_FACE('',(#424),#443,.T.);
#424 = FACE_BOUND('',#425,.F.);
#425 = EDGE_LOOP('',(#426,#427,#435,#442));
#426 = ORIENTED_EDGE('',*,*,#120,.T.);
#427 = ORIENTED_EDGE('',*,*,#428,.T.);
#428 = EDGE_CURVE('',#121,#429,#431,.T.);
#429 = VERTEX_POINT('',#430);
#430 = CARTESIAN_POINT('',(-32.34478235769,15.57642623432,25.));
#431 = LINE('',#432,#433);
#432 = CARTESIAN_POINT('',(-32.34478235769,15.57642623432,0.));
#433 = VECTOR('',#434,1.);
#434 = DIRECTION('',(0.,0.,1.));
#435 = ORIENTED_EDGE('',*,*,#436,.T.);
#436 = EDGE_CURVE('',#429,#429,#437,.T.);
#437 = CIRCLE('',#438,4.7);
#438 = AXIS2_PLACEMENT_3D('',#439,#440,#441);
#439 = CARTESIAN_POINT('',(-36.57933603683,17.615679808173,25.));
#440 = DIRECTION('',(-0.,0.,1.));
#441 = DIRECTION('',(0.900968867902,-0.433883739118,0.));
#442 = ORIENTED_EDGE('',*,*,#428,.F.);
#443 = CYLINDRICAL_SURFACE('',#444,4.7);
#444 = AXIS2_PLACEMENT_3D('',#445,#446,#447);
#445 = CARTESIAN_POINT('',(-36.57933603683,17.615679808173,0.));
#446 = DIRECTION('',(0.,0.,-1.));
#447 = DIRECTION('',(0.900968867902,-0.433883739118,0.));
#448 = ADVANCED_FACE('',(#449),#468,.T.);
#449 = FACE_BOUND('',#450,.F.);
#450 = EDGE_LOOP('',(#451,#452,#460,#467));
#451 = ORIENTED_EDGE('',*,*,#131,.T.);
#452 = ORIENTED_EDGE('',*,*,#453,.T.);
#453 = EDGE_CURVE('',#132,#454,#456,.T.);
#454 = VERTEX_POINT('',#455);
#455 = CARTESIAN_POINT('',(-22.38328388672,28.067750220602,25.));
#456 = LINE('',#457,#458);
#457 = CARTESIAN_POINT('',(-22.38328388672,28.067750220602,0.));
#458 = VECTOR('',#459,1.);
#459 = DIRECTION('',(0.,0.,1.));
#460 = ORIENTED_EDGE('',*,*,#461,.T.);
#461 = EDGE_CURVE('',#454,#454,#462,.T.);
#462 = CIRCLE('',#463,4.7);
#463 = AXIS2_PLACEMENT_3D('',#464,#465,#466);
#464 = CARTESIAN_POINT('',(-25.31368595546,31.742358188202,25.));
#465 = DIRECTION('',(-0.,0.,1.));
#466 = DIRECTION('',(0.623489801859,-0.781831482468,0.));
#467 = ORIENTED_EDGE('',*,*,#453,.F.);
#468 = CYLINDRICAL_SURFACE('',#469,4.7);
#469 = AXIS2_PLACEMENT_3D('',#470,#471,#472);
#470 = CARTESIAN_POINT('',(-25.31368595546,31.742358188202,0.));
#471 = DIRECTION('',(0.,0.,-1.));
#472 = DIRECTION('',(0.623489801859,-0.781831482468,0.));
#473 = ADVANCED_FACE('',(#474),#493,.T.);
#474 = FACE_BOUND('',#475,.F.);
#475 = EDGE_LOOP('',(#476,#477,#485,#492));
#476 = ORIENTED_EDGE('',*,*,#142,.T.);
#477 = ORIENTED_EDGE('',*,*,#478,.T.);
#478 = EDGE_CURVE('',#143,#479,#481,.T.);
#479 = VERTEX_POINT('',#480);
#480 = CARTESIAN_POINT('',(-7.988501529032,34.999912047327,25.));
#481 = LINE('',#482,#483);
#482 = CARTESIAN_POINT('',(-7.988501529032,34.999912047327,0.));
#483 = VECTOR('',#484,1.);
#484 = DIRECTION('',(0.,0.,1.));
#485 = ORIENTED_EDGE('',*,*,#486,.T.);
#486 = EDGE_CURVE('',#479,#479,#487,.T.);
#487 = CIRCLE('',#488,4.7);
#488 = AXIS2_PLACEMENT_3D('',#489,#490,#491);
#489 = CARTESIAN_POINT('',(-9.034349918626,39.582073234582,25.));
#490 = DIRECTION('',(-0.,0.,1.));
#491 = DIRECTION('',(0.222520933956,-0.974927912182,0.));
#492 = ORIENTED_EDGE('',*,*,#478,.F.);
#493 = CYLINDRICAL_SURFACE('',#494,4.7);
#494 = AXIS2_PLACEMENT_3D('',#495,#496,#497);
#495 = CARTESIAN_POINT('',(-9.034349918626,39.582073234582,0.));
#496 = DIRECTION('',(0.,0.,-1.));
#497 = DIRECTION('',(0.222520933956,-0.974927912182,0.));
#498 = ADVANCED_FACE('',(#499),#518,.F.);
#499 = FACE_BOUND('',#500,.T.);
#500 = EDGE_LOOP('',(#501,#510,#516,#517));
#501 = ORIENTED_EDGE('',*,*,#502,.T.);
#502 = EDGE_CURVE('',#503,#503,#505,.T.);
#503 = VERTEX_POINT('',#504);
#504 = CARTESIAN_POINT('',(34.208915126443,0.,5.));
#505 = CIRCLE('',#506,34.208915126443);
#506 = AXIS2_PLACEMENT_3D('',#507,#508,#509);
#507 = CARTESIAN_POINT('',(0.,0.,5.));
#508 = DIRECTION('',(0.,0.,-1.));
#509 = DIRECTION('',(1.,0.,0.));
#510 = ORIENTED_EDGE('',*,*,#511,.T.);
#511 = EDGE_CURVE('',#503,#154,#512,.T.);
#512 = LINE('',#513,#514);
#513 = CARTESIAN_POINT('',(34.208915126443,0.,0.));
#514 = VECTOR('',#515,1.);
#515 = DIRECTION('',(0.,0.,1.));
#516 = ORIENTED_EDGE('',*,*,#153,.T.);
#517 = ORIENTED_EDGE('',*,*,#511,.F.);
#518 = CYLINDRICAL_SURFACE('',#519,34.208915126443);
#519 = AXIS2_PLACEMENT_3D('',#520,#521,#522);
#520 = CARTESIAN_POINT('',(0.,0.,0.));
#521 = DIRECTION('',(-0.,-0.,-1.));
#522 = DIRECTION('',(1.,0.,0.));
#523 = ADVANCED_FACE('',(#524),#543,.T.);
#524 = FACE_BOUND('',#525,.F.);
#525 = EDGE_LOOP('',(#526,#527,#535,#542));
#526 = ORIENTED_EDGE('',*,*,#164,.T.);
#527 = ORIENTED_EDGE('',*,*,#528,.T.);
#528 = EDGE_CURVE('',#165,#529,#531,.T.);
#529 = VERTEX_POINT('',#530);
#530 = CARTESIAN_POINT('',(32.344782357697,15.57642623432,25.));
#531 = LINE('',#532,#533);
#532 = CARTESIAN_POINT('',(32.344782357697,15.57642623432,0.));
#533 = VECTOR('',#534,1.);
#534 = DIRECTION('',(0.,0.,1.));
#535 = ORIENTED_EDGE('',*,*,#536,.T.);
#536 = EDGE_CURVE('',#529,#529,#537,.T.);
#537 = CIRCLE('',#538,4.7);
#538 = AXIS2_PLACEMENT_3D('',#539,#540,#541);
#539 = CARTESIAN_POINT('',(36.579336036838,17.615679808173,25.));
#540 = DIRECTION('',(0.,0.,1.));
#541 = DIRECTION('',(-0.900968867902,-0.433883739118,0.));
#542 = ORIENTED_EDGE('',*,*,#528,.F.);
#543 = CYLINDRICAL_SURFACE('',#544,4.7);
#544 = AXIS2_PLACEMENT_3D('',#545,#546,#547);
#545 = CARTESIAN_POINT('',(36.579336036838,17.615679808173,0.));
#546 = DIRECTION('',(0.,0.,-1.));
#547 = DIRECTION('',(-0.900968867902,-0.433883739118,0.));
#548 = ADVANCED_FACE('',(#549),#568,.T.);
#549 = FACE_BOUND('',#550,.F.);
#550 = EDGE_LOOP('',(#551,#552,#560,#567));
#551 = ORIENTED_EDGE('',*,*,#175,.T.);
#552 = ORIENTED_EDGE('',*,*,#553,.T.);
#553 = EDGE_CURVE('',#176,#554,#556,.T.);
#554 = VERTEX_POINT('',#555);
#555 = CARTESIAN_POINT('',(7.988501529032,34.999912047327,25.));
#556 = LINE('',#557,#558);
#557 = CARTESIAN_POINT('',(7.988501529032,34.999912047327,0.));
#558 = VECTOR('',#559,1.);
#559 = DIRECTION('',(0.,0.,1.));
#560 = ORIENTED_EDGE('',*,*,#561,.T.);
#561 = EDGE_CURVE('',#554,#554,#562,.T.);
#562 = CIRCLE('',#563,4.7);
#563 = AXIS2_PLACEMENT_3D('',#564,#565,#566);
#564 = CARTESIAN_POINT('',(9.034349918626,39.582073234582,25.));
#565 = DIRECTION('',(0.,0.,1.));
#566 = DIRECTION('',(-0.222520933956,-0.974927912182,0.));
#567 = ORIENTED_EDGE('',*,*,#553,.F.);
#568 = CYLINDRICAL_SURFACE('',#569,4.7);
#569 = AXIS2_PLACEMENT_3D('',#570,#571,#572);
#570 = CARTESIAN_POINT('',(9.034349918626,39.582073234582,0.));
#571 = DIRECTION('',(0.,0.,-1.));
#572 = DIRECTION('',(-0.222520933956,-0.974927912182,0.));
#573 = ADVANCED_FACE('',(#574),#593,.T.);
#574 = FACE_BOUND('',#575,.F.);
#575 = EDGE_LOOP('',(#576,#577,#585,#592));
#576 = ORIENTED_EDGE('',*,*,#186,.T.);
#577 = ORIENTED_EDGE('',*,*,#578,.T.);
#578 = EDGE_CURVE('',#187,#579,#581,.T.);
#579 = VERTEX_POINT('',#580);
#580 = CARTESIAN_POINT('',(22.383283886729,28.067750220602,25.));
#581 = LINE('',#582,#583);
#582 = CARTESIAN_POINT('',(22.383283886729,28.067750220602,0.));
#583 = VECTOR('',#584,1.);
#584 = DIRECTION('',(0.,0.,1.));
#585 = ORIENTED_EDGE('',*,*,#586,.T.);
#586 = EDGE_CURVE('',#579,#579,#587,.T.);
#587 = CIRCLE('',#588,4.7);
#588 = AXIS2_PLACEMENT_3D('',#589,#590,#591);
#589 = CARTESIAN_POINT('',(25.313685955465,31.742358188202,25.));
#590 = DIRECTION('',(0.,0.,1.));
#591 = DIRECTION('',(-0.623489801859,-0.781831482468,0.));
#592 = ORIENTED_EDGE('',*,*,#578,.F.);
#593 = CYLINDRICAL_SURFACE('',#594,4.7);
#594 = AXIS2_PLACEMENT_3D('',#595,#596,#597);
#595 = CARTESIAN_POINT('',(25.313685955465,31.742358188202,0.));
#596 = DIRECTION('',(0.,0.,-1.));
#597 = DIRECTION('',(-0.623489801859,-0.781831482468,0.));
#598 = ADVANCED_FACE('',(#599,#602),#613,.T.);
#599 = FACE_BOUND('',#600,.T.);
#600 = EDGE_LOOP('',(#601));
#601 = ORIENTED_EDGE('',*,*,#236,.T.);
#602 = FACE_BOUND('',#603,.T.);
#603 = EDGE_LOOP('',(#604));
#604 = ORIENTED_EDGE('',*,*,#605,.T.);
#605 = EDGE_CURVE('',#606,#606,#608,.T.);
#606 = VERTEX_POINT('',#607);
#607 = CARTESIAN_POINT('',(-24.58108543828,-30.8237061963,25.));
#608 = CIRCLE('',#609,1.175);
#609 = AXIS2_PLACEMENT_3D('',#610,#611,#612);
#610 = CARTESIAN_POINT('',(-25.31368595546,-31.7423581882,25.));
#611 = DIRECTION('',(0.,0.,-1.));
#612 = DIRECTION('',(0.623489801859,0.781831482468,0.));
#613 = PLANE('',#614);
#614 = AXIS2_PLACEMENT_3D('',#615,#616,#617);
#615 = CARTESIAN_POINT('',(-25.31368595546,-31.7423581882,25.));
#616 = DIRECTION('',(0.,0.,1.));
#617 = DIRECTION('',(0.623489801859,0.781831482468,0.));
#618 = ADVANCED_FACE('',(#619,#622),#633,.T.);
#619 = FACE_BOUND('',#620,.T.);
#620 = EDGE_LOOP('',(#621));
#621 = ORIENTED_EDGE('',*,*,#261,.T.);
#622 = FACE_BOUND('',#623,.T.);
#623 = EDGE_LOOP('',(#624));
#624 = ORIENTED_EDGE('',*,*,#625,.T.);
#625 = EDGE_CURVE('',#626,#626,#628,.T.);
#626 = VERTEX_POINT('',#627);
#627 = CARTESIAN_POINT('',(-8.772887821228,-38.43653293776,25.));
#628 = CIRCLE('',#629,1.175);
#629 = AXIS2_PLACEMENT_3D('',#630,#631,#632);
#630 = CARTESIAN_POINT('',(-9.034349918626,-39.58207323458,25.));
#631 = DIRECTION('',(0.,0.,-1.));
#632 = DIRECTION('',(0.222520933956,0.974927912182,0.));
#633 = PLANE('',#634);
#634 = AXIS2_PLACEMENT_3D('',#635,#636,#637);
#635 = CARTESIAN_POINT('',(-9.034349918626,-39.58207323458,25.));
#636 = DIRECTION('',(0.,0.,1.));
#637 = DIRECTION('',(0.222520933956,0.974927912182,0.));
#638 = ADVANCED_FACE('',(#639,#642),#653,.T.);
#639 = FACE_BOUND('',#640,.T.);
#640 = EDGE_LOOP('',(#641));
#641 = ORIENTED_EDGE('',*,*,#286,.T.);
#642 = FACE_BOUND('',#643,.T.);
#643 = EDGE_LOOP('',(#644));
#644 = ORIENTED_EDGE('',*,*,#645,.T.);
#645 = EDGE_CURVE('',#646,#646,#648,.T.);
#646 = VERTEX_POINT('',#647);
#647 = CARTESIAN_POINT('',(-35.52069761705,-17.10586641471,25.));
#648 = CIRCLE('',#649,1.175);
#649 = AXIS2_PLACEMENT_3D('',#650,#651,#652);
#650 = CARTESIAN_POINT('',(-36.57933603683,-17.61567980817,25.));
#651 = DIRECTION('',(0.,0.,-1.));
#652 = DIRECTION('',(0.900968867902,0.433883739118,0.));
#653 = PLANE('',#654);
#654 = AXIS2_PLACEMENT_3D('',#655,#656,#657);
#655 = CARTESIAN_POINT('',(-36.57933603683,-17.61567980817,25.));
#656 = DIRECTION('',(0.,0.,1.));
#657 = DIRECTION('',(0.900968867902,0.433883739118,0.));
#658 = ADVANCED_FACE('',(#659,#662),#673,.T.);
#659 = FACE_BOUND('',#660,.T.);
#660 = EDGE_LOOP('',(#661));
#661 = ORIENTED_EDGE('',*,*,#311,.T.);
#662 = FACE_BOUND('',#663,.T.);
#663 = EDGE_LOOP('',(#664));
#664 = ORIENTED_EDGE('',*,*,#665,.T.);
#665 = EDGE_CURVE('',#666,#666,#668,.T.);
#666 = VERTEX_POINT('',#667);
#667 = CARTESIAN_POINT('',(8.772887821228,-38.43653293776,25.));
#668 = CIRCLE('',#669,1.175);
#669 = AXIS2_PLACEMENT_3D('',#670,#671,#672);
#670 = CARTESIAN_POINT('',(9.034349918626,-39.58207323458,25.));
#671 = DIRECTION('',(0.,0.,-1.));
#672 = DIRECTION('',(-0.222520933956,0.974927912182,0.));
#673 = PLANE('',#674);
#674 = AXIS2_PLACEMENT_3D('',#675,#676,#677);
#675 = CARTESIAN_POINT('',(9.034349918626,-39.58207323458,25.));
#676 = DIRECTION('',(0.,0.,1.));
#677 = DIRECTION('',(-0.222520933956,0.974927912182,0.));
#678 = ADVANCED_FACE('',(#679,#682),#693,.T.);
#679 = FACE_BOUND('',#680,.T.);
#680 = EDGE_LOOP('',(#681));
#681 = ORIENTED_EDGE('',*,*,#336,.T.);
#682 = FACE_BOUND('',#683,.T.);
#683 = EDGE_LOOP('',(#684));
#684 = ORIENTED_EDGE('',*,*,#685,.T.);
#685 = EDGE_CURVE('',#686,#686,#688,.T.);
#686 = VERTEX_POINT('',#687);
#687 = CARTESIAN_POINT('',(24.581085438281,-30.8237061963,25.));
#688 = CIRCLE('',#689,1.175);
#689 = AXIS2_PLACEMENT_3D('',#690,#691,#692);
#690 = CARTESIAN_POINT('',(25.313685955465,-31.7423581882,25.));
#691 = DIRECTION('',(0.,0.,-1.));
#692 = DIRECTION('',(-0.623489801859,0.781831482468,0.));
#693 = PLANE('',#694);
#694 = AXIS2_PLACEMENT_3D('',#695,#696,#697);
#695 = CARTESIAN_POINT('',(25.313685955465,-31.7423581882,25.));
#696 = DIRECTION('',(0.,0.,1.));
#697 = DIRECTION('',(-0.623489801859,0.781831482468,0.));
#698 = ADVANCED_FACE('',(#699,#702),#713,.T.);
#699 = FACE_BOUND('',#700,.T.);
#700 = EDGE_LOOP('',(#701));
#701 = ORIENTED_EDGE('',*,*,#361,.T.);
#702 = FACE_BOUND('',#703,.T.);
#703 = EDGE_LOOP('',(#704));
#704 = ORIENTED_EDGE('',*,*,#705,.T.);
#705 = EDGE_CURVE('',#706,#706,#708,.T.);
#706 = VERTEX_POINT('',#707);
#707 = CARTESIAN_POINT('',(35.520697617053,-17.10586641471,25.));
#708 = CIRCLE('',#709,1.175);
#709 = AXIS2_PLACEMENT_3D('',#710,#711,#712);
#710 = CARTESIAN_POINT('',(36.579336036838,-17.61567980817,25.));
#711 = DIRECTION('',(0.,0.,-1.));
#712 = DIRECTION('',(-0.900968867902,0.433883739118,0.));
#713 = PLANE('',#714);
#714 = AXIS2_PLACEMENT_3D('',#715,#716,#717);
#715 = CARTESIAN_POINT('',(36.579336036838,-17.61567980817,25.));
#716 = DIRECTION('',(0.,0.,1.));
#717 = DIRECTION('',(-0.900968867902,0.433883739118,0.));
#718 = ADVANCED_FACE('',(#719,#722),#733,.T.);
#719 = FACE_BOUND('',#720,.T.);
#720 = EDGE_LOOP('',(#721));
#721 = ORIENTED_EDGE('',*,*,#386,.T.);
#722 = FACE_BOUND('',#723,.T.);
#723 = EDGE_LOOP('',(#724));
#724 = ORIENTED_EDGE('',*,*,#725,.T.);
#725 = EDGE_CURVE('',#726,#726,#728,.T.);
#726 = VERTEX_POINT('',#727);
#727 = CARTESIAN_POINT('',(39.425,-4.828170005638E-15,25.));
#728 = CIRCLE('',#729,1.175);
#729 = AXIS2_PLACEMENT_3D('',#730,#731,#732);
#730 = CARTESIAN_POINT('',(40.6,-4.972066004538E-15,25.));
#731 = DIRECTION('',(0.,0.,-1.));
#732 = DIRECTION('',(-1.,1.224646799147E-16,0.));
#733 = PLANE('',#734);
#734 = AXIS2_PLACEMENT_3D('',#735,#736,#737);
#735 = CARTESIAN_POINT('',(40.6,-5.250521998295E-15,25.));
#736 = DIRECTION('',(0.,0.,1.));
#737 = DIRECTION('',(-1.,1.224646799147E-16,0.));
#738 = ADVANCED_FACE('',(#739,#742),#753,.T.);
#739 = FACE_BOUND('',#740,.T.);
#740 = EDGE_LOOP('',(#741));
#741 = ORIENTED_EDGE('',*,*,#411,.T.);
#742 = FACE_BOUND('',#743,.T.);
#743 = EDGE_LOOP('',(#744));
#744 = ORIENTED_EDGE('',*,*,#745,.T.);
#745 = EDGE_CURVE('',#746,#746,#748,.T.);
#746 = VERTEX_POINT('',#747);
#747 = CARTESIAN_POINT('',(-39.425,0.,25.));
#748 = CIRCLE('',#749,1.175);
#749 = AXIS2_PLACEMENT_3D('',#750,#751,#752);
#750 = CARTESIAN_POINT('',(-40.6,0.,25.));
#751 = DIRECTION('',(0.,0.,-1.));
#752 = DIRECTION('',(1.,0.,0.));
#753 = PLANE('',#754);
#754 = AXIS2_PLACEMENT_3D('',#755,#756,#757);
#755 = CARTESIAN_POINT('',(-40.6,2.784559937569E-16,25.));
#756 = DIRECTION('',(0.,0.,1.));
#757 = DIRECTION('',(1.,0.,0.));
#758 = ADVANCED_FACE('',(#759,#762),#773,.T.);
#759 = FACE_BOUND('',#760,.T.);
#760 = EDGE_LOOP('',(#761));
#761 = ORIENTED_EDGE('',*,*,#436,.T.);
#762 = FACE_BOUND('',#763,.T.);
#763 = EDGE_LOOP('',(#764));
#764 = ORIENTED_EDGE('',*,*,#765,.T.);
#765 = EDGE_CURVE('',#766,#766,#768,.T.);
#766 = VERTEX_POINT('',#767);
#767 = CARTESIAN_POINT('',(-35.52069761705,17.10586641471,25.));
#768 = CIRCLE('',#769,1.175);
#769 = AXIS2_PLACEMENT_3D('',#770,#771,#772);
#770 = CARTESIAN_POINT('',(-36.57933603683,17.615679808173,25.));
#771 = DIRECTION('',(0.,-0.,-1.));
#772 = DIRECTION('',(0.900968867902,-0.433883739118,0.));
#773 = PLANE('',#774);
#774 = AXIS2_PLACEMENT_3D('',#775,#776,#777);
#775 = CARTESIAN_POINT('',(-36.57933603683,17.615679808173,25.));
#776 = DIRECTION('',(0.,0.,1.));
#777 = DIRECTION('',(0.900968867902,-0.433883739118,0.));
#778 = ADVANCED_FACE('',(#779,#782),#793,.T.);
#779 = FACE_BOUND('',#780,.T.);
#780 = EDGE_LOOP('',(#781));
#781 = ORIENTED_EDGE('',*,*,#461,.T.);
#782 = FACE_BOUND('',#783,.T.);
#783 = EDGE_LOOP('',(#784));
#784 = ORIENTED_EDGE('',*,*,#785,.T.);
#785 = EDGE_CURVE('',#786,#786,#788,.T.);
#786 = VERTEX_POINT('',#787);
#787 = CARTESIAN_POINT('',(-24.58108543828,30.823706196302,25.));
#788 = CIRCLE('',#789,1.175);
#789 = AXIS2_PLACEMENT_3D('',#790,#791,#792);
#790 = CARTESIAN_POINT('',(-25.31368595546,31.742358188202,25.));
#791 = DIRECTION('',(0.,-0.,-1.));
#792 = DIRECTION('',(0.623489801859,-0.781831482468,0.));
#793 = PLANE('',#794);
#794 = AXIS2_PLACEMENT_3D('',#795,#796,#797);
#795 = CARTESIAN_POINT('',(-25.31368595546,31.742358188202,25.));
#796 = DIRECTION('',(0.,0.,1.));
#797 = DIRECTION('',(0.623489801859,-0.781831482468,0.));
#798 = ADVANCED_FACE('',(#799,#802),#813,.T.);
#799 = FACE_BOUND('',#800,.T.);
#800 = EDGE_LOOP('',(#801));
#801 = ORIENTED_EDGE('',*,*,#486,.T.);
#802 = FACE_BOUND('',#803,.T.);
#803 = EDGE_LOOP('',(#804));
#804 = ORIENTED_EDGE('',*,*,#805,.T.);
#805 = EDGE_CURVE('',#806,#806,#808,.T.);
#806 = VERTEX_POINT('',#807);
#807 = CARTESIAN_POINT('',(-8.772887821228,38.436532937768,25.));
#808 = CIRCLE('',#809,1.175);
#809 = AXIS2_PLACEMENT_3D('',#810,#811,#812);
#810 = CARTESIAN_POINT('',(-9.034349918626,39.582073234582,25.));
#811 = DIRECTION('',(0.,-0.,-1.));
#812 = DIRECTION('',(0.222520933956,-0.974927912182,0.));
#813 = PLANE('',#814);
#814 = AXIS2_PLACEMENT_3D('',#815,#816,#817);
#815 = CARTESIAN_POINT('',(-9.034349918626,39.582073234582,25.));
#816 = DIRECTION('',(0.,0.,1.));
#817 = DIRECTION('',(0.222520933956,-0.974927912182,0.));
#818 = ADVANCED_FACE('',(#819,#822),#833,.T.);
#819 = FACE_BOUND('',#820,.T.);
#820 = EDGE_LOOP('',(#821));
#821 = ORIENTED_EDGE('',*,*,#502,.F.);
#822 = FACE_BOUND('',#823,.T.);
#823 = EDGE_LOOP('',(#824));
#824 = ORIENTED_EDGE('',*,*,#825,.F.);
#825 = EDGE_CURVE('',#826,#826,#828,.T.);
#826 = VERTEX_POINT('',#827);
#827 = CARTESIAN_POINT('',(6.8,0.,5.));
#828 = CIRCLE('',#829,6.8);
#829 = AXIS2_PLACEMENT_3D('',#830,#831,#832);
#830 = CARTESIAN_POINT('',(0.,0.,5.));
#831 = DIRECTION('',(0.,0.,1.));
#832 = DIRECTION('',(1.,0.,0.));
#833 = PLANE('',#834);
#834 = AXIS2_PLACEMENT_3D('',#835,#836,#837);
#835 = CARTESIAN_POINT('',(-2.505714423346E-15,2.477788577387E-15,5.));
#836 = DIRECTION('',(0.,0.,1.));
#837 = DIRECTION('',(1.,0.,0.));
#838 = ADVANCED_FACE('',(#839,#842),#853,.T.);
#839 = FACE_BOUND('',#840,.T.);
#840 = EDGE_LOOP('',(#841));
#841 = ORIENTED_EDGE('',*,*,#536,.T.);
#842 = FACE_BOUND('',#843,.T.);
#843 = EDGE_LOOP('',(#844));
#844 = ORIENTED_EDGE('',*,*,#845,.T.);
#845 = EDGE_CURVE('',#846,#846,#848,.T.);
#846 = VERTEX_POINT('',#847);
#847 = CARTESIAN_POINT('',(35.520697617053,17.10586641471,25.));
#848 = CIRCLE('',#849,1.175);
#849 = AXIS2_PLACEMENT_3D('',#850,#851,#852);
#850 = CARTESIAN_POINT('',(36.579336036838,17.615679808173,25.));
#851 = DIRECTION('',(0.,0.,-1.));
#852 = DIRECTION('',(-0.900968867902,-0.433883739118,-0.));
#853 = PLANE('',#854);
#854 = AXIS2_PLACEMENT_3D('',#855,#856,#857);
#855 = CARTESIAN_POINT('',(36.579336036838,17.615679808173,25.));
#856 = DIRECTION('',(0.,0.,1.));
#857 = DIRECTION('',(-0.900968867902,-0.433883739118,0.));
#858 = ADVANCED_FACE('',(#859,#862),#873,.T.);
#859 = FACE_BOUND('',#860,.T.);
#860 = EDGE_LOOP('',(#861));
#861 = ORIENTED_EDGE('',*,*,#561,.T.);
#862 = FACE_BOUND('',#863,.T.);
#863 = EDGE_LOOP('',(#864));
#864 = ORIENTED_EDGE('',*,*,#865,.T.);
#865 = EDGE_CURVE('',#866,#866,#868,.T.);
#866 = VERTEX_POINT('',#867);
#867 = CARTESIAN_POINT('',(8.772887821228,38.436532937768,25.));
#868 = CIRCLE('',#869,1.175);
#869 = AXIS2_PLACEMENT_3D('',#870,#871,#872);
#870 = CARTESIAN_POINT('',(9.034349918626,39.582073234582,25.));
#871 = DIRECTION('',(0.,0.,-1.));
#872 = DIRECTION('',(-0.222520933956,-0.974927912182,-0.));
#873 = PLANE('',#874);
#874 = AXIS2_PLACEMENT_3D('',#875,#876,#877);
#875 = CARTESIAN_POINT('',(9.034349918626,39.582073234582,25.));
#876 = DIRECTION('',(0.,0.,1.));
#877 = DIRECTION('',(-0.222520933956,-0.974927912182,0.));
#878 = ADVANCED_FACE('',(#879,#882),#893,.T.);
#879 = FACE_BOUND('',#880,.T.);
#880 = EDGE_LOOP('',(#881));
#881 = ORIENTED_EDGE('',*,*,#586,.T.);
#882 = FACE_BOUND('',#883,.T.);
#883 = EDGE_LOOP('',(#884));
#884 = ORIENTED_EDGE('',*,*,#885,.T.);
#885 = EDGE_CURVE('',#886,#886,#888,.T.);
#886 = VERTEX_POINT('',#887);
#887 = CARTESIAN_POINT('',(24.581085438281,30.823706196302,25.));
#888 = CIRCLE('',#889,1.175);
#889 = AXIS2_PLACEMENT_3D('',#890,#891,#892);
#890 = CARTESIAN_POINT('',(25.313685955465,31.742358188202,25.));
#891 = DIRECTION('',(0.,0.,-1.));
#892 = DIRECTION('',(-0.623489801859,-0.781831482468,-0.));
#893 = PLANE('',#894);
#894 = AXIS2_PLACEMENT_3D('',#895,#896,#897);
#895 = CARTESIAN_POINT('',(25.313685955465,31.742358188202,25.));
#896 = DIRECTION('',(0.,0.,1.));
#897 = DIRECTION('',(-0.623489801859,-0.781831482468,0.));
#898 = ADVANCED_FACE('',(#899),#918,.F.);
#899 = FACE_BOUND('',#900,.T.);
#900 = EDGE_LOOP('',(#901,#909,#910,#911));
#901 = ORIENTED_EDGE('',*,*,#902,.T.);
#902 = EDGE_CURVE('',#903,#826,#905,.T.);
#903 = VERTEX_POINT('',#904);
#904 = CARTESIAN_POINT('',(6.8,0.,0.));
#905 = LINE('',#906,#907);
#906 = CARTESIAN_POINT('',(6.8,0.,0.));
#907 = VECTOR('',#908,1.);
#908 = DIRECTION('',(0.,0.,1.));
#909 = ORIENTED_EDGE('',*,*,#825,.T.);
#910 = ORIENTED_EDGE('',*,*,#902,.F.);
#911 = ORIENTED_EDGE('',*,*,#912,.F.);
#912 = EDGE_CURVE('',#903,#903,#913,.T.);
#913 = CIRCLE('',#914,6.8);
#914 = AXIS2_PLACEMENT_3D('',#915,#916,#917);
#915 = CARTESIAN_POINT('',(0.,0.,0.));
#916 = DIRECTION('',(0.,0.,1.));
#917 = DIRECTION('',(1.,0.,0.));
#918 = CYLINDRICAL_SURFACE('',#919,6.8);
#919 = AXIS2_PLACEMENT_3D('',#920,#921,#922);
#920 = CARTESIAN_POINT('',(0.,0.,0.));
#921 = DIRECTION('',(-0.,-0.,-1.));
#922 = DIRECTION('',(1.,0.,0.));
#923 = ADVANCED_FACE('',(#924),#943,.T.);
#924 = FACE_BOUND('',#925,.F.);
#925 = EDGE_LOOP('',(#926,#927,#935,#942));
#926 = ORIENTED_EDGE('',*,*,#605,.T.);
#927 = ORIENTED_EDGE('',*,*,#928,.T.);
#928 = EDGE_CURVE('',#606,#929,#931,.T.);
#929 = VERTEX_POINT('',#930);
#930 = CARTESIAN_POINT('',(-24.58108543828,-30.8237061963,30.));
#931 = LINE('',#932,#933);
#932 = CARTESIAN_POINT('',(-24.58108543828,-30.8237061963,0.));
#933 = VECTOR('',#934,1.);
#934 = DIRECTION('',(0.,0.,1.));
#935 = ORIENTED_EDGE('',*,*,#936,.T.);
#936 = EDGE_CURVE('',#929,#929,#937,.T.);
#937 = CIRCLE('',#938,1.175);
#938 = AXIS2_PLACEMENT_3D('',#939,#940,#941);
#939 = CARTESIAN_POINT('',(-25.31368595546,-31.7423581882,30.));
#940 = DIRECTION('',(0.,-0.,1.));
#941 = DIRECTION('',(0.623489801859,0.781831482468,0.));
#942 = ORIENTED_EDGE('',*,*,#928,.F.);
#943 = CYLINDRICAL_SURFACE('',#944,1.175);
#944 = AXIS2_PLACEMENT_3D('',#945,#946,#947);
#945 = CARTESIAN_POINT('',(-25.31368595546,-31.7423581882,0.));
#946 = DIRECTION('',(0.,-0.,-1.));
#947 = DIRECTION('',(0.623489801859,0.781831482468,0.));
#948 = ADVANCED_FACE('',(#949),#968,.T.);
#949 = FACE_BOUND('',#950,.F.);
#950 = EDGE_LOOP('',(#951,#952,#960,#967));
#951 = ORIENTED_EDGE('',*,*,#625,.T.);
#952 = ORIENTED_EDGE('',*,*,#953,.T.);
#953 = EDGE_CURVE('',#626,#954,#956,.T.);
#954 = VERTEX_POINT('',#955);
#955 = CARTESIAN_POINT('',(-8.772887821228,-38.43653293776,30.));
#956 = LINE('',#957,#958);
#957 = CARTESIAN_POINT('',(-8.772887821228,-38.43653293776,0.));
#958 = VECTOR('',#959,1.);
#959 = DIRECTION('',(0.,0.,1.));
#960 = ORIENTED_EDGE('',*,*,#961,.T.);
#961 = EDGE_CURVE('',#954,#954,#962,.T.);
#962 = CIRCLE('',#963,1.175);
#963 = AXIS2_PLACEMENT_3D('',#964,#965,#966);
#964 = CARTESIAN_POINT('',(-9.034349918626,-39.58207323458,30.));
#965 = DIRECTION('',(0.,-0.,1.));
#966 = DIRECTION('',(0.222520933956,0.974927912182,0.));
#967 = ORIENTED_EDGE('',*,*,#953,.F.);
#968 = CYLINDRICAL_SURFACE('',#969,1.175);
#969 = AXIS2_PLACEMENT_3D('',#970,#971,#972);
#970 = CARTESIAN_POINT('',(-9.034349918626,-39.58207323458,0.));
#971 = DIRECTION('',(0.,-0.,-1.));
#972 = DIRECTION('',(0.222520933956,0.974927912182,0.));
#973 = ADVANCED_FACE('',(#974),#993,.T.);
#974 = FACE_BOUND('',#975,.F.);
#975 = EDGE_LOOP('',(#976,#977,#985,#992));
#976 = ORIENTED_EDGE('',*,*,#645,.T.);
#977 = ORIENTED_EDGE('',*,*,#978,.T.);
#978 = EDGE_CURVE('',#646,#979,#981,.T.);
#979 = VERTEX_POINT('',#980);
#980 = CARTESIAN_POINT('',(-35.52069761705,-17.10586641471,30.));
#981 = LINE('',#982,#983);
#982 = CARTESIAN_POINT('',(-35.52069761705,-17.10586641471,0.));
#983 = VECTOR('',#984,1.);
#984 = DIRECTION('',(0.,0.,1.));
#985 = ORIENTED_EDGE('',*,*,#986,.T.);
#986 = EDGE_CURVE('',#979,#979,#987,.T.);
#987 = CIRCLE('',#988,1.175);
#988 = AXIS2_PLACEMENT_3D('',#989,#990,#991);
#989 = CARTESIAN_POINT('',(-36.57933603683,-17.61567980817,30.));
#990 = DIRECTION('',(0.,-0.,1.));
#991 = DIRECTION('',(0.900968867902,0.433883739118,0.));
#992 = ORIENTED_EDGE('',*,*,#978,.F.);
#993 = CYLINDRICAL_SURFACE('',#994,1.175);
#994 = AXIS2_PLACEMENT_3D('',#995,#996,#997);
#995 = CARTESIAN_POINT('',(-36.57933603683,-17.61567980817,0.));
#996 = DIRECTION('',(0.,0.,-1.));
#997 = DIRECTION('',(0.900968867902,0.433883739118,0.));
#998 = ADVANCED_FACE('',(#999),#1018,.T.);
#999 = FACE_BOUND('',#1000,.F.);
#1000 = EDGE_LOOP('',(#1001,#1002,#1010,#1017));
#1001 = ORIENTED_EDGE('',*,*,#665,.T.);
#1002 = ORIENTED_EDGE('',*,*,#1003,.T.);
#1003 = EDGE_CURVE('',#666,#1004,#1006,.T.);
#1004 = VERTEX_POINT('',#1005);
#1005 = CARTESIAN_POINT('',(8.772887821228,-38.43653293776,30.));
#1006 = LINE('',#1007,#1008);
#1007 = CARTESIAN_POINT('',(8.772887821228,-38.43653293776,0.));
#1008 = VECTOR('',#1009,1.);
#1009 = DIRECTION('',(0.,0.,1.));
#1010 = ORIENTED_EDGE('',*,*,#1011,.T.);
#1011 = EDGE_CURVE('',#1004,#1004,#1012,.T.);
#1012 = CIRCLE('',#1013,1.175);
#1013 = AXIS2_PLACEMENT_3D('',#1014,#1015,#1016);
#1014 = CARTESIAN_POINT('',(9.034349918626,-39.58207323458,30.));
#1015 = DIRECTION('',(0.,0.,1.));
#1016 = DIRECTION('',(-0.222520933956,0.974927912182,0.));
#1017 = ORIENTED_EDGE('',*,*,#1003,.F.);
#1018 = CYLINDRICAL_SURFACE('',#1019,1.175);
#1019 = AXIS2_PLACEMENT_3D('',#1020,#1021,#1022);
#1020 = CARTESIAN_POINT('',(9.034349918626,-39.58207323458,0.));
#1021 = DIRECTION('',(-0.,0.,-1.));
#1022 = DIRECTION('',(-0.222520933956,0.974927912182,0.));
#1023 = ADVANCED_FACE('',(#1024),#1043,.T.);
#1024 = FACE_BOUND('',#1025,.F.);
#1025 = EDGE_LOOP('',(#1026,#1027,#1035,#1042));
#1026 = ORIENTED_EDGE('',*,*,#685,.T.);
#1027 = ORIENTED_EDGE('',*,*,#1028,.T.);
#1028 = EDGE_CURVE('',#686,#1029,#1031,.T.);
#1029 = VERTEX_POINT('',#1030);
#1030 = CARTESIAN_POINT('',(24.581085438281,-30.8237061963,30.));
#1031 = LINE('',#1032,#1033);
#1032 = CARTESIAN_POINT('',(24.581085438281,-30.8237061963,0.));
#1033 = VECTOR('',#1034,1.);
#1034 = DIRECTION('',(0.,0.,1.));
#1035 = ORIENTED_EDGE('',*,*,#1036,.T.);
#1036 = EDGE_CURVE('',#1029,#1029,#1037,.T.);
#1037 = CIRCLE('',#1038,1.175);
#1038 = AXIS2_PLACEMENT_3D('',#1039,#1040,#1041);
#1039 = CARTESIAN_POINT('',(25.313685955465,-31.7423581882,30.));
#1040 = DIRECTION('',(0.,0.,1.));
#1041 = DIRECTION('',(-0.623489801859,0.781831482468,0.));
#1042 = ORIENTED_EDGE('',*,*,#1028,.F.);
#1043 = CYLINDRICAL_SURFACE('',#1044,1.175);
#1044 = AXIS2_PLACEMENT_3D('',#1045,#1046,#1047);
#1045 = CARTESIAN_POINT('',(25.313685955465,-31.7423581882,0.));
#1046 = DIRECTION('',(-0.,0.,-1.));
#1047 = DIRECTION('',(-0.623489801859,0.781831482468,0.));
#1048 = ADVANCED_FACE('',(#1049),#1068,.T.);
#1049 = FACE_BOUND('',#1050,.F.);
#1050 = EDGE_LOOP('',(#1051,#1052,#1060,#1067));
#1051 = ORIENTED_EDGE('',*,*,#705,.T.);
#1052 = ORIENTED_EDGE('',*,*,#1053,.T.);
#1053 = EDGE_CURVE('',#706,#1054,#1056,.T.);
#1054 = VERTEX_POINT('',#1055);
#1055 = CARTESIAN_POINT('',(35.520697617053,-17.10586641471,30.));
#1056 = LINE('',#1057,#1058);
#1057 = CARTESIAN_POINT('',(35.520697617053,-17.10586641471,0.));
#1058 = VECTOR('',#1059,1.);
#1059 = DIRECTION('',(0.,0.,1.));
#1060 = ORIENTED_EDGE('',*,*,#1061,.T.);
#1061 = EDGE_CURVE('',#1054,#1054,#1062,.T.);
#1062 = CIRCLE('',#1063,1.175);
#1063 = AXIS2_PLACEMENT_3D('',#1064,#1065,#1066);
#1064 = CARTESIAN_POINT('',(36.579336036838,-17.61567980817,30.));
#1065 = DIRECTION('',(0.,0.,1.));
#1066 = DIRECTION('',(-0.900968867902,0.433883739118,0.));
#1067 = ORIENTED_EDGE('',*,*,#1053,.F.);
#1068 = CYLINDRICAL_SURFACE('',#1069,1.175);
#1069 = AXIS2_PLACEMENT_3D('',#1070,#1071,#1072);
#1070 = CARTESIAN_POINT('',(36.579336036838,-17.61567980817,0.));
#1071 = DIRECTION('',(0.,0.,-1.));
#1072 = DIRECTION('',(-0.900968867902,0.433883739118,0.));
#1073 = ADVANCED_FACE('',(#1074),#1093,.T.);
#1074 = FACE_BOUND('',#1075,.F.);
#1075 = EDGE_LOOP('',(#1076,#1077,#1085,#1092));
#1076 = ORIENTED_EDGE('',*,*,#725,.T.);
#1077 = ORIENTED_EDGE('',*,*,#1078,.T.);
#1078 = EDGE_CURVE('',#726,#1079,#1081,.T.);
#1079 = VERTEX_POINT('',#1080);
#1080 = CARTESIAN_POINT('',(39.425,-4.828170005638E-15,30.));
#1081 = LINE('',#1082,#1083);
#1082 = CARTESIAN_POINT('',(39.425,-4.828170005638E-15,0.));
#1083 = VECTOR('',#1084,1.);
#1084 = DIRECTION('',(0.,0.,1.));
#1085 = ORIENTED_EDGE('',*,*,#1086,.T.);
#1086 = EDGE_CURVE('',#1079,#1079,#1087,.T.);
#1087 = CIRCLE('',#1088,1.175);
#1088 = AXIS2_PLACEMENT_3D('',#1089,#1090,#1091);
#1089 = CARTESIAN_POINT('',(40.6,-4.972066004538E-15,30.));
#1090 = DIRECTION('',(0.,0.,1.));
#1091 = DIRECTION('',(-1.,1.224646799147E-16,0.));
#1092 = ORIENTED_EDGE('',*,*,#1078,.F.);
#1093 = CYLINDRICAL_SURFACE('',#1094,1.175);
#1094 = AXIS2_PLACEMENT_3D('',#1095,#1096,#1097);
#1095 = CARTESIAN_POINT('',(40.6,-4.972066004538E-15,0.));
#1096 = DIRECTION('',(0.,0.,-1.));
#1097 = DIRECTION('',(-1.,1.224646799147E-16,0.));
#1098 = ADVANCED_FACE('',(#1099),#1118,.T.);
#1099 = FACE_BOUND('',#1100,.F.);
#1100 = EDGE_LOOP('',(#1101,#1102,#1110,#1117));
#1101 = ORIENTED_EDGE('',*,*,#745,.T.);
#1102 = ORIENTED_EDGE('',*,*,#1103,.T.);
#1103 = EDGE_CURVE('',#746,#1104,#1106,.T.);
#1104 = VERTEX_POINT('',#1105);
#1105 = CARTESIAN_POINT('',(-39.425,0.,30.));
#1106 = LINE('',#1107,#1108);
#1107 = CARTESIAN_POINT('',(-39.425,0.,0.));
#1108 = VECTOR('',#1109,1.);
#1109 = DIRECTION('',(0.,0.,1.));
#1110 = ORIENTED_EDGE('',*,*,#1111,.T.);
#1111 = EDGE_CURVE('',#1104,#1104,#1112,.T.);
#1112 = CIRCLE('',#1113,1.175);
#1113 = AXIS2_PLACEMENT_3D('',#1114,#1115,#1116);
#1114 = CARTESIAN_POINT('',(-40.6,0.,30.));
#1115 = DIRECTION('',(0.,0.,1.));
#1116 = DIRECTION('',(1.,0.,0.));
#1117 = ORIENTED_EDGE('',*,*,#1103,.F.);
#1118 = CYLINDRICAL_SURFACE('',#1119,1.175);
#1119 = AXIS2_PLACEMENT_3D('',#1120,#1121,#1122);
#1120 = CARTESIAN_POINT('',(-40.6,0.,0.));
#1121 = DIRECTION('',(-0.,-0.,-1.));
#1122 = DIRECTION('',(1.,0.,0.));
#1123 = ADVANCED_FACE('',(#1124),#1143,.T.);
#1124 = FACE_BOUND('',#1125,.F.);
#1125 = EDGE_LOOP('',(#1126,#1127,#1135,#1142));
#1126 = ORIENTED_EDGE('',*,*,#765,.T.);
#1127 = ORIENTED_EDGE('',*,*,#1128,.T.);
#1128 = EDGE_CURVE('',#766,#1129,#1131,.T.);
#1129 = VERTEX_POINT('',#1130);
#1130 = CARTESIAN_POINT('',(-35.52069761705,17.10586641471,30.));
#1131 = LINE('',#1132,#1133);
#1132 = CARTESIAN_POINT('',(-35.52069761705,17.10586641471,0.));
#1133 = VECTOR('',#1134,1.);
#1134 = DIRECTION('',(0.,0.,1.));
#1135 = ORIENTED_EDGE('',*,*,#1136,.T.);
#1136 = EDGE_CURVE('',#1129,#1129,#1137,.T.);
#1137 = CIRCLE('',#1138,1.175);
#1138 = AXIS2_PLACEMENT_3D('',#1139,#1140,#1141);
#1139 = CARTESIAN_POINT('',(-36.57933603683,17.615679808173,30.));
#1140 = DIRECTION('',(-0.,0.,1.));
#1141 = DIRECTION('',(0.900968867902,-0.433883739118,0.));
#1142 = ORIENTED_EDGE('',*,*,#1128,.F.);
#1143 = CYLINDRICAL_SURFACE('',#1144,1.175);
#1144 = AXIS2_PLACEMENT_3D('',#1145,#1146,#1147);
#1145 = CARTESIAN_POINT('',(-36.57933603683,17.615679808173,0.));
#1146 = DIRECTION('',(0.,0.,-1.));
#1147 = DIRECTION('',(0.900968867902,-0.433883739118,0.));
#1148 = ADVANCED_FACE('',(#1149),#1168,.T.);
#1149 = FACE_BOUND('',#1150,.F.);
#1150 = EDGE_LOOP('',(#1151,#1152,#1160,#1167));
#1151 = ORIENTED_EDGE('',*,*,#785,.T.);
#1152 = ORIENTED_EDGE('',*,*,#1153,.T.);
#1153 = EDGE_CURVE('',#786,#1154,#1156,.T.);
#1154 = VERTEX_POINT('',#1155);
#1155 = CARTESIAN_POINT('',(-24.58108543828,30.823706196302,30.));
#1156 = LINE('',#1157,#1158);
#1157 = CARTESIAN_POINT('',(-24.58108543828,30.823706196302,0.));
#1158 = VECTOR('',#1159,1.);
#1159 = DIRECTION('',(0.,0.,1.));
#1160 = ORIENTED_EDGE('',*,*,#1161,.T.);
#1161 = EDGE_CURVE('',#1154,#1154,#1162,.T.);
#1162 = CIRCLE('',#1163,1.175);
#1163 = AXIS2_PLACEMENT_3D('',#1164,#1165,#1166);
#1164 = CARTESIAN_POINT('',(-25.31368595546,31.742358188202,30.));
#1165 = DIRECTION('',(-0.,0.,1.));
#1166 = DIRECTION('',(0.623489801859,-0.781831482468,0.));
#1167 = ORIENTED_EDGE('',*,*,#1153,.F.);
#1168 = CYLINDRICAL_SURFACE('',#1169,1.175);
#1169 = AXIS2_PLACEMENT_3D('',#1170,#1171,#1172);
#1170 = CARTESIAN_POINT('',(-25.31368595546,31.742358188202,0.));
#1171 = DIRECTION('',(0.,0.,-1.));
#1172 = DIRECTION('',(0.623489801859,-0.781831482468,0.));
#1173 = ADVANCED_FACE('',(#1174),#1193,.T.);
#1174 = FACE_BOUND('',#1175,.F.);
#1175 = EDGE_LOOP('',(#1176,#1177,#1185,#1192));
#1176 = ORIENTED_EDGE('',*,*,#805,.T.);
#1177 = ORIENTED_EDGE('',*,*,#1178,.T.);
#1178 = EDGE_CURVE('',#806,#1179,#1181,.T.);
#1179 = VERTEX_POINT('',#1180);
#1180 = CARTESIAN_POINT('',(-8.772887821228,38.436532937768,30.));
#1181 = LINE('',#1182,#1183);
#1182 = CARTESIAN_POINT('',(-8.772887821228,38.436532937768,0.));
#1183 = VECTOR('',#1184,1.);
#1184 = DIRECTION('',(0.,0.,1.));
#1185 = ORIENTED_EDGE('',*,*,#1186,.T.);
#1186 = EDGE_CURVE('',#1179,#1179,#1187,.T.);
#1187 = CIRCLE('',#1188,1.175);
#1188 = AXIS2_PLACEMENT_3D('',#1189,#1190,#1191);
#1189 = CARTESIAN_POINT('',(-9.034349918626,39.582073234582,30.));
#1190 = DIRECTION('',(-0.,0.,1.));
#1191 = DIRECTION('',(0.222520933956,-0.974927912182,0.));
#1192 = ORIENTED_EDGE('',*,*,#1178,.F.);
#1193 = CYLINDRICAL_SURFACE('',#1194,1.175);
#1194 = AXIS2_PLACEMENT_3D('',#1195,#1196,#1197);
#1195 = CARTESIAN_POINT('',(-9.034349918626,39.582073234582,0.));
#1196 = DIRECTION('',(0.,0.,-1.));
#1197 = DIRECTION('',(0.222520933956,-0.974927912182,0.));
#1198 = ADVANCED_FACE('',(#1199),#1218,.T.);
#1199 = FACE_BOUND('',#1200,.F.);
#1200 = EDGE_LOOP('',(#1201,#1202,#1210,#1217));
#1201 = ORIENTED_EDGE('',*,*,#845,.T.);
#1202 = ORIENTED_EDGE('',*,*,#1203,.T.);
#1203 = EDGE_CURVE('',#846,#1204,#1206,.T.);
#1204 = VERTEX_POINT('',#1205);
#1205 = CARTESIAN_POINT('',(35.520697617053,17.10586641471,30.));
#1206 = LINE('',#1207,#1208);
#1207 = CARTESIAN_POINT('',(35.520697617053,17.10586641471,0.));
#1208 = VECTOR('',#1209,1.);
#1209 = DIRECTION('',(0.,0.,1.));
#1210 = ORIENTED_EDGE('',*,*,#1211,.T.);
#1211 = EDGE_CURVE('',#1204,#1204,#1212,.T.);
#1212 = CIRCLE('',#1213,1.175);
#1213 = AXIS2_PLACEMENT_3D('',#1214,#1215,#1216);
#1214 = CARTESIAN_POINT('',(36.579336036838,17.615679808173,30.));
#1215 = DIRECTION('',(0.,0.,1.));
#1216 = DIRECTION('',(-0.900968867902,-0.433883739118,0.));
#1217 = ORIENTED_EDGE('',*,*,#1203,.F.);
#1218 = CYLINDRICAL_SURFACE('',#1219,1.175);
#1219 = AXIS2_PLACEMENT_3D('',#1220,#1221,#1222);
#1220 = CARTESIAN_POINT('',(36.579336036838,17.615679808173,0.));
#1221 = DIRECTION('',(0.,0.,-1.));
#1222 = DIRECTION('',(-0.900968867902,-0.433883739118,0.));
#1223 = ADVANCED_FACE('',(#1224),#1243,.T.);
#1224 = FACE_BOUND('',#1225,.F.);
#1225 = EDGE_LOOP('',(#1226,#1227,#1235,#1242));
#1226 = ORIENTED_EDGE('',*,*,#865,.T.);
#1227 = ORIENTED_EDGE('',*,*,#1228,.T.);
#1228 = EDGE_CURVE('',#866,#1229,#1231,.T.);
#1229 = VERTEX_POINT('',#1230);
#1230 = CARTESIAN_POINT('',(8.772887821228,38.436532937768,30.));
#1231 = LINE('',#1232,#1233);
#1232 = CARTESIAN_POINT('',(8.772887821228,38.436532937768,0.));
#1233 = VECTOR('',#1234,1.);
#1234 = DIRECTION('',(0.,0.,1.));
#1235 = ORIENTED_EDGE('',*,*,#1236,.T.);
#1236 = EDGE_CURVE('',#1229,#1229,#1237,.T.);
#1237 = CIRCLE('',#1238,1.175);
#1238 = AXIS2_PLACEMENT_3D('',#1239,#1240,#1241);
#1239 = CARTESIAN_POINT('',(9.034349918626,39.582073234582,30.));
#1240 = DIRECTION('',(0.,0.,1.));
#1241 = DIRECTION('',(-0.222520933956,-0.974927912182,0.));
#1242 = ORIENTED_EDGE('',*,*,#1228,.F.);
#1243 = CYLINDRICAL_SURFACE('',#1244,1.175);
#1244 = AXIS2_PLACEMENT_3D('',#1245,#1246,#1247);
#1245 = CARTESIAN_POINT('',(9.034349918626,39.582073234582,0.));
#1246 = DIRECTION('',(0.,0.,-1.));
#1247 = DIRECTION('',(-0.222520933956,-0.974927912182,0.));
#1248 = ADVANCED_FACE('',(#1249),#1268,.T.);
#1249 = FACE_BOUND('',#1250,.F.);
#1250 = EDGE_LOOP('',(#1251,#1252,#1260,#1267));
#1251 = ORIENTED_EDGE('',*,*,#885,.T.);
#1252 = ORIENTED_EDGE('',*,*,#1253,.T.);
#1253 = EDGE_CURVE('',#886,#1254,#1256,.T.);
#1254 = VERTEX_POINT('',#1255);
#1255 = CARTESIAN_POINT('',(24.581085438281,30.823706196302,30.));
#1256 = LINE('',#1257,#1258);
#1257 = CARTESIAN_POINT('',(24.581085438281,30.823706196302,0.));
#1258 = VECTOR('',#1259,1.);
#1259 = DIRECTION('',(0.,0.,1.));
#1260 = ORIENTED_EDGE('',*,*,#1261,.T.);
#1261 = EDGE_CURVE('',#1254,#1254,#1262,.T.);
#1262 = CIRCLE('',#1263,1.175);
#1263 = AXIS2_PLACEMENT_3D('',#1264,#1265,#1266);
#1264 = CARTESIAN_POINT('',(25.313685955465,31.742358188202,30.));
#1265 = DIRECTION('',(0.,0.,1.));
#1266 = DIRECTION('',(-0.623489801859,-0.781831482468,0.));
#1267 = ORIENTED_EDGE('',*,*,#1253,.F.);
#1268 = CYLINDRICAL_SURFACE('',#1269,1.175);
#1269 = AXIS2_PLACEMENT_3D('',#1270,#1271,#1272);
#1270 = CARTESIAN_POINT('',(25.313685955465,31.742358188202,0.));
#1271 = DIRECTION('',(0.,0.,-1.));
#1272 = DIRECTION('',(-0.623489801859,-0.781831482468,0.));
#1273 = ADVANCED_FACE('',(#1274),#1277,.T.);
#1274 = FACE_BOUND('',#1275,.T.);
#1275 = EDGE_LOOP('',(#1276));
#1276 = ORIENTED_EDGE('',*,*,#936,.T.);
#1277 = PLANE('',#1278);
#1278 = AXIS2_PLACEMENT_3D('',#1279,#1280,#1281);
#1279 = CARTESIAN_POINT('',(-25.31368595546,-31.7423581882,30.));
#1280 = DIRECTION('',(0.,0.,1.));
#1281 = DIRECTION('',(0.623489801859,0.781831482468,0.));
#1282 = ADVANCED_FACE('',(#1283),#1286,.T.);
#1283 = FACE_BOUND('',#1284,.T.);
#1284 = EDGE_LOOP('',(#1285));
#1285 = ORIENTED_EDGE('',*,*,#961,.T.);
#1286 = PLANE('',#1287);
#1287 = AXIS2_PLACEMENT_3D('',#1288,#1289,#1290);
#1288 = CARTESIAN_POINT('',(-9.034349918626,-39.58207323458,30.));
#1289 = DIRECTION('',(0.,0.,1.));
#1290 = DIRECTION('',(0.222520933956,0.974927912182,0.));
#1291 = ADVANCED_FACE('',(#1292),#1295,.T.);
#1292 = FACE_BOUND('',#1293,.T.);
#1293 = EDGE_LOOP('',(#1294));
#1294 = ORIENTED_EDGE('',*,*,#986,.T.);
#1295 = PLANE('',#1296);
#1296 = AXIS2_PLACEMENT_3D('',#1297,#1298,#1299);
#1297 = CARTESIAN_POINT('',(-36.57933603683,-17.61567980817,30.));
#1298 = DIRECTION('',(0.,0.,1.));
#1299 = DIRECTION('',(0.900968867902,0.433883739118,0.));
#1300 = ADVANCED_FACE('',(#1301),#1304,.T.);
#1301 = FACE_BOUND('',#1302,.T.);
#1302 = EDGE_LOOP('',(#1303));
#1303 = ORIENTED_EDGE('',*,*,#1011,.T.);
#1304 = PLANE('',#1305);
#1305 = AXIS2_PLACEMENT_3D('',#1306,#1307,#1308);
#1306 = CARTESIAN_POINT('',(9.034349918626,-39.58207323458,30.));
#1307 = DIRECTION('',(0.,0.,1.));
#1308 = DIRECTION('',(-0.222520933956,0.974927912182,0.));
#1309 = ADVANCED_FACE('',(#1310),#1313,.T.);
#1310 = FACE_BOUND('',#1311,.T.);
#1311 = EDGE_LOOP('',(#1312));
#1312 = ORIENTED_EDGE('',*,*,#1036,.T.);
#1313 = PLANE('',#1314);
#1314 = AXIS2_PLACEMENT_3D('',#1315,#1316,#1317);
#1315 = CARTESIAN_POINT('',(25.313685955465,-31.7423581882,30.));
#1316 = DIRECTION('',(0.,0.,1.));
#1317 = DIRECTION('',(-0.623489801859,0.781831482468,0.));
#1318 = ADVANCED_FACE('',(#1319),#1322,.T.);
#1319 = FACE_BOUND('',#1320,.T.);
#1320 = EDGE_LOOP('',(#1321));
#1321 = ORIENTED_EDGE('',*,*,#1061,.T.);
#1322 = PLANE('',#1323);
#1323 = AXIS2_PLACEMENT_3D('',#1324,#1325,#1326);
#1324 = CARTESIAN_POINT('',(36.579336036838,-17.61567980817,30.));
#1325 = DIRECTION('',(0.,0.,1.));
#1326 = DIRECTION('',(-0.900968867902,0.433883739118,0.));
#1327 = ADVANCED_FACE('',(#1328),#1331,.T.);
#1328 = FACE_BOUND('',#1329,.T.);
#1329 = EDGE_LOOP('',(#1330));
#1330 = ORIENTED_EDGE('',*,*,#1086,.T.);
#1331 = PLANE('',#1332);
#1332 = AXIS2_PLACEMENT_3D('',#1333,#1334,#1335);
#1333 = CARTESIAN_POINT('',(40.6,-4.975337280943E-15,30.));
#1334 = DIRECTION('',(0.,0.,1.));
#1335 = DIRECTION('',(-1.,1.224646799147E-16,0.));
#1336 = ADVANCED_FACE('',(#1337),#1340,.T.);
#1337 = FACE_BOUND('',#1338,.T.);
#1338 = EDGE_LOOP('',(#1339));
#1339 = ORIENTED_EDGE('',*,*,#1111,.T.);
#1340 = PLANE('',#1341);
#1341 = AXIS2_PLACEMENT_3D('',#1342,#1343,#1344);
#1342 = CARTESIAN_POINT('',(-40.6,3.271276404536E-18,30.));
#1343 = DIRECTION('',(0.,0.,1.));
#1344 = DIRECTION('',(1.,0.,0.));
#1345 = ADVANCED_FACE('',(#1346),#1349,.T.);
#1346 = FACE_BOUND('',#1347,.T.);
#1347 = EDGE_LOOP('',(#1348));
#1348 = ORIENTED_EDGE('',*,*,#1136,.T.);
#1349 = PLANE('',#1350);
#1350 = AXIS2_PLACEMENT_3D('',#1351,#1352,#1353);
#1351 = CARTESIAN_POINT('',(-36.57933603683,17.615679808173,30.));
#1352 = DIRECTION('',(0.,0.,1.));
#1353 = DIRECTION('',(0.900968867902,-0.433883739118,0.));
#1354 = ADVANCED_FACE('',(#1355),#1358,.T.);
#1355 = FACE_BOUND('',#1356,.T.);
#1356 = EDGE_LOOP('',(#1357));
#1357 = ORIENTED_EDGE('',*,*,#1161,.T.);
#1358 = PLANE('',#1359);
#1359 = AXIS2_PLACEMENT_3D('',#1360,#1361,#1362);
#1360 = CARTESIAN_POINT('',(-25.31368595546,31.742358188202,30.));
#1361 = DIRECTION('',(0.,0.,1.));
#1362 = DIRECTION('',(0.623489801859,-0.781831482468,0.));
#1363 = ADVANCED_FACE('',(#1364),#1367,.T.);
#1364 = FACE_BOUND('',#1365,.T.);
#1365 = EDGE_LOOP('',(#1366));
#1366 = ORIENTED_EDGE('',*,*,#1186,.T.);
#1367 = PLANE('',#1368);
#1368 = AXIS2_PLACEMENT_3D('',#1369,#1370,#1371);
#1369 = CARTESIAN_POINT('',(-9.034349918626,39.582073234582,30.));
#1370 = DIRECTION('',(0.,0.,1.));
#1371 = DIRECTION('',(0.222520933956,-0.974927912182,0.));
#1372 = ADVANCED_FACE('',(#1373),#1376,.T.);
#1373 = FACE_BOUND('',#1374,.T.);
#1374 = EDGE_LOOP('',(#1375));
#1375 = ORIENTED_EDGE('',*,*,#1211,.T.);
#1376 = PLANE('',#1377);
#1377 = AXIS2_PLACEMENT_3D('',#1378,#1379,#1380);
#1378 = CARTESIAN_POINT('',(36.579336036838,17.615679808173,30.));
#1379 = DIRECTION('',(0.,0.,1.));
#1380 = DIRECTION('',(-0.900968867902,-0.433883739118,0.));
#1381 = ADVANCED_FACE('',(#1382),#1385,.T.);
#1382 = FACE_BOUND('',#1383,.T.);
#1383 = EDGE_LOOP('',(#1384));
#1384 = ORIENTED_EDGE('',*,*,#1236,.T.);
#1385 = PLANE('',#1386);
#1386 = AXIS2_PLACEMENT_3D('',#1387,#1388,#1389);
#1387 = CARTESIAN_POINT('',(9.034349918626,39.582073234582,30.));
#1388 = DIRECTION('',(0.,0.,1.));
#1389 = DIRECTION('',(-0.222520933956,-0.974927912182,0.));
#1390 = ADVANCED_FACE('',(#1391),#1394,.T.);
#1391 = FACE_BOUND('',#1392,.T.);
#1392 = EDGE_LOOP('',(#1393));
#1393 = ORIENTED_EDGE('',*,*,#1261,.T.);
#1394 = PLANE('',#1395);
#1395 = AXIS2_PLACEMENT_3D('',#1396,#1397,#1398);
#1396 = CARTESIAN_POINT('',(25.313685955465,31.742358188202,30.));
#1397 = DIRECTION('',(0.,0.,1.));
#1398 = DIRECTION('',(-0.623489801859,-0.781831482468,0.));
#1399 = ADVANCED_FACE('',(#1400,#1403,#1406,#1417,#1428,#1439,#1450,
    #1461,#1472,#1483,#1494,#1505,#1516,#1527,#1538,#1549),#1560,.T.);
#1400 = FACE_BOUND('',#1401,.T.);
#1401 = EDGE_LOOP('',(#1402));
#1402 = ORIENTED_EDGE('',*,*,#203,.F.);
#1403 = FACE_BOUND('',#1404,.T.);
#1404 = EDGE_LOOP('',(#1405));
#1405 = ORIENTED_EDGE('',*,*,#912,.T.);
#1406 = FACE_BOUND('',#1407,.T.);
#1407 = EDGE_LOOP('',(#1408));
#1408 = ORIENTED_EDGE('',*,*,#1409,.T.);
#1409 = EDGE_CURVE('',#1410,#1410,#1412,.T.);
#1410 = VERTEX_POINT('',#1411);
#1411 = CARTESIAN_POINT('',(35.250406956682,-16.97570129297,0.));
#1412 = CIRCLE('',#1413,1.475);
#1413 = AXIS2_PLACEMENT_3D('',#1414,#1415,#1416);
#1414 = CARTESIAN_POINT('',(36.579336036838,-17.61567980817,0.));
#1415 = DIRECTION('',(0.,0.,1.));
#1416 = DIRECTION('',(-0.900968867902,0.433883739118,0.));
#1417 = FACE_BOUND('',#1418,.T.);
#1418 = EDGE_LOOP('',(#1419));
#1419 = ORIENTED_EDGE('',*,*,#1420,.T.);
#1420 = EDGE_CURVE('',#1421,#1421,#1423,.T.);
#1421 = VERTEX_POINT('',#1422);
#1422 = CARTESIAN_POINT('',(-24.39403849772,-30.58915675156,0.));
#1423 = CIRCLE('',#1424,1.475);
#1424 = AXIS2_PLACEMENT_3D('',#1425,#1426,#1427);
#1425 = CARTESIAN_POINT('',(-25.31368595546,-31.7423581882,0.));
#1426 = DIRECTION('',(0.,-0.,1.));
#1427 = DIRECTION('',(0.623489801859,0.781831482468,0.));
#1428 = FACE_BOUND('',#1429,.T.);
#1429 = EDGE_LOOP('',(#1430));
#1430 = ORIENTED_EDGE('',*,*,#1431,.T.);
#1431 = EDGE_CURVE('',#1432,#1432,#1434,.T.);
#1432 = VERTEX_POINT('',#1433);
#1433 = CARTESIAN_POINT('',(-35.25040695668,-16.97570129297,0.));
#1434 = CIRCLE('',#1435,1.475);
#1435 = AXIS2_PLACEMENT_3D('',#1436,#1437,#1438);
#1436 = CARTESIAN_POINT('',(-36.57933603683,-17.61567980817,0.));
#1437 = DIRECTION('',(0.,-0.,1.));
#1438 = DIRECTION('',(0.900968867902,0.433883739118,0.));
#1439 = FACE_BOUND('',#1440,.T.);
#1440 = EDGE_LOOP('',(#1441));
#1441 = ORIENTED_EDGE('',*,*,#1442,.T.);
#1442 = EDGE_CURVE('',#1443,#1443,#1445,.T.);
#1443 = VERTEX_POINT('',#1444);
#1444 = CARTESIAN_POINT('',(35.250406956682,16.975701292974,0.));
#1445 = CIRCLE('',#1446,1.475);
#1446 = AXIS2_PLACEMENT_3D('',#1447,#1448,#1449);
#1447 = CARTESIAN_POINT('',(36.579336036838,17.615679808173,0.));
#1448 = DIRECTION('',(0.,0.,1.));
#1449 = DIRECTION('',(-0.900968867902,-0.433883739118,0.));
#1450 = FACE_BOUND('',#1451,.T.);
#1451 = EDGE_LOOP('',(#1452));
#1452 = ORIENTED_EDGE('',*,*,#1453,.T.);
#1453 = EDGE_CURVE('',#1454,#1454,#1456,.T.);
#1454 = VERTEX_POINT('',#1455);
#1455 = CARTESIAN_POINT('',(-35.25040695668,16.975701292974,0.));
#1456 = CIRCLE('',#1457,1.475);
#1457 = AXIS2_PLACEMENT_3D('',#1458,#1459,#1460);
#1458 = CARTESIAN_POINT('',(-36.57933603683,17.615679808173,0.));
#1459 = DIRECTION('',(-0.,0.,1.));
#1460 = DIRECTION('',(0.900968867902,-0.433883739118,0.));
#1461 = FACE_BOUND('',#1462,.T.);
#1462 = EDGE_LOOP('',(#1463));
#1463 = ORIENTED_EDGE('',*,*,#1464,.T.);
#1464 = EDGE_CURVE('',#1465,#1465,#1467,.T.);
#1465 = VERTEX_POINT('',#1466);
#1466 = CARTESIAN_POINT('',(-39.125,0.,0.));
#1467 = CIRCLE('',#1468,1.475);
#1468 = AXIS2_PLACEMENT_3D('',#1469,#1470,#1471);
#1469 = CARTESIAN_POINT('',(-40.6,0.,0.));
#1470 = DIRECTION('',(0.,0.,1.));
#1471 = DIRECTION('',(1.,0.,0.));
#1472 = FACE_BOUND('',#1473,.T.);
#1473 = EDGE_LOOP('',(#1474));
#1474 = ORIENTED_EDGE('',*,*,#1475,.T.);
#1475 = EDGE_CURVE('',#1476,#1476,#1478,.T.);
#1476 = VERTEX_POINT('',#1477);
#1477 = CARTESIAN_POINT('',(39.125,-4.791430601664E-15,0.));
#1478 = CIRCLE('',#1479,1.475);
#1479 = AXIS2_PLACEMENT_3D('',#1480,#1481,#1482);
#1480 = CARTESIAN_POINT('',(40.6,-4.972066004538E-15,0.));
#1481 = DIRECTION('',(0.,0.,1.));
#1482 = DIRECTION('',(-1.,1.224646799147E-16,0.));
#1483 = FACE_BOUND('',#1484,.T.);
#1484 = EDGE_LOOP('',(#1485));
#1485 = ORIENTED_EDGE('',*,*,#1486,.T.);
#1486 = EDGE_CURVE('',#1487,#1487,#1489,.T.);
#1487 = VERTEX_POINT('',#1488);
#1488 = CARTESIAN_POINT('',(24.394038497723,-30.58915675156,0.));
#1489 = CIRCLE('',#1490,1.475);
#1490 = AXIS2_PLACEMENT_3D('',#1491,#1492,#1493);
#1491 = CARTESIAN_POINT('',(25.313685955465,-31.7423581882,0.));
#1492 = DIRECTION('',(0.,0.,1.));
#1493 = DIRECTION('',(-0.623489801859,0.781831482468,0.));
#1494 = FACE_BOUND('',#1495,.T.);
#1495 = EDGE_LOOP('',(#1496));
#1496 = ORIENTED_EDGE('',*,*,#1497,.T.);
#1497 = EDGE_CURVE('',#1498,#1498,#1500,.T.);
#1498 = VERTEX_POINT('',#1499);
#1499 = CARTESIAN_POINT('',(8.706131541041,-38.14405456411,0.));
#1500 = CIRCLE('',#1501,1.475);
#1501 = AXIS2_PLACEMENT_3D('',#1502,#1503,#1504);
#1502 = CARTESIAN_POINT('',(9.034349918626,-39.58207323458,0.));
#1503 = DIRECTION('',(0.,0.,1.));
#1504 = DIRECTION('',(-0.222520933956,0.974927912182,0.));
#1505 = FACE_BOUND('',#1506,.T.);
#1506 = EDGE_LOOP('',(#1507));
#1507 = ORIENTED_EDGE('',*,*,#1508,.T.);
#1508 = EDGE_CURVE('',#1509,#1509,#1511,.T.);
#1509 = VERTEX_POINT('',#1510);
#1510 = CARTESIAN_POINT('',(-8.706131541041,-38.14405456411,0.));
#1511 = CIRCLE('',#1512,1.475);
#1512 = AXIS2_PLACEMENT_3D('',#1513,#1514,#1515);
#1513 = CARTESIAN_POINT('',(-9.034349918626,-39.58207323458,0.));
#1514 = DIRECTION('',(0.,-0.,1.));
#1515 = DIRECTION('',(0.222520933956,0.974927912182,0.));
#1516 = FACE_BOUND('',#1517,.T.);
#1517 = EDGE_LOOP('',(#1518));
#1518 = ORIENTED_EDGE('',*,*,#1519,.T.);
#1519 = EDGE_CURVE('',#1520,#1520,#1522,.T.);
#1520 = VERTEX_POINT('',#1521);
#1521 = CARTESIAN_POINT('',(24.394038497723,30.589156751562,0.));
#1522 = CIRCLE('',#1523,1.475);
#1523 = AXIS2_PLACEMENT_3D('',#1524,#1525,#1526);
#1524 = CARTESIAN_POINT('',(25.313685955465,31.742358188202,0.));
#1525 = DIRECTION('',(0.,0.,1.));
#1526 = DIRECTION('',(-0.623489801859,-0.781831482468,0.));
#1527 = FACE_BOUND('',#1528,.T.);
#1528 = EDGE_LOOP('',(#1529));
#1529 = ORIENTED_EDGE('',*,*,#1530,.T.);
#1530 = EDGE_CURVE('',#1531,#1531,#1533,.T.);
#1531 = VERTEX_POINT('',#1532);
#1532 = CARTESIAN_POINT('',(8.706131541041,38.144054564114,0.));
#1533 = CIRCLE('',#1534,1.475);
#1534 = AXIS2_PLACEMENT_3D('',#1535,#1536,#1537);
#1535 = CARTESIAN_POINT('',(9.034349918626,39.582073234582,0.));
#1536 = DIRECTION('',(0.,0.,1.));
#1537 = DIRECTION('',(-0.222520933956,-0.974927912182,0.));
#1538 = FACE_BOUND('',#1539,.T.);
#1539 = EDGE_LOOP('',(#1540));
#1540 = ORIENTED_EDGE('',*,*,#1541,.T.);
#1541 = EDGE_CURVE('',#1542,#1542,#1544,.T.);
#1542 = VERTEX_POINT('',#1543);
#1543 = CARTESIAN_POINT('',(-8.706131541041,38.144054564114,0.));
#1544 = CIRCLE('',#1545,1.475);
#1545 = AXIS2_PLACEMENT_3D('',#1546,#1547,#1548);
#1546 = CARTESIAN_POINT('',(-9.034349918626,39.582073234582,0.));
#1547 = DIRECTION('',(-0.,0.,1.));
#1548 = DIRECTION('',(0.222520933956,-0.974927912182,0.));
#1549 = FACE_BOUND('',#1550,.T.);
#1550 = EDGE_LOOP('',(#1551));
#1551 = ORIENTED_EDGE('',*,*,#1552,.T.);
#1552 = EDGE_CURVE('',#1553,#1553,#1555,.T.);
#1553 = VERTEX_POINT('',#1554);
#1554 = CARTESIAN_POINT('',(-24.39403849772,30.589156751562,0.));
#1555 = CIRCLE('',#1556,1.475);
#1556 = AXIS2_PLACEMENT_3D('',#1557,#1558,#1559);
#1557 = CARTESIAN_POINT('',(-25.31368595546,31.742358188202,0.));
#1558 = DIRECTION('',(-0.,0.,1.));
#1559 = DIRECTION('',(0.623489801859,-0.781831482468,0.));
#1560 = PLANE('',#1561);
#1561 = AXIS2_PLACEMENT_3D('',#1562,#1563,#1564);
#1562 = CARTESIAN_POINT('',(-2.864427225004E-15,2.832503573728E-15,0.));
#1563 = DIRECTION('',(-0.,-0.,-1.));
#1564 = DIRECTION('',(-1.,0.,0.));
#1565 = ADVANCED_FACE('',(#1566),#1585,.F.);
#1566 = FACE_BOUND('',#1567,.T.);
#1567 = EDGE_LOOP('',(#1568,#1576,#1583,#1584));
#1568 = ORIENTED_EDGE('',*,*,#1569,.T.);
#1569 = EDGE_CURVE('',#1410,#1570,#1572,.T.);
#1570 = VERTEX_POINT('',#1571);
#1571 = CARTESIAN_POINT('',(35.250406956682,-16.97570129297,15.));
#1572 = LINE('',#1573,#1574);
#1573 = CARTESIAN_POINT('',(35.250406956682,-16.97570129297,0.));
#1574 = VECTOR('',#1575,1.);
#1575 = DIRECTION('',(0.,0.,1.));
#1576 = ORIENTED_EDGE('',*,*,#1577,.T.);
#1577 = EDGE_CURVE('',#1570,#1570,#1578,.T.);
#1578 = CIRCLE('',#1579,1.475);
#1579 = AXIS2_PLACEMENT_3D('',#1580,#1581,#1582);
#1580 = CARTESIAN_POINT('',(36.579336036838,-17.61567980817,15.));
#1581 = DIRECTION('',(0.,0.,1.));
#1582 = DIRECTION('',(-0.900968867902,0.433883739118,0.));
#1583 = ORIENTED_EDGE('',*,*,#1569,.F.);
#1584 = ORIENTED_EDGE('',*,*,#1409,.F.);
#1585 = CYLINDRICAL_SURFACE('',#1586,1.475);
#1586 = AXIS2_PLACEMENT_3D('',#1587,#1588,#1589);
#1587 = CARTESIAN_POINT('',(36.579336036838,-17.61567980817,0.));
#1588 = DIRECTION('',(0.,0.,-1.));
#1589 = DIRECTION('',(-0.900968867902,0.433883739118,0.));
#1590 = ADVANCED_FACE('',(#1591),#1594,.F.);
#1591 = FACE_BOUND('',#1592,.F.);
#1592 = EDGE_LOOP('',(#1593));
#1593 = ORIENTED_EDGE('',*,*,#1577,.T.);
#1594 = PLANE('',#1595);
#1595 = AXIS2_PLACEMENT_3D('',#1596,#1597,#1598);
#1596 = CARTESIAN_POINT('',(36.579336036838,-17.61567980817,15.));
#1597 = DIRECTION('',(0.,0.,1.));
#1598 = DIRECTION('',(-0.900968867902,0.433883739118,0.));
#1599 = ADVANCED_FACE('',(#1600),#1619,.F.);
#1600 = FACE_BOUND('',#1601,.T.);
#1601 = EDGE_LOOP('',(#1602,#1610,#1617,#1618));
#1602 = ORIENTED_EDGE('',*,*,#1603,.T.);
#1603 = EDGE_CURVE('',#1421,#1604,#1606,.T.);
#1604 = VERTEX_POINT('',#1605);
#1605 = CARTESIAN_POINT('',(-24.39403849772,-30.58915675156,15.));
#1606 = LINE('',#1607,#1608);
#1607 = CARTESIAN_POINT('',(-24.39403849772,-30.58915675156,0.));
#1608 = VECTOR('',#1609,1.);
#1609 = DIRECTION('',(0.,0.,1.));
#1610 = ORIENTED_EDGE('',*,*,#1611,.T.);
#1611 = EDGE_CURVE('',#1604,#1604,#1612,.T.);
#1612 = CIRCLE('',#1613,1.475);
#1613 = AXIS2_PLACEMENT_3D('',#1614,#1615,#1616);
#1614 = CARTESIAN_POINT('',(-25.31368595546,-31.7423581882,15.));
#1615 = DIRECTION('',(0.,-0.,1.));
#1616 = DIRECTION('',(0.623489801859,0.781831482468,0.));
#1617 = ORIENTED_EDGE('',*,*,#1603,.F.);
#1618 = ORIENTED_EDGE('',*,*,#1420,.F.);
#1619 = CYLINDRICAL_SURFACE('',#1620,1.475);
#1620 = AXIS2_PLACEMENT_3D('',#1621,#1622,#1623);
#1621 = CARTESIAN_POINT('',(-25.31368595546,-31.7423581882,0.));
#1622 = DIRECTION('',(0.,-0.,-1.));
#1623 = DIRECTION('',(0.623489801859,0.781831482468,0.));
#1624 = ADVANCED_FACE('',(#1625),#1628,.F.);
#1625 = FACE_BOUND('',#1626,.F.);
#1626 = EDGE_LOOP('',(#1627));
#1627 = ORIENTED_EDGE('',*,*,#1611,.T.);
#1628 = PLANE('',#1629);
#1629 = AXIS2_PLACEMENT_3D('',#1630,#1631,#1632);
#1630 = CARTESIAN_POINT('',(-25.31368595546,-31.7423581882,15.));
#1631 = DIRECTION('',(0.,0.,1.));
#1632 = DIRECTION('',(0.623489801859,0.781831482468,0.));
#1633 = ADVANCED_FACE('',(#1634),#1653,.F.);
#1634 = FACE_BOUND('',#1635,.T.);
#1635 = EDGE_LOOP('',(#1636,#1644,#1651,#1652));
#1636 = ORIENTED_EDGE('',*,*,#1637,.T.);
#1637 = EDGE_CURVE('',#1432,#1638,#1640,.T.);
#1638 = VERTEX_POINT('',#1639);
#1639 = CARTESIAN_POINT('',(-35.25040695668,-16.97570129297,15.));
#1640 = LINE('',#1641,#1642);
#1641 = CARTESIAN_POINT('',(-35.25040695668,-16.97570129297,0.));
#1642 = VECTOR('',#1643,1.);
#1643 = DIRECTION('',(0.,0.,1.));
#1644 = ORIENTED_EDGE('',*,*,#1645,.T.);
#1645 = EDGE_CURVE('',#1638,#1638,#1646,.T.);
#1646 = CIRCLE('',#1647,1.475);
#1647 = AXIS2_PLACEMENT_3D('',#1648,#1649,#1650);
#1648 = CARTESIAN_POINT('',(-36.57933603683,-17.61567980817,15.));
#1649 = DIRECTION('',(0.,-0.,1.));
#1650 = DIRECTION('',(0.900968867902,0.433883739118,0.));
#1651 = ORIENTED_EDGE('',*,*,#1637,.F.);
#1652 = ORIENTED_EDGE('',*,*,#1431,.F.);
#1653 = CYLINDRICAL_SURFACE('',#1654,1.475);
#1654 = AXIS2_PLACEMENT_3D('',#1655,#1656,#1657);
#1655 = CARTESIAN_POINT('',(-36.57933603683,-17.61567980817,0.));
#1656 = DIRECTION('',(0.,0.,-1.));
#1657 = DIRECTION('',(0.900968867902,0.433883739118,0.));
#1658 = ADVANCED_FACE('',(#1659),#1662,.F.);
#1659 = FACE_BOUND('',#1660,.F.);
#1660 = EDGE_LOOP('',(#1661));
#1661 = ORIENTED_EDGE('',*,*,#1645,.T.);
#1662 = PLANE('',#1663);
#1663 = AXIS2_PLACEMENT_3D('',#1664,#1665,#1666);
#1664 = CARTESIAN_POINT('',(-36.57933603683,-17.61567980817,15.));
#1665 = DIRECTION('',(0.,0.,1.));
#1666 = DIRECTION('',(0.900968867902,0.433883739118,0.));
#1667 = ADVANCED_FACE('',(#1668),#1687,.F.);
#1668 = FACE_BOUND('',#1669,.T.);
#1669 = EDGE_LOOP('',(#1670,#1678,#1685,#1686));
#1670 = ORIENTED_EDGE('',*,*,#1671,.T.);
#1671 = EDGE_CURVE('',#1443,#1672,#1674,.T.);
#1672 = VERTEX_POINT('',#1673);
#1673 = CARTESIAN_POINT('',(35.250406956682,16.975701292974,15.));
#1674 = LINE('',#1675,#1676);
#1675 = CARTESIAN_POINT('',(35.250406956682,16.975701292974,0.));
#1676 = VECTOR('',#1677,1.);
#1677 = DIRECTION('',(0.,0.,1.));
#1678 = ORIENTED_EDGE('',*,*,#1679,.T.);
#1679 = EDGE_CURVE('',#1672,#1672,#1680,.T.);
#1680 = CIRCLE('',#1681,1.475);
#1681 = AXIS2_PLACEMENT_3D('',#1682,#1683,#1684);
#1682 = CARTESIAN_POINT('',(36.579336036838,17.615679808173,15.));
#1683 = DIRECTION('',(0.,0.,1.));
#1684 = DIRECTION('',(-0.900968867902,-0.433883739118,0.));
#1685 = ORIENTED_EDGE('',*,*,#1671,.F.);
#1686 = ORIENTED_EDGE('',*,*,#1442,.F.);
#1687 = CYLINDRICAL_SURFACE('',#1688,1.475);
#1688 = AXIS2_PLACEMENT_3D('',#1689,#1690,#1691);
#1689 = CARTESIAN_POINT('',(36.579336036838,17.615679808173,0.));
#1690 = DIRECTION('',(0.,0.,-1.));
#1691 = DIRECTION('',(-0.900968867902,-0.433883739118,0.));
#1692 = ADVANCED_FACE('',(#1693),#1696,.F.);
#1693 = FACE_BOUND('',#1694,.F.);
#1694 = EDGE_LOOP('',(#1695));
#1695 = ORIENTED_EDGE('',*,*,#1679,.T.);
#1696 = PLANE('',#1697);
#1697 = AXIS2_PLACEMENT_3D('',#1698,#1699,#1700);
#1698 = CARTESIAN_POINT('',(36.579336036838,17.615679808173,15.));
#1699 = DIRECTION('',(0.,0.,1.));
#1700 = DIRECTION('',(-0.900968867902,-0.433883739118,0.));
#1701 = ADVANCED_FACE('',(#1702),#1721,.F.);
#1702 = FACE_BOUND('',#1703,.T.);
#1703 = EDGE_LOOP('',(#1704,#1712,#1719,#1720));
#1704 = ORIENTED_EDGE('',*,*,#1705,.T.);
#1705 = EDGE_CURVE('',#1454,#1706,#1708,.T.);
#1706 = VERTEX_POINT('',#1707);
#1707 = CARTESIAN_POINT('',(-35.25040695668,16.975701292974,15.));
#1708 = LINE('',#1709,#1710);
#1709 = CARTESIAN_POINT('',(-35.25040695668,16.975701292974,0.));
#1710 = VECTOR('',#1711,1.);
#1711 = DIRECTION('',(0.,0.,1.));
#1712 = ORIENTED_EDGE('',*,*,#1713,.T.);
#1713 = EDGE_CURVE('',#1706,#1706,#1714,.T.);
#1714 = CIRCLE('',#1715,1.475);
#1715 = AXIS2_PLACEMENT_3D('',#1716,#1717,#1718);
#1716 = CARTESIAN_POINT('',(-36.57933603683,17.615679808173,15.));
#1717 = DIRECTION('',(-0.,0.,1.));
#1718 = DIRECTION('',(0.900968867902,-0.433883739118,0.));
#1719 = ORIENTED_EDGE('',*,*,#1705,.F.);
#1720 = ORIENTED_EDGE('',*,*,#1453,.F.);
#1721 = CYLINDRICAL_SURFACE('',#1722,1.475);
#1722 = AXIS2_PLACEMENT_3D('',#1723,#1724,#1725);
#1723 = CARTESIAN_POINT('',(-36.57933603683,17.615679808173,0.));
#1724 = DIRECTION('',(0.,0.,-1.));
#1725 = DIRECTION('',(0.900968867902,-0.433883739118,0.));
#1726 = ADVANCED_FACE('',(#1727),#1730,.F.);
#1727 = FACE_BOUND('',#1728,.F.);
#1728 = EDGE_LOOP('',(#1729));
#1729 = ORIENTED_EDGE('',*,*,#1713,.T.);
#1730 = PLANE('',#1731);
#1731 = AXIS2_PLACEMENT_3D('',#1732,#1733,#1734);
#1732 = CARTESIAN_POINT('',(-36.57933603683,17.615679808173,15.));
#1733 = DIRECTION('',(0.,0.,1.));
#1734 = DIRECTION('',(0.900968867902,-0.433883739118,0.));
#1735 = ADVANCED_FACE('',(#1736),#1755,.F.);
#1736 = FACE_BOUND('',#1737,.T.);
#1737 = EDGE_LOOP('',(#1738,#1746,#1753,#1754));
#1738 = ORIENTED_EDGE('',*,*,#1739,.T.);
#1739 = EDGE_CURVE('',#1465,#1740,#1742,.T.);
#1740 = VERTEX_POINT('',#1741);
#1741 = CARTESIAN_POINT('',(-39.125,0.,15.));
#1742 = LINE('',#1743,#1744);
#1743 = CARTESIAN_POINT('',(-39.125,0.,0.));
#1744 = VECTOR('',#1745,1.);
#1745 = DIRECTION('',(0.,0.,1.));
#1746 = ORIENTED_EDGE('',*,*,#1747,.T.);
#1747 = EDGE_CURVE('',#1740,#1740,#1748,.T.);
#1748 = CIRCLE('',#1749,1.475);
#1749 = AXIS2_PLACEMENT_3D('',#1750,#1751,#1752);
#1750 = CARTESIAN_POINT('',(-40.6,0.,15.));
#1751 = DIRECTION('',(0.,0.,1.));
#1752 = DIRECTION('',(1.,0.,0.));
#1753 = ORIENTED_EDGE('',*,*,#1739,.F.);
#1754 = ORIENTED_EDGE('',*,*,#1464,.F.);
#1755 = CYLINDRICAL_SURFACE('',#1756,1.475);
#1756 = AXIS2_PLACEMENT_3D('',#1757,#1758,#1759);
#1757 = CARTESIAN_POINT('',(-40.6,0.,0.));
#1758 = DIRECTION('',(-0.,-0.,-1.));
#1759 = DIRECTION('',(1.,0.,0.));
#1760 = ADVANCED_FACE('',(#1761),#1764,.F.);
#1761 = FACE_BOUND('',#1762,.F.);
#1762 = EDGE_LOOP('',(#1763));
#1763 = ORIENTED_EDGE('',*,*,#1747,.T.);
#1764 = PLANE('',#1765);
#1765 = AXIS2_PLACEMENT_3D('',#1766,#1767,#1768);
#1766 = CARTESIAN_POINT('',(-40.6,-3.40762890335E-16,15.));
#1767 = DIRECTION('',(0.,0.,1.));
#1768 = DIRECTION('',(1.,0.,0.));
#1769 = ADVANCED_FACE('',(#1770),#1789,.F.);
#1770 = FACE_BOUND('',#1771,.T.);
#1771 = EDGE_LOOP('',(#1772,#1780,#1787,#1788));
#1772 = ORIENTED_EDGE('',*,*,#1773,.T.);
#1773 = EDGE_CURVE('',#1476,#1774,#1776,.T.);
#1774 = VERTEX_POINT('',#1775);
#1775 = CARTESIAN_POINT('',(39.125,-4.791430601664E-15,15.));
#1776 = LINE('',#1777,#1778);
#1777 = CARTESIAN_POINT('',(39.125,-4.791430601664E-15,0.));
#1778 = VECTOR('',#1779,1.);
#1779 = DIRECTION('',(0.,0.,1.));
#1780 = ORIENTED_EDGE('',*,*,#1781,.T.);
#1781 = EDGE_CURVE('',#1774,#1774,#1782,.T.);
#1782 = CIRCLE('',#1783,1.475);
#1783 = AXIS2_PLACEMENT_3D('',#1784,#1785,#1786);
#1784 = CARTESIAN_POINT('',(40.6,-4.972066004538E-15,15.));
#1785 = DIRECTION('',(0.,0.,1.));
#1786 = DIRECTION('',(-1.,1.224646799147E-16,0.));
#1787 = ORIENTED_EDGE('',*,*,#1773,.F.);
#1788 = ORIENTED_EDGE('',*,*,#1475,.F.);
#1789 = CYLINDRICAL_SURFACE('',#1790,1.475);
#1790 = AXIS2_PLACEMENT_3D('',#1791,#1792,#1793);
#1791 = CARTESIAN_POINT('',(40.6,-4.972066004538E-15,0.));
#1792 = DIRECTION('',(0.,0.,-1.));
#1793 = DIRECTION('',(-1.,1.224646799147E-16,0.));
#1794 = ADVANCED_FACE('',(#1795),#1798,.F.);
#1795 = FACE_BOUND('',#1796,.F.);
#1796 = EDGE_LOOP('',(#1797));
#1797 = ORIENTED_EDGE('',*,*,#1781,.T.);
#1798 = PLANE('',#1799);
#1799 = AXIS2_PLACEMENT_3D('',#1800,#1801,#1802);
#1800 = CARTESIAN_POINT('',(40.6,-4.631303114203E-15,15.));
#1801 = DIRECTION('',(0.,0.,1.));
#1802 = DIRECTION('',(-1.,1.224646799147E-16,0.));
#1803 = ADVANCED_FACE('',(#1804),#1823,.F.);
#1804 = FACE_BOUND('',#1805,.T.);
#1805 = EDGE_LOOP('',(#1806,#1814,#1821,#1822));
#1806 = ORIENTED_EDGE('',*,*,#1807,.T.);
#1807 = EDGE_CURVE('',#1487,#1808,#1810,.T.);
#1808 = VERTEX_POINT('',#1809);
#1809 = CARTESIAN_POINT('',(24.394038497723,-30.58915675156,15.));
#1810 = LINE('',#1811,#1812);
#1811 = CARTESIAN_POINT('',(24.394038497723,-30.58915675156,0.));
#1812 = VECTOR('',#1813,1.);
#1813 = DIRECTION('',(0.,0.,1.));
#1814 = ORIENTED_EDGE('',*,*,#1815,.T.);
#1815 = EDGE_CURVE('',#1808,#1808,#1816,.T.);
#1816 = CIRCLE('',#1817,1.475);
#1817 = AXIS2_PLACEMENT_3D('',#1818,#1819,#1820);
#1818 = CARTESIAN_POINT('',(25.313685955465,-31.7423581882,15.));
#1819 = DIRECTION('',(0.,0.,1.));
#1820 = DIRECTION('',(-0.623489801859,0.781831482468,0.));
#1821 = ORIENTED_EDGE('',*,*,#1807,.F.);
#1822 = ORIENTED_EDGE('',*,*,#1486,.F.);
#1823 = CYLINDRICAL_SURFACE('',#1824,1.475);
#1824 = AXIS2_PLACEMENT_3D('',#1825,#1826,#1827);
#1825 = CARTESIAN_POINT('',(25.313685955465,-31.7423581882,0.));
#1826 = DIRECTION('',(-0.,0.,-1.));
#1827 = DIRECTION('',(-0.623489801859,0.781831482468,0.));
#1828 = ADVANCED_FACE('',(#1829),#1832,.F.);
#1829 = FACE_BOUND('',#1830,.F.);
#1830 = EDGE_LOOP('',(#1831));
#1831 = ORIENTED_EDGE('',*,*,#1815,.T.);
#1832 = PLANE('',#1833);
#1833 = AXIS2_PLACEMENT_3D('',#1834,#1835,#1836);
#1834 = CARTESIAN_POINT('',(25.313685955465,-31.7423581882,15.));
#1835 = DIRECTION('',(0.,0.,1.));
#1836 = DIRECTION('',(-0.623489801859,0.781831482468,0.));
#1837 = ADVANCED_FACE('',(#1838),#1857,.F.);
#1838 = FACE_BOUND('',#1839,.T.);
#1839 = EDGE_LOOP('',(#1840,#1848,#1855,#1856));
#1840 = ORIENTED_EDGE('',*,*,#1841,.T.);
#1841 = EDGE_CURVE('',#1498,#1842,#1844,.T.);
#1842 = VERTEX_POINT('',#1843);
#1843 = CARTESIAN_POINT('',(8.706131541041,-38.14405456411,15.));
#1844 = LINE('',#1845,#1846);
#1845 = CARTESIAN_POINT('',(8.706131541041,-38.14405456411,0.));
#1846 = VECTOR('',#1847,1.);
#1847 = DIRECTION('',(0.,0.,1.));
#1848 = ORIENTED_EDGE('',*,*,#1849,.T.);
#1849 = EDGE_CURVE('',#1842,#1842,#1850,.T.);
#1850 = CIRCLE('',#1851,1.475);
#1851 = AXIS2_PLACEMENT_3D('',#1852,#1853,#1854);
#1852 = CARTESIAN_POINT('',(9.034349918626,-39.58207323458,15.));
#1853 = DIRECTION('',(0.,0.,1.));
#1854 = DIRECTION('',(-0.222520933956,0.974927912182,0.));
#1855 = ORIENTED_EDGE('',*,*,#1841,.F.);
#1856 = ORIENTED_EDGE('',*,*,#1497,.F.);
#1857 = CYLINDRICAL_SURFACE('',#1858,1.475);
#1858 = AXIS2_PLACEMENT_3D('',#1859,#1860,#1861);
#1859 = CARTESIAN_POINT('',(9.034349918626,-39.58207323458,0.));
#1860 = DIRECTION('',(-0.,0.,-1.));
#1861 = DIRECTION('',(-0.222520933956,0.974927912182,0.));
#1862 = ADVANCED_FACE('',(#1863),#1866,.F.);
#1863 = FACE_BOUND('',#1864,.F.);
#1864 = EDGE_LOOP('',(#1865));
#1865 = ORIENTED_EDGE('',*,*,#1849,.T.);
#1866 = PLANE('',#1867);
#1867 = AXIS2_PLACEMENT_3D('',#1868,#1869,#1870);
#1868 = CARTESIAN_POINT('',(9.034349918626,-39.58207323458,15.));
#1869 = DIRECTION('',(0.,0.,1.));
#1870 = DIRECTION('',(-0.222520933956,0.974927912182,0.));
#1871 = ADVANCED_FACE('',(#1872),#1891,.F.);
#1872 = FACE_BOUND('',#1873,.T.);
#1873 = EDGE_LOOP('',(#1874,#1882,#1889,#1890));
#1874 = ORIENTED_EDGE('',*,*,#1875,.T.);
#1875 = EDGE_CURVE('',#1509,#1876,#1878,.T.);
#1876 = VERTEX_POINT('',#1877);
#1877 = CARTESIAN_POINT('',(-8.706131541041,-38.14405456411,15.));
#1878 = LINE('',#1879,#1880);
#1879 = CARTESIAN_POINT('',(-8.706131541041,-38.14405456411,0.));
#1880 = VECTOR('',#1881,1.);
#1881 = DIRECTION('',(0.,0.,1.));
#1882 = ORIENTED_EDGE('',*,*,#1883,.T.);
#1883 = EDGE_CURVE('',#1876,#1876,#1884,.T.);
#1884 = CIRCLE('',#1885,1.475);
#1885 = AXIS2_PLACEMENT_3D('',#1886,#1887,#1888);
#1886 = CARTESIAN_POINT('',(-9.034349918626,-39.58207323458,15.));
#1887 = DIRECTION('',(0.,-0.,1.));
#1888 = DIRECTION('',(0.222520933956,0.974927912182,0.));
#1889 = ORIENTED_EDGE('',*,*,#1875,.F.);
#1890 = ORIENTED_EDGE('',*,*,#1508,.F.);
#1891 = CYLINDRICAL_SURFACE('',#1892,1.475);
#1892 = AXIS2_PLACEMENT_3D('',#1893,#1894,#1895);
#1893 = CARTESIAN_POINT('',(-9.034349918626,-39.58207323458,0.));
#1894 = DIRECTION('',(0.,-0.,-1.));
#1895 = DIRECTION('',(0.222520933956,0.974927912182,0.));
#1896 = ADVANCED_FACE('',(#1897),#1900,.F.);
#1897 = FACE_BOUND('',#1898,.F.);
#1898 = EDGE_LOOP('',(#1899));
#1899 = ORIENTED_EDGE('',*,*,#1883,.T.);
#1900 = PLANE('',#1901);
#1901 = AXIS2_PLACEMENT_3D('',#1902,#1903,#1904);
#1902 = CARTESIAN_POINT('',(-9.034349918626,-39.58207323458,15.));
#1903 = DIRECTION('',(0.,0.,1.));
#1904 = DIRECTION('',(0.222520933956,0.974927912182,0.));
#1905 = ADVANCED_FACE('',(#1906),#1925,.F.);
#1906 = FACE_BOUND('',#1907,.T.);
#1907 = EDGE_LOOP('',(#1908,#1916,#1923,#1924));
#1908 = ORIENTED_EDGE('',*,*,#1909,.T.);
#1909 = EDGE_CURVE('',#1520,#1910,#1912,.T.);
#1910 = VERTEX_POINT('',#1911);
#1911 = CARTESIAN_POINT('',(24.394038497723,30.589156751562,15.));
#1912 = LINE('',#1913,#1914);
#1913 = CARTESIAN_POINT('',(24.394038497723,30.589156751562,0.));
#1914 = VECTOR('',#1915,1.);
#1915 = DIRECTION('',(0.,0.,1.));
#1916 = ORIENTED_EDGE('',*,*,#1917,.T.);
#1917 = EDGE_CURVE('',#1910,#1910,#1918,.T.);
#1918 = CIRCLE('',#1919,1.475);
#1919 = AXIS2_PLACEMENT_3D('',#1920,#1921,#1922);
#1920 = CARTESIAN_POINT('',(25.313685955465,31.742358188202,15.));
#1921 = DIRECTION('',(0.,0.,1.));
#1922 = DIRECTION('',(-0.623489801859,-0.781831482468,0.));
#1923 = ORIENTED_EDGE('',*,*,#1909,.F.);
#1924 = ORIENTED_EDGE('',*,*,#1519,.F.);
#1925 = CYLINDRICAL_SURFACE('',#1926,1.475);
#1926 = AXIS2_PLACEMENT_3D('',#1927,#1928,#1929);
#1927 = CARTESIAN_POINT('',(25.313685955465,31.742358188202,0.));
#1928 = DIRECTION('',(0.,0.,-1.));
#1929 = DIRECTION('',(-0.623489801859,-0.781831482468,0.));
#1930 = ADVANCED_FACE('',(#1931),#1934,.F.);
#1931 = FACE_BOUND('',#1932,.F.);
#1932 = EDGE_LOOP('',(#1933));
#1933 = ORIENTED_EDGE('',*,*,#1917,.T.);
#1934 = PLANE('',#1935);
#1935 = AXIS2_PLACEMENT_3D('',#1936,#1937,#1938);
#1936 = CARTESIAN_POINT('',(25.313685955465,31.742358188202,15.));
#1937 = DIRECTION('',(0.,0.,1.));
#1938 = DIRECTION('',(-0.623489801859,-0.781831482468,0.));
#1939 = ADVANCED_FACE('',(#1940),#1959,.F.);
#1940 = FACE_BOUND('',#1941,.T.);
#1941 = EDGE_LOOP('',(#1942,#1950,#1957,#1958));
#1942 = ORIENTED_EDGE('',*,*,#1943,.T.);
#1943 = EDGE_CURVE('',#1531,#1944,#1946,.T.);
#1944 = VERTEX_POINT('',#1945);
#1945 = CARTESIAN_POINT('',(8.706131541041,38.144054564114,15.));
#1946 = LINE('',#1947,#1948);
#1947 = CARTESIAN_POINT('',(8.706131541041,38.144054564114,0.));
#1948 = VECTOR('',#1949,1.);
#1949 = DIRECTION('',(0.,0.,1.));
#1950 = ORIENTED_EDGE('',*,*,#1951,.T.);
#1951 = EDGE_CURVE('',#1944,#1944,#1952,.T.);
#1952 = CIRCLE('',#1953,1.475);
#1953 = AXIS2_PLACEMENT_3D('',#1954,#1955,#1956);
#1954 = CARTESIAN_POINT('',(9.034349918626,39.582073234582,15.));
#1955 = DIRECTION('',(0.,0.,1.));
#1956 = DIRECTION('',(-0.222520933956,-0.974927912182,0.));
#1957 = ORIENTED_EDGE('',*,*,#1943,.F.);
#1958 = ORIENTED_EDGE('',*,*,#1530,.F.);
#1959 = CYLINDRICAL_SURFACE('',#1960,1.475);
#1960 = AXIS2_PLACEMENT_3D('',#1961,#1962,#1963);
#1961 = CARTESIAN_POINT('',(9.034349918626,39.582073234582,0.));
#1962 = DIRECTION('',(0.,0.,-1.));
#1963 = DIRECTION('',(-0.222520933956,-0.974927912182,0.));
#1964 = ADVANCED_FACE('',(#1965),#1968,.F.);
#1965 = FACE_BOUND('',#1966,.F.);
#1966 = EDGE_LOOP('',(#1967));
#1967 = ORIENTED_EDGE('',*,*,#1951,.T.);
#1968 = PLANE('',#1969);
#1969 = AXIS2_PLACEMENT_3D('',#1970,#1971,#1972);
#1970 = CARTESIAN_POINT('',(9.034349918626,39.582073234582,15.));
#1971 = DIRECTION('',(0.,0.,1.));
#1972 = DIRECTION('',(-0.222520933956,-0.974927912182,0.));
#1973 = ADVANCED_FACE('',(#1974),#1993,.F.);
#1974 = FACE_BOUND('',#1975,.T.);
#1975 = EDGE_LOOP('',(#1976,#1984,#1991,#1992));
#1976 = ORIENTED_EDGE('',*,*,#1977,.T.);
#1977 = EDGE_CURVE('',#1542,#1978,#1980,.T.);
#1978 = VERTEX_POINT('',#1979);
#1979 = CARTESIAN_POINT('',(-8.706131541041,38.144054564114,15.));
#1980 = LINE('',#1981,#1982);
#1981 = CARTESIAN_POINT('',(-8.706131541041,38.144054564114,0.));
#1982 = VECTOR('',#1983,1.);
#1983 = DIRECTION('',(0.,0.,1.));
#1984 = ORIENTED_EDGE('',*,*,#1985,.T.);
#1985 = EDGE_CURVE('',#1978,#1978,#1986,.T.);
#1986 = CIRCLE('',#1987,1.475);
#1987 = AXIS2_PLACEMENT_3D('',#1988,#1989,#1990);
#1988 = CARTESIAN_POINT('',(-9.034349918626,39.582073234582,15.));
#1989 = DIRECTION('',(-0.,0.,1.));
#1990 = DIRECTION('',(0.222520933956,-0.974927912182,0.));
#1991 = ORIENTED_EDGE('',*,*,#1977,.F.);
#1992 = ORIENTED_EDGE('',*,*,#1541,.F.);
#1993 = CYLINDRICAL_SURFACE('',#1994,1.475);
#1994 = AXIS2_PLACEMENT_3D('',#1995,#1996,#1997);
#1995 = CARTESIAN_POINT('',(-9.034349918626,39.582073234582,0.));
#1996 = DIRECTION('',(0.,0.,-1.));
#1997 = DIRECTION('',(0.222520933956,-0.974927912182,0.));
#1998 = ADVANCED_FACE('',(#1999),#2002,.F.);
#1999 = FACE_BOUND('',#2000,.F.);
#2000 = EDGE_LOOP('',(#2001));
#2001 = ORIENTED_EDGE('',*,*,#1985,.T.);
#2002 = PLANE('',#2003);
#2003 = AXIS2_PLACEMENT_3D('',#2004,#2005,#2006);
#2004 = CARTESIAN_POINT('',(-9.034349918626,39.582073234582,15.));
#2005 = DIRECTION('',(0.,0.,1.));
#2006 = DIRECTION('',(0.222520933956,-0.974927912182,0.));
#2007 = ADVANCED_FACE('',(#2008),#2027,.F.);
#2008 = FACE_BOUND('',#2009,.T.);
#2009 = EDGE_LOOP('',(#2010,#2018,#2025,#2026));
#2010 = ORIENTED_EDGE('',*,*,#2011,.T.);
#2011 = EDGE_CURVE('',#1553,#2012,#2014,.T.);
#2012 = VERTEX_POINT('',#2013);
#2013 = CARTESIAN_POINT('',(-24.39403849772,30.589156751562,15.));
#2014 = LINE('',#2015,#2016);
#2015 = CARTESIAN_POINT('',(-24.39403849772,30.589156751562,0.));
#2016 = VECTOR('',#2017,1.);
#2017 = DIRECTION('',(0.,0.,1.));
#2018 = ORIENTED_EDGE('',*,*,#2019,.T.);
#2019 = EDGE_CURVE('',#2012,#2012,#2020,.T.);
#2020 = CIRCLE('',#2021,1.475);
#2021 = AXIS2_PLACEMENT_3D('',#2022,#2023,#2024);
#2022 = CARTESIAN_POINT('',(-25.31368595546,31.742358188202,15.));
#2023 = DIRECTION('',(-0.,0.,1.));
#2024 = DIRECTION('',(0.623489801859,-0.781831482468,0.));
#2025 = ORIENTED_EDGE('',*,*,#2011,.F.);
#2026 = ORIENTED_EDGE('',*,*,#1552,.F.);
#2027 = CYLINDRICAL_SURFACE('',#2028,1.475);
#2028 = AXIS2_PLACEMENT_3D('',#2029,#2030,#2031);
#2029 = CARTESIAN_POINT('',(-25.31368595546,31.742358188202,0.));
#2030 = DIRECTION('',(0.,0.,-1.));
#2031 = DIRECTION('',(0.623489801859,-0.781831482468,0.));
#2032 = ADVANCED_FACE('',(#2033),#2036,.F.);
#2033 = FACE_BOUND('',#2034,.F.);
#2034 = EDGE_LOOP('',(#2035));
#2035 = ORIENTED_EDGE('',*,*,#2019,.T.);
#2036 = PLANE('',#2037);
#2037 = AXIS2_PLACEMENT_3D('',#2038,#2039,#2040);
#2038 = CARTESIAN_POINT('',(-25.31368595546,31.742358188202,15.));
#2039 = DIRECTION('',(0.,0.,1.));
#2040 = DIRECTION('',(0.623489801859,-0.781831482468,0.));
#2041 = ( GEOMETRIC_REPRESENTATION_CONTEXT(3) 
GLOBAL_UNCERTAINTY_ASSIGNED_CONTEXT((#2045)) 
GLOBAL_UNIT_ASSIGNED_CONTEXT((#2042,#2043,#2044)) REPRESENTATION_CONTEXT
('Context #1','3D Context with UNIT and UNCERTAINTY') );
#2042 = ( LENGTH_UNIT() NAMED_UNIT(*) SI_UNIT(.MILLI.,.METRE.) );
#2043 = ( NAMED_UNIT(*) PLANE_ANGLE_UNIT() SI_UNIT($,.RADIAN.) );
#2044 = ( NAMED_UNIT(*) SI_UNIT($,.STERADIAN.) SOLID_ANGLE_UNIT() );
#2045 = UNCERTAINTY_MEASURE_WITH_UNIT(LENGTH_MEASURE(2.E-07),#2042,
  'distance_accuracy_value','confusion accuracy');
#2046 = PRODUCT_RELATED_PRODUCT_CATEGORY('part',$,(#7));
ENDSEC;
END-ISO-10303-21;
