ISO-10303-21;
HEADER;
FILE_DESCRIPTION(('FreeCAD Model'),'2;1');
FILE_NAME('Open CASCADE Shape Model','2026-05-26T02:31:15',('Author'),(
    ''),'Open CASCADE STEP processor 7.8','FreeCAD','Unknown');
FILE_SCHEMA(('AUTOMOTIVE_DESIGN { 1 0 10303 214 1 1 1 1 }'));
ENDSEC;
DATA;
#1 = APPLICATION_PROTOCOL_DEFINITION('international standard',
  'automotive_design',2000,#2);
#2 = APPLICATION_CONTEXT(
  'core data for automotive mechanical design processes');
#3 = SHAPE_DEFINITION_REPRESENTATION(#4,#10);
#4 = PRODUCT_DEFINITION_SHAPE('','',#5);
#5 = PRODUCT_DEFINITION('design','',#6,#9);
#6 = PRODUCT_DEFINITION_FORMATION('','',#7);
#7 = PRODUCT('pinDisk','pinDisk','',(#8));
#8 = PRODUCT_CONTEXT('',#2,'mechanical');
#9 = PRODUCT_DEFINITION_CONTEXT('part definition',#2,'design');
#10 = ADVANCED_BREP_SHAPE_REPRESENTATION('',(#11,#15),#1771);
#11 = AXIS2_PLACEMENT_3D('',#12,#13,#14);
#12 = CARTESIAN_POINT('',(0.,0.,0.));
#13 = DIRECTION('',(0.,0.,1.));
#14 = DIRECTION('',(1.,0.,-0.));
#15 = MANIFOLD_SOLID_BREP('',#16);
#16 = CLOSED_SHELL('',(#17,#177,#201,#226,#251,#276,#301,#326,#351,#376,
    #401,#426,#451,#476,#501,#526,#546,#566,#586,#606,#626,#646,#666,
    #686,#706,#726,#746,#766,#786,#811,#836,#861,#886,#911,#936,#961,
    #986,#1011,#1036,#1061,#1086,#1111,#1120,#1129,#1138,#1147,#1156,
    #1165,#1174,#1183,#1192,#1201,#1210,#1219,#1363,#1388,#1397,#1422,
    #1431,#1456,#1465,#1490,#1499,#1524,#1533,#1558,#1567,#1592,#1601,
    #1626,#1635,#1660,#1669,#1694,#1703,#1728,#1737,#1762));
#17 = ADVANCED_FACE('',(#18,#29,#40,#51,#62,#73,#84,#95,#106,#117,#128,
    #139,#150,#161),#172,.T.);
#18 = FACE_BOUND('',#19,.T.);
#19 = EDGE_LOOP('',(#20));
#20 = ORIENTED_EDGE('',*,*,#21,.T.);
#21 = EDGE_CURVE('',#22,#22,#24,.T.);
#22 = VERTEX_POINT('',#23);
#23 = CARTESIAN_POINT('',(47.5,0.,10.));
#24 = CIRCLE('',#25,47.5);
#25 = AXIS2_PLACEMENT_3D('',#26,#27,#28);
#26 = CARTESIAN_POINT('',(0.,0.,10.));
#27 = DIRECTION('',(0.,0.,1.));
#28 = DIRECTION('',(1.,0.,0.));
#29 = FACE_BOUND('',#30,.T.);
#30 = EDGE_LOOP('',(#31));
#31 = ORIENTED_EDGE('',*,*,#32,.T.);
#32 = EDGE_CURVE('',#33,#33,#35,.T.);
#33 = VERTEX_POINT('',#34);
#34 = CARTESIAN_POINT('',(-17.95,-31.09031199586,10.));
#35 = CIRCLE('',#36,4.7);
#36 = AXIS2_PLACEMENT_3D('',#37,#38,#39);
#37 = CARTESIAN_POINT('',(-20.3,-35.16063139364,10.));
#38 = DIRECTION('',(0.,0.,-1.));
#39 = DIRECTION('',(0.5,0.866025403784,0.));
#40 = FACE_BOUND('',#41,.T.);
#41 = EDGE_LOOP('',(#42));
#42 = ORIENTED_EDGE('',*,*,#43,.T.);
#43 = EDGE_CURVE('',#44,#44,#46,.T.);
#44 = VERTEX_POINT('',#45);
#45 = CARTESIAN_POINT('',(-31.09031199586,-17.95,10.));
#46 = CIRCLE('',#47,4.7);
#47 = AXIS2_PLACEMENT_3D('',#48,#49,#50);
#48 = CARTESIAN_POINT('',(-35.16063139364,-20.3,10.));
#49 = DIRECTION('',(0.,0.,-1.));
#50 = DIRECTION('',(0.866025403784,0.5,0.));
#51 = FACE_BOUND('',#52,.T.);
#52 = EDGE_LOOP('',(#53));
#53 = ORIENTED_EDGE('',*,*,#54,.T.);
#54 = EDGE_CURVE('',#55,#55,#57,.T.);
#55 = VERTEX_POINT('',#56);
#56 = CARTESIAN_POINT('',(-3.985700658404E-15,-35.9,10.));
#57 = CIRCLE('',#58,4.7);
#58 = AXIS2_PLACEMENT_3D('',#59,#60,#61);
#59 = CARTESIAN_POINT('',(-4.507505479978E-15,-40.6,10.));
#60 = DIRECTION('',(0.,0.,-1.));
#61 = DIRECTION('',(1.110223024625E-16,1.,0.));
#62 = FACE_BOUND('',#63,.T.);
#63 = EDGE_LOOP('',(#64));
#64 = ORIENTED_EDGE('',*,*,#65,.T.);
#65 = EDGE_CURVE('',#66,#66,#68,.T.);
#66 = VERTEX_POINT('',#67);
#67 = CARTESIAN_POINT('',(17.95,-31.09031199586,10.));
#68 = CIRCLE('',#69,4.7);
#69 = AXIS2_PLACEMENT_3D('',#70,#71,#72);
#70 = CARTESIAN_POINT('',(20.3,-35.16063139364,10.));
#71 = DIRECTION('',(0.,0.,-1.));
#72 = DIRECTION('',(-0.5,0.866025403784,0.));
#73 = FACE_BOUND('',#74,.T.);
#74 = EDGE_LOOP('',(#75));
#75 = ORIENTED_EDGE('',*,*,#76,.T.);
#76 = EDGE_CURVE('',#77,#77,#79,.T.);
#77 = VERTEX_POINT('',#78);
#78 = CARTESIAN_POINT('',(31.090311995861,-17.95,10.));
#79 = CIRCLE('',#80,4.7);
#80 = AXIS2_PLACEMENT_3D('',#81,#82,#83);
#81 = CARTESIAN_POINT('',(35.160631393648,-20.3,10.));
#82 = DIRECTION('',(0.,0.,-1.));
#83 = DIRECTION('',(-0.866025403784,0.5,0.));
#84 = FACE_BOUND('',#85,.T.);
#85 = EDGE_LOOP('',(#86));
#86 = ORIENTED_EDGE('',*,*,#87,.T.);
#87 = EDGE_CURVE('',#88,#88,#90,.T.);
#88 = VERTEX_POINT('',#89);
#89 = CARTESIAN_POINT('',(35.9,-4.396482008939E-15,10.));
#90 = CIRCLE('',#91,4.7);
#91 = AXIS2_PLACEMENT_3D('',#92,#93,#94);
#92 = CARTESIAN_POINT('',(40.6,-4.972066004538E-15,10.));
#93 = DIRECTION('',(0.,0.,-1.));
#94 = DIRECTION('',(-1.,1.224646799147E-16,0.));
#95 = FACE_BOUND('',#96,.T.);
#96 = EDGE_LOOP('',(#97));
#97 = ORIENTED_EDGE('',*,*,#98,.T.);
#98 = EDGE_CURVE('',#99,#99,#101,.T.);
#99 = VERTEX_POINT('',#100);
#100 = CARTESIAN_POINT('',(-35.9,0.,10.));
#101 = CIRCLE('',#102,4.7);
#102 = AXIS2_PLACEMENT_3D('',#103,#104,#105);
#103 = CARTESIAN_POINT('',(-40.6,0.,10.));
#104 = DIRECTION('',(0.,0.,-1.));
#105 = DIRECTION('',(1.,0.,0.));
#106 = FACE_BOUND('',#107,.T.);
#107 = EDGE_LOOP('',(#108));
#108 = ORIENTED_EDGE('',*,*,#109,.T.);
#109 = EDGE_CURVE('',#110,#110,#112,.T.);
#110 = VERTEX_POINT('',#111);
#111 = CARTESIAN_POINT('',(-31.09031199586,17.95,10.));
#112 = CIRCLE('',#113,4.7);
#113 = AXIS2_PLACEMENT_3D('',#114,#115,#116);
#114 = CARTESIAN_POINT('',(-35.16063139364,20.3,10.));
#115 = DIRECTION('',(0.,-0.,-1.));
#116 = DIRECTION('',(0.866025403784,-0.5,0.));
#117 = FACE_BOUND('',#118,.T.);
#118 = EDGE_LOOP('',(#119));
#119 = ORIENTED_EDGE('',*,*,#120,.T.);
#120 = EDGE_CURVE('',#121,#121,#123,.T.);
#121 = VERTEX_POINT('',#122);
#122 = CARTESIAN_POINT('',(-17.95,31.090311995861,10.));
#123 = CIRCLE('',#124,4.7);
#124 = AXIS2_PLACEMENT_3D('',#125,#126,#127);
#125 = CARTESIAN_POINT('',(-20.3,35.160631393648,10.));
#126 = DIRECTION('',(0.,-0.,-1.));
#127 = DIRECTION('',(0.5,-0.866025403784,0.));
#128 = FACE_BOUND('',#129,.T.);
#129 = EDGE_LOOP('',(#130));
#130 = ORIENTED_EDGE('',*,*,#131,.F.);
#131 = EDGE_CURVE('',#132,#132,#134,.T.);
#132 = VERTEX_POINT('',#133);
#133 = CARTESIAN_POINT('',(34.208915126443,0.,10.));
#134 = CIRCLE('',#135,34.208915126443);
#135 = AXIS2_PLACEMENT_3D('',#136,#137,#138);
#136 = CARTESIAN_POINT('',(0.,0.,10.));
#137 = DIRECTION('',(0.,0.,1.));
#138 = DIRECTION('',(1.,0.,0.));
#139 = FACE_BOUND('',#140,.T.);
#140 = EDGE_LOOP('',(#141));
#141 = ORIENTED_EDGE('',*,*,#142,.T.);
#142 = EDGE_CURVE('',#143,#143,#145,.T.);
#143 = VERTEX_POINT('',#144);
#144 = CARTESIAN_POINT('',(31.090311995861,17.95,10.));
#145 = CIRCLE('',#146,4.7);
#146 = AXIS2_PLACEMENT_3D('',#147,#148,#149);
#147 = CARTESIAN_POINT('',(35.160631393648,20.3,10.));
#148 = DIRECTION('',(0.,0.,-1.));
#149 = DIRECTION('',(-0.866025403784,-0.5,-0.));
#150 = FACE_BOUND('',#151,.T.);
#151 = EDGE_LOOP('',(#152));
#152 = ORIENTED_EDGE('',*,*,#153,.T.);
#153 = EDGE_CURVE('',#154,#154,#156,.T.);
#154 = VERTEX_POINT('',#155);
#155 = CARTESIAN_POINT('',(7.971401316809E-15,35.9,10.));
#156 = CIRCLE('',#157,4.7);
#157 = AXIS2_PLACEMENT_3D('',#158,#159,#160);
#158 = CARTESIAN_POINT('',(9.015010959956E-15,40.6,10.));
#159 = DIRECTION('',(0.,0.,-1.));
#160 = DIRECTION('',(-2.22044604925E-16,-1.,-0.));
#161 = FACE_BOUND('',#162,.T.);
#162 = EDGE_LOOP('',(#163));
#163 = ORIENTED_EDGE('',*,*,#164,.T.);
#164 = EDGE_CURVE('',#165,#165,#167,.T.);
#165 = VERTEX_POINT('',#166);
#166 = CARTESIAN_POINT('',(17.95,31.090311995861,10.));
#167 = CIRCLE('',#168,4.7);
#168 = AXIS2_PLACEMENT_3D('',#169,#170,#171);
#169 = CARTESIAN_POINT('',(20.3,35.160631393648,10.));
#170 = DIRECTION('',(0.,0.,-1.));
#171 = DIRECTION('',(-0.5,-0.866025403784,-0.));
#172 = PLANE('',#173);
#173 = AXIS2_PLACEMENT_3D('',#174,#175,#176);
#174 = CARTESIAN_POINT('',(-2.405905655199E-15,2.00257539828E-15,10.));
#175 = DIRECTION('',(0.,0.,1.));
#176 = DIRECTION('',(1.,0.,0.));
#177 = ADVANCED_FACE('',(#178),#196,.T.);
#178 = FACE_BOUND('',#179,.F.);
#179 = EDGE_LOOP('',(#180,#189,#194,#195));
#180 = ORIENTED_EDGE('',*,*,#181,.F.);
#181 = EDGE_CURVE('',#182,#182,#184,.T.);
#182 = VERTEX_POINT('',#183);
#183 = CARTESIAN_POINT('',(47.5,0.,0.));
#184 = CIRCLE('',#185,47.5);
#185 = AXIS2_PLACEMENT_3D('',#186,#187,#188);
#186 = CARTESIAN_POINT('',(0.,0.,0.));
#187 = DIRECTION('',(0.,0.,1.));
#188 = DIRECTION('',(1.,0.,0.));
#189 = ORIENTED_EDGE('',*,*,#190,.F.);
#190 = EDGE_CURVE('',#22,#182,#191,.T.);
#191 = B_SPLINE_CURVE_WITH_KNOTS('',1,(#192,#193),.UNSPECIFIED.,.F.,.F.,
  (2,2),(-10.,0.),.PIECEWISE_BEZIER_KNOTS.);
#192 = CARTESIAN_POINT('',(47.5,-1.16341445919E-14,10.));
#193 = CARTESIAN_POINT('',(47.5,-1.16341445919E-14,0.));
#194 = ORIENTED_EDGE('',*,*,#21,.T.);
#195 = ORIENTED_EDGE('',*,*,#190,.T.);
#196 = CYLINDRICAL_SURFACE('',#197,47.5);
#197 = AXIS2_PLACEMENT_3D('',#198,#199,#200);
#198 = CARTESIAN_POINT('',(0.,0.,0.));
#199 = DIRECTION('',(-0.,-0.,-1.));
#200 = DIRECTION('',(1.,0.,0.));
#201 = ADVANCED_FACE('',(#202),#221,.T.);
#202 = FACE_BOUND('',#203,.F.);
#203 = EDGE_LOOP('',(#204,#205,#213,#220));
#204 = ORIENTED_EDGE('',*,*,#32,.T.);
#205 = ORIENTED_EDGE('',*,*,#206,.T.);
#206 = EDGE_CURVE('',#33,#207,#209,.T.);
#207 = VERTEX_POINT('',#208);
#208 = CARTESIAN_POINT('',(-17.95,-31.09031199586,25.));
#209 = LINE('',#210,#211);
#210 = CARTESIAN_POINT('',(-17.95,-31.09031199586,0.));
#211 = VECTOR('',#212,1.);
#212 = DIRECTION('',(0.,0.,1.));
#213 = ORIENTED_EDGE('',*,*,#214,.T.);
#214 = EDGE_CURVE('',#207,#207,#215,.T.);
#215 = CIRCLE('',#216,4.7);
#216 = AXIS2_PLACEMENT_3D('',#217,#218,#219);
#217 = CARTESIAN_POINT('',(-20.3,-35.16063139364,25.));
#218 = DIRECTION('',(0.,-0.,1.));
#219 = DIRECTION('',(0.5,0.866025403784,0.));
#220 = ORIENTED_EDGE('',*,*,#206,.F.);
#221 = CYLINDRICAL_SURFACE('',#222,4.7);
#222 = AXIS2_PLACEMENT_3D('',#223,#224,#225);
#223 = CARTESIAN_POINT('',(-20.3,-35.16063139364,0.));
#224 = DIRECTION('',(0.,-0.,-1.));
#225 = DIRECTION('',(0.5,0.866025403784,0.));
#226 = ADVANCED_FACE('',(#227),#246,.T.);
#227 = FACE_BOUND('',#228,.F.);
#228 = EDGE_LOOP('',(#229,#230,#238,#245));
#229 = ORIENTED_EDGE('',*,*,#43,.T.);
#230 = ORIENTED_EDGE('',*,*,#231,.T.);
#231 = EDGE_CURVE('',#44,#232,#234,.T.);
#232 = VERTEX_POINT('',#233);
#233 = CARTESIAN_POINT('',(-31.09031199586,-17.95,25.));
#234 = LINE('',#235,#236);
#235 = CARTESIAN_POINT('',(-31.09031199586,-17.95,0.));
#236 = VECTOR('',#237,1.);
#237 = DIRECTION('',(0.,0.,1.));
#238 = ORIENTED_EDGE('',*,*,#239,.T.);
#239 = EDGE_CURVE('',#232,#232,#240,.T.);
#240 = CIRCLE('',#241,4.7);
#241 = AXIS2_PLACEMENT_3D('',#242,#243,#244);
#242 = CARTESIAN_POINT('',(-35.16063139364,-20.3,25.));
#243 = DIRECTION('',(0.,-0.,1.));
#244 = DIRECTION('',(0.866025403784,0.5,0.));
#245 = ORIENTED_EDGE('',*,*,#231,.F.);
#246 = CYLINDRICAL_SURFACE('',#247,4.7);
#247 = AXIS2_PLACEMENT_3D('',#248,#249,#250);
#248 = CARTESIAN_POINT('',(-35.16063139364,-20.3,0.));
#249 = DIRECTION('',(0.,0.,-1.));
#250 = DIRECTION('',(0.866025403784,0.5,0.));
#251 = ADVANCED_FACE('',(#252),#271,.T.);
#252 = FACE_BOUND('',#253,.F.);
#253 = EDGE_LOOP('',(#254,#255,#263,#270));
#254 = ORIENTED_EDGE('',*,*,#54,.T.);
#255 = ORIENTED_EDGE('',*,*,#256,.T.);
#256 = EDGE_CURVE('',#55,#257,#259,.T.);
#257 = VERTEX_POINT('',#258);
#258 = CARTESIAN_POINT('',(-3.985700658404E-15,-35.9,25.));
#259 = LINE('',#260,#261);
#260 = CARTESIAN_POINT('',(-3.985700658404E-15,-35.9,0.));
#261 = VECTOR('',#262,1.);
#262 = DIRECTION('',(0.,0.,1.));
#263 = ORIENTED_EDGE('',*,*,#264,.T.);
#264 = EDGE_CURVE('',#257,#257,#265,.T.);
#265 = CIRCLE('',#266,4.7);
#266 = AXIS2_PLACEMENT_3D('',#267,#268,#269);
#267 = CARTESIAN_POINT('',(-4.507505479978E-15,-40.6,25.));
#268 = DIRECTION('',(0.,-0.,1.));
#269 = DIRECTION('',(1.110223024625E-16,1.,0.));
#270 = ORIENTED_EDGE('',*,*,#256,.F.);
#271 = CYLINDRICAL_SURFACE('',#272,4.7);
#272 = AXIS2_PLACEMENT_3D('',#273,#274,#275);
#273 = CARTESIAN_POINT('',(-4.507505479978E-15,-40.6,0.));
#274 = DIRECTION('',(0.,-0.,-1.));
#275 = DIRECTION('',(1.110223024625E-16,1.,0.));
#276 = ADVANCED_FACE('',(#277),#296,.T.);
#277 = FACE_BOUND('',#278,.F.);
#278 = EDGE_LOOP('',(#279,#280,#288,#295));
#279 = ORIENTED_EDGE('',*,*,#65,.T.);
#280 = ORIENTED_EDGE('',*,*,#281,.T.);
#281 = EDGE_CURVE('',#66,#282,#284,.T.);
#282 = VERTEX_POINT('',#283);
#283 = CARTESIAN_POINT('',(17.95,-31.09031199586,25.));
#284 = LINE('',#285,#286);
#285 = CARTESIAN_POINT('',(17.95,-31.09031199586,0.));
#286 = VECTOR('',#287,1.);
#287 = DIRECTION('',(0.,0.,1.));
#288 = ORIENTED_EDGE('',*,*,#289,.T.);
#289 = EDGE_CURVE('',#282,#282,#290,.T.);
#290 = CIRCLE('',#291,4.7);
#291 = AXIS2_PLACEMENT_3D('',#292,#293,#294);
#292 = CARTESIAN_POINT('',(20.3,-35.16063139364,25.));
#293 = DIRECTION('',(0.,0.,1.));
#294 = DIRECTION('',(-0.5,0.866025403784,0.));
#295 = ORIENTED_EDGE('',*,*,#281,.F.);
#296 = CYLINDRICAL_SURFACE('',#297,4.7);
#297 = AXIS2_PLACEMENT_3D('',#298,#299,#300);
#298 = CARTESIAN_POINT('',(20.3,-35.16063139364,0.));
#299 = DIRECTION('',(-0.,0.,-1.));
#300 = DIRECTION('',(-0.5,0.866025403784,0.));
#301 = ADVANCED_FACE('',(#302),#321,.T.);
#302 = FACE_BOUND('',#303,.F.);
#303 = EDGE_LOOP('',(#304,#305,#313,#320));
#304 = ORIENTED_EDGE('',*,*,#76,.T.);
#305 = ORIENTED_EDGE('',*,*,#306,.T.);
#306 = EDGE_CURVE('',#77,#307,#309,.T.);
#307 = VERTEX_POINT('',#308);
#308 = CARTESIAN_POINT('',(31.090311995861,-17.95,25.));
#309 = LINE('',#310,#311);
#310 = CARTESIAN_POINT('',(31.090311995861,-17.95,0.));
#311 = VECTOR('',#312,1.);
#312 = DIRECTION('',(0.,0.,1.));
#313 = ORIENTED_EDGE('',*,*,#314,.T.);
#314 = EDGE_CURVE('',#307,#307,#315,.T.);
#315 = CIRCLE('',#316,4.7);
#316 = AXIS2_PLACEMENT_3D('',#317,#318,#319);
#317 = CARTESIAN_POINT('',(35.160631393648,-20.3,25.));
#318 = DIRECTION('',(0.,0.,1.));
#319 = DIRECTION('',(-0.866025403784,0.5,0.));
#320 = ORIENTED_EDGE('',*,*,#306,.F.);
#321 = CYLINDRICAL_SURFACE('',#322,4.7);
#322 = AXIS2_PLACEMENT_3D('',#323,#324,#325);
#323 = CARTESIAN_POINT('',(35.160631393648,-20.3,0.));
#324 = DIRECTION('',(0.,0.,-1.));
#325 = DIRECTION('',(-0.866025403784,0.5,0.));
#326 = ADVANCED_FACE('',(#327),#346,.T.);
#327 = FACE_BOUND('',#328,.F.);
#328 = EDGE_LOOP('',(#329,#330,#338,#345));
#329 = ORIENTED_EDGE('',*,*,#87,.T.);
#330 = ORIENTED_EDGE('',*,*,#331,.T.);
#331 = EDGE_CURVE('',#88,#332,#334,.T.);
#332 = VERTEX_POINT('',#333);
#333 = CARTESIAN_POINT('',(35.9,-4.396482008939E-15,25.));
#334 = LINE('',#335,#336);
#335 = CARTESIAN_POINT('',(35.9,-4.396482008939E-15,0.));
#336 = VECTOR('',#337,1.);
#337 = DIRECTION('',(0.,0.,1.));
#338 = ORIENTED_EDGE('',*,*,#339,.T.);
#339 = EDGE_CURVE('',#332,#332,#340,.T.);
#340 = CIRCLE('',#341,4.7);
#341 = AXIS2_PLACEMENT_3D('',#342,#343,#344);
#342 = CARTESIAN_POINT('',(40.6,-4.972066004538E-15,25.));
#343 = DIRECTION('',(0.,0.,1.));
#344 = DIRECTION('',(-1.,1.224646799147E-16,0.));
#345 = ORIENTED_EDGE('',*,*,#331,.F.);
#346 = CYLINDRICAL_SURFACE('',#347,4.7);
#347 = AXIS2_PLACEMENT_3D('',#348,#349,#350);
#348 = CARTESIAN_POINT('',(40.6,-4.972066004538E-15,0.));
#349 = DIRECTION('',(0.,0.,-1.));
#350 = DIRECTION('',(-1.,1.224646799147E-16,0.));
#351 = ADVANCED_FACE('',(#352),#371,.T.);
#352 = FACE_BOUND('',#353,.F.);
#353 = EDGE_LOOP('',(#354,#355,#363,#370));
#354 = ORIENTED_EDGE('',*,*,#98,.T.);
#355 = ORIENTED_EDGE('',*,*,#356,.T.);
#356 = EDGE_CURVE('',#99,#357,#359,.T.);
#357 = VERTEX_POINT('',#358);
#358 = CARTESIAN_POINT('',(-35.9,0.,25.));
#359 = LINE('',#360,#361);
#360 = CARTESIAN_POINT('',(-35.9,0.,0.));
#361 = VECTOR('',#362,1.);
#362 = DIRECTION('',(0.,0.,1.));
#363 = ORIENTED_EDGE('',*,*,#364,.T.);
#364 = EDGE_CURVE('',#357,#357,#365,.T.);
#365 = CIRCLE('',#366,4.7);
#366 = AXIS2_PLACEMENT_3D('',#367,#368,#369);
#367 = CARTESIAN_POINT('',(-40.6,0.,25.));
#368 = DIRECTION('',(0.,0.,1.));
#369 = DIRECTION('',(1.,0.,0.));
#370 = ORIENTED_EDGE('',*,*,#356,.F.);
#371 = CYLINDRICAL_SURFACE('',#372,4.7);
#372 = AXIS2_PLACEMENT_3D('',#373,#374,#375);
#373 = CARTESIAN_POINT('',(-40.6,0.,0.));
#374 = DIRECTION('',(-0.,-0.,-1.));
#375 = DIRECTION('',(1.,0.,0.));
#376 = ADVANCED_FACE('',(#377),#396,.T.);
#377 = FACE_BOUND('',#378,.F.);
#378 = EDGE_LOOP('',(#379,#380,#388,#395));
#379 = ORIENTED_EDGE('',*,*,#109,.T.);
#380 = ORIENTED_EDGE('',*,*,#381,.T.);
#381 = EDGE_CURVE('',#110,#382,#384,.T.);
#382 = VERTEX_POINT('',#383);
#383 = CARTESIAN_POINT('',(-31.09031199586,17.95,25.));
#384 = LINE('',#385,#386);
#385 = CARTESIAN_POINT('',(-31.09031199586,17.95,0.));
#386 = VECTOR('',#387,1.);
#387 = DIRECTION('',(0.,0.,1.));
#388 = ORIENTED_EDGE('',*,*,#389,.T.);
#389 = EDGE_CURVE('',#382,#382,#390,.T.);
#390 = CIRCLE('',#391,4.7);
#391 = AXIS2_PLACEMENT_3D('',#392,#393,#394);
#392 = CARTESIAN_POINT('',(-35.16063139364,20.3,25.));
#393 = DIRECTION('',(-0.,0.,1.));
#394 = DIRECTION('',(0.866025403784,-0.5,0.));
#395 = ORIENTED_EDGE('',*,*,#381,.F.);
#396 = CYLINDRICAL_SURFACE('',#397,4.7);
#397 = AXIS2_PLACEMENT_3D('',#398,#399,#400);
#398 = CARTESIAN_POINT('',(-35.16063139364,20.3,0.));
#399 = DIRECTION('',(0.,0.,-1.));
#400 = DIRECTION('',(0.866025403784,-0.5,0.));
#401 = ADVANCED_FACE('',(#402),#421,.T.);
#402 = FACE_BOUND('',#403,.F.);
#403 = EDGE_LOOP('',(#404,#405,#413,#420));
#404 = ORIENTED_EDGE('',*,*,#120,.T.);
#405 = ORIENTED_EDGE('',*,*,#406,.T.);
#406 = EDGE_CURVE('',#121,#407,#409,.T.);
#407 = VERTEX_POINT('',#408);
#408 = CARTESIAN_POINT('',(-17.95,31.090311995861,25.));
#409 = LINE('',#410,#411);
#410 = CARTESIAN_POINT('',(-17.95,31.090311995861,0.));
#411 = VECTOR('',#412,1.);
#412 = DIRECTION('',(0.,0.,1.));
#413 = ORIENTED_EDGE('',*,*,#414,.T.);
#414 = EDGE_CURVE('',#407,#407,#415,.T.);
#415 = CIRCLE('',#416,4.7);
#416 = AXIS2_PLACEMENT_3D('',#417,#418,#419);
#417 = CARTESIAN_POINT('',(-20.3,35.160631393648,25.));
#418 = DIRECTION('',(-0.,0.,1.));
#419 = DIRECTION('',(0.5,-0.866025403784,0.));
#420 = ORIENTED_EDGE('',*,*,#406,.F.);
#421 = CYLINDRICAL_SURFACE('',#422,4.7);
#422 = AXIS2_PLACEMENT_3D('',#423,#424,#425);
#423 = CARTESIAN_POINT('',(-20.3,35.160631393648,0.));
#424 = DIRECTION('',(0.,0.,-1.));
#425 = DIRECTION('',(0.5,-0.866025403784,0.));
#426 = ADVANCED_FACE('',(#427),#446,.F.);
#427 = FACE_BOUND('',#428,.T.);
#428 = EDGE_LOOP('',(#429,#438,#444,#445));
#429 = ORIENTED_EDGE('',*,*,#430,.T.);
#430 = EDGE_CURVE('',#431,#431,#433,.T.);
#431 = VERTEX_POINT('',#432);
#432 = CARTESIAN_POINT('',(34.208915126443,0.,5.));
#433 = CIRCLE('',#434,34.208915126443);
#434 = AXIS2_PLACEMENT_3D('',#435,#436,#437);
#435 = CARTESIAN_POINT('',(0.,0.,5.));
#436 = DIRECTION('',(0.,0.,-1.));
#437 = DIRECTION('',(1.,0.,0.));
#438 = ORIENTED_EDGE('',*,*,#439,.T.);
#439 = EDGE_CURVE('',#431,#132,#440,.T.);
#440 = LINE('',#441,#442);
#441 = CARTESIAN_POINT('',(34.208915126443,0.,0.));
#442 = VECTOR('',#443,1.);
#443 = DIRECTION('',(0.,0.,1.));
#444 = ORIENTED_EDGE('',*,*,#131,.T.);
#445 = ORIENTED_EDGE('',*,*,#439,.F.);
#446 = CYLINDRICAL_SURFACE('',#447,34.208915126443);
#447 = AXIS2_PLACEMENT_3D('',#448,#449,#450);
#448 = CARTESIAN_POINT('',(0.,0.,0.));
#449 = DIRECTION('',(-0.,-0.,-1.));
#450 = DIRECTION('',(1.,0.,0.));
#451 = ADVANCED_FACE('',(#452),#471,.T.);
#452 = FACE_BOUND('',#453,.F.);
#453 = EDGE_LOOP('',(#454,#455,#463,#470));
#454 = ORIENTED_EDGE('',*,*,#142,.T.);
#455 = ORIENTED_EDGE('',*,*,#456,.T.);
#456 = EDGE_CURVE('',#143,#457,#459,.T.);
#457 = VERTEX_POINT('',#458);
#458 = CARTESIAN_POINT('',(31.090311995861,17.95,25.));
#459 = LINE('',#460,#461);
#460 = CARTESIAN_POINT('',(31.090311995861,17.95,0.));
#461 = VECTOR('',#462,1.);
#462 = DIRECTION('',(0.,0.,1.));
#463 = ORIENTED_EDGE('',*,*,#464,.T.);
#464 = EDGE_CURVE('',#457,#457,#465,.T.);
#465 = CIRCLE('',#466,4.7);
#466 = AXIS2_PLACEMENT_3D('',#467,#468,#469);
#467 = CARTESIAN_POINT('',(35.160631393648,20.3,25.));
#468 = DIRECTION('',(0.,0.,1.));
#469 = DIRECTION('',(-0.866025403784,-0.5,0.));
#470 = ORIENTED_EDGE('',*,*,#456,.F.);
#471 = CYLINDRICAL_SURFACE('',#472,4.7);
#472 = AXIS2_PLACEMENT_3D('',#473,#474,#475);
#473 = CARTESIAN_POINT('',(35.160631393648,20.3,0.));
#474 = DIRECTION('',(0.,0.,-1.));
#475 = DIRECTION('',(-0.866025403784,-0.5,0.));
#476 = ADVANCED_FACE('',(#477),#496,.T.);
#477 = FACE_BOUND('',#478,.F.);
#478 = EDGE_LOOP('',(#479,#480,#488,#495));
#479 = ORIENTED_EDGE('',*,*,#153,.T.);
#480 = ORIENTED_EDGE('',*,*,#481,.T.);
#481 = EDGE_CURVE('',#154,#482,#484,.T.);
#482 = VERTEX_POINT('',#483);
#483 = CARTESIAN_POINT('',(7.971401316809E-15,35.9,25.));
#484 = LINE('',#485,#486);
#485 = CARTESIAN_POINT('',(7.971401316809E-15,35.9,0.));
#486 = VECTOR('',#487,1.);
#487 = DIRECTION('',(0.,0.,1.));
#488 = ORIENTED_EDGE('',*,*,#489,.T.);
#489 = EDGE_CURVE('',#482,#482,#490,.T.);
#490 = CIRCLE('',#491,4.7);
#491 = AXIS2_PLACEMENT_3D('',#492,#493,#494);
#492 = CARTESIAN_POINT('',(9.015010959956E-15,40.6,25.));
#493 = DIRECTION('',(0.,0.,1.));
#494 = DIRECTION('',(-2.22044604925E-16,-1.,0.));
#495 = ORIENTED_EDGE('',*,*,#481,.F.);
#496 = CYLINDRICAL_SURFACE('',#497,4.7);
#497 = AXIS2_PLACEMENT_3D('',#498,#499,#500);
#498 = CARTESIAN_POINT('',(9.015010959956E-15,40.6,0.));
#499 = DIRECTION('',(0.,0.,-1.));
#500 = DIRECTION('',(-2.22044604925E-16,-1.,0.));
#501 = ADVANCED_FACE('',(#502),#521,.T.);
#502 = FACE_BOUND('',#503,.F.);
#503 = EDGE_LOOP('',(#504,#505,#513,#520));
#504 = ORIENTED_EDGE('',*,*,#164,.T.);
#505 = ORIENTED_EDGE('',*,*,#506,.T.);
#506 = EDGE_CURVE('',#165,#507,#509,.T.);
#507 = VERTEX_POINT('',#508);
#508 = CARTESIAN_POINT('',(17.95,31.090311995861,25.));
#509 = LINE('',#510,#511);
#510 = CARTESIAN_POINT('',(17.95,31.090311995861,0.));
#511 = VECTOR('',#512,1.);
#512 = DIRECTION('',(0.,0.,1.));
#513 = ORIENTED_EDGE('',*,*,#514,.T.);
#514 = EDGE_CURVE('',#507,#507,#515,.T.);
#515 = CIRCLE('',#516,4.7);
#516 = AXIS2_PLACEMENT_3D('',#517,#518,#519);
#517 = CARTESIAN_POINT('',(20.3,35.160631393648,25.));
#518 = DIRECTION('',(0.,0.,1.));
#519 = DIRECTION('',(-0.5,-0.866025403784,0.));
#520 = ORIENTED_EDGE('',*,*,#506,.F.);
#521 = CYLINDRICAL_SURFACE('',#522,4.7);
#522 = AXIS2_PLACEMENT_3D('',#523,#524,#525);
#523 = CARTESIAN_POINT('',(20.3,35.160631393648,0.));
#524 = DIRECTION('',(0.,0.,-1.));
#525 = DIRECTION('',(-0.5,-0.866025403784,0.));
#526 = ADVANCED_FACE('',(#527,#530),#541,.T.);
#527 = FACE_BOUND('',#528,.T.);
#528 = EDGE_LOOP('',(#529));
#529 = ORIENTED_EDGE('',*,*,#214,.T.);
#530 = FACE_BOUND('',#531,.T.);
#531 = EDGE_LOOP('',(#532));
#532 = ORIENTED_EDGE('',*,*,#533,.T.);
#533 = EDGE_CURVE('',#534,#534,#536,.T.);
#534 = VERTEX_POINT('',#535);
#535 = CARTESIAN_POINT('',(-19.7125,-34.1430515442,25.));
#536 = CIRCLE('',#537,1.175);
#537 = AXIS2_PLACEMENT_3D('',#538,#539,#540);
#538 = CARTESIAN_POINT('',(-20.3,-35.16063139364,25.));
#539 = DIRECTION('',(0.,0.,-1.));
#540 = DIRECTION('',(0.5,0.866025403784,0.));
#541 = PLANE('',#542);
#542 = AXIS2_PLACEMENT_3D('',#543,#544,#545);
#543 = CARTESIAN_POINT('',(-20.3,-35.16063139364,25.));
#544 = DIRECTION('',(0.,0.,1.));
#545 = DIRECTION('',(0.5,0.866025403784,0.));
#546 = ADVANCED_FACE('',(#547,#550),#561,.T.);
#547 = FACE_BOUND('',#548,.T.);
#548 = EDGE_LOOP('',(#549));
#549 = ORIENTED_EDGE('',*,*,#239,.T.);
#550 = FACE_BOUND('',#551,.T.);
#551 = EDGE_LOOP('',(#552));
#552 = ORIENTED_EDGE('',*,*,#553,.T.);
#553 = EDGE_CURVE('',#554,#554,#556,.T.);
#554 = VERTEX_POINT('',#555);
#555 = CARTESIAN_POINT('',(-34.1430515442,-19.7125,25.));
#556 = CIRCLE('',#557,1.175);
#557 = AXIS2_PLACEMENT_3D('',#558,#559,#560);
#558 = CARTESIAN_POINT('',(-35.16063139364,-20.3,25.));
#559 = DIRECTION('',(0.,0.,-1.));
#560 = DIRECTION('',(0.866025403784,0.5,0.));
#561 = PLANE('',#562);
#562 = AXIS2_PLACEMENT_3D('',#563,#564,#565);
#563 = CARTESIAN_POINT('',(-35.16063139364,-20.3,25.));
#564 = DIRECTION('',(0.,0.,1.));
#565 = DIRECTION('',(0.866025403784,0.5,0.));
#566 = ADVANCED_FACE('',(#567,#570),#581,.T.);
#567 = FACE_BOUND('',#568,.T.);
#568 = EDGE_LOOP('',(#569));
#569 = ORIENTED_EDGE('',*,*,#264,.T.);
#570 = FACE_BOUND('',#571,.T.);
#571 = EDGE_LOOP('',(#572));
#572 = ORIENTED_EDGE('',*,*,#573,.T.);
#573 = EDGE_CURVE('',#574,#574,#576,.T.);
#574 = VERTEX_POINT('',#575);
#575 = CARTESIAN_POINT('',(-4.377054274585E-15,-39.425,25.));
#576 = CIRCLE('',#577,1.175);
#577 = AXIS2_PLACEMENT_3D('',#578,#579,#580);
#578 = CARTESIAN_POINT('',(-4.507505479978E-15,-40.6,25.));
#579 = DIRECTION('',(0.,0.,-1.));
#580 = DIRECTION('',(1.110223024625E-16,1.,0.));
#581 = PLANE('',#582);
#582 = AXIS2_PLACEMENT_3D('',#583,#584,#585);
#583 = CARTESIAN_POINT('',(-4.785961473735E-15,-40.6,25.));
#584 = DIRECTION('',(0.,0.,1.));
#585 = DIRECTION('',(1.110223024625E-16,1.,0.));
#586 = ADVANCED_FACE('',(#587,#590),#601,.T.);
#587 = FACE_BOUND('',#588,.T.);
#588 = EDGE_LOOP('',(#589));
#589 = ORIENTED_EDGE('',*,*,#289,.T.);
#590 = FACE_BOUND('',#591,.T.);
#591 = EDGE_LOOP('',(#592));
#592 = ORIENTED_EDGE('',*,*,#593,.T.);
#593 = EDGE_CURVE('',#594,#594,#596,.T.);
#594 = VERTEX_POINT('',#595);
#595 = CARTESIAN_POINT('',(19.7125,-34.1430515442,25.));
#596 = CIRCLE('',#597,1.175);
#597 = AXIS2_PLACEMENT_3D('',#598,#599,#600);
#598 = CARTESIAN_POINT('',(20.3,-35.16063139364,25.));
#599 = DIRECTION('',(0.,0.,-1.));
#600 = DIRECTION('',(-0.5,0.866025403784,0.));
#601 = PLANE('',#602);
#602 = AXIS2_PLACEMENT_3D('',#603,#604,#605);
#603 = CARTESIAN_POINT('',(20.3,-35.16063139364,25.));
#604 = DIRECTION('',(0.,0.,1.));
#605 = DIRECTION('',(-0.5,0.866025403784,0.));
#606 = ADVANCED_FACE('',(#607,#610),#621,.T.);
#607 = FACE_BOUND('',#608,.T.);
#608 = EDGE_LOOP('',(#609));
#609 = ORIENTED_EDGE('',*,*,#314,.T.);
#610 = FACE_BOUND('',#611,.T.);
#611 = EDGE_LOOP('',(#612));
#612 = ORIENTED_EDGE('',*,*,#613,.T.);
#613 = EDGE_CURVE('',#614,#614,#616,.T.);
#614 = VERTEX_POINT('',#615);
#615 = CARTESIAN_POINT('',(34.143051544201,-19.7125,25.));
#616 = CIRCLE('',#617,1.175);
#617 = AXIS2_PLACEMENT_3D('',#618,#619,#620);
#618 = CARTESIAN_POINT('',(35.160631393648,-20.3,25.));
#619 = DIRECTION('',(0.,0.,-1.));
#620 = DIRECTION('',(-0.866025403784,0.5,0.));
#621 = PLANE('',#622);
#622 = AXIS2_PLACEMENT_3D('',#623,#624,#625);
#623 = CARTESIAN_POINT('',(35.160631393648,-20.3,25.));
#624 = DIRECTION('',(0.,0.,1.));
#625 = DIRECTION('',(-0.866025403784,0.5,0.));
#626 = ADVANCED_FACE('',(#627,#630),#641,.T.);
#627 = FACE_BOUND('',#628,.T.);
#628 = EDGE_LOOP('',(#629));
#629 = ORIENTED_EDGE('',*,*,#339,.T.);
#630 = FACE_BOUND('',#631,.T.);
#631 = EDGE_LOOP('',(#632));
#632 = ORIENTED_EDGE('',*,*,#633,.T.);
#633 = EDGE_CURVE('',#634,#634,#636,.T.);
#634 = VERTEX_POINT('',#635);
#635 = CARTESIAN_POINT('',(39.425,-4.828170005638E-15,25.));
#636 = CIRCLE('',#637,1.175);
#637 = AXIS2_PLACEMENT_3D('',#638,#639,#640);
#638 = CARTESIAN_POINT('',(40.6,-4.972066004538E-15,25.));
#639 = DIRECTION('',(0.,0.,-1.));
#640 = DIRECTION('',(-1.,1.224646799147E-16,0.));
#641 = PLANE('',#642);
#642 = AXIS2_PLACEMENT_3D('',#643,#644,#645);
#643 = CARTESIAN_POINT('',(40.6,-5.250521998295E-15,25.));
#644 = DIRECTION('',(0.,0.,1.));
#645 = DIRECTION('',(-1.,1.224646799147E-16,0.));
#646 = ADVANCED_FACE('',(#647,#650),#661,.T.);
#647 = FACE_BOUND('',#648,.T.);
#648 = EDGE_LOOP('',(#649));
#649 = ORIENTED_EDGE('',*,*,#364,.T.);
#650 = FACE_BOUND('',#651,.T.);
#651 = EDGE_LOOP('',(#652));
#652 = ORIENTED_EDGE('',*,*,#653,.T.);
#653 = EDGE_CURVE('',#654,#654,#656,.T.);
#654 = VERTEX_POINT('',#655);
#655 = CARTESIAN_POINT('',(-39.425,0.,25.));
#656 = CIRCLE('',#657,1.175);
#657 = AXIS2_PLACEMENT_3D('',#658,#659,#660);
#658 = CARTESIAN_POINT('',(-40.6,0.,25.));
#659 = DIRECTION('',(0.,0.,-1.));
#660 = DIRECTION('',(1.,0.,0.));
#661 = PLANE('',#662);
#662 = AXIS2_PLACEMENT_3D('',#663,#664,#665);
#663 = CARTESIAN_POINT('',(-40.6,2.784559937569E-16,25.));
#664 = DIRECTION('',(0.,0.,1.));
#665 = DIRECTION('',(1.,0.,0.));
#666 = ADVANCED_FACE('',(#667,#670),#681,.T.);
#667 = FACE_BOUND('',#668,.T.);
#668 = EDGE_LOOP('',(#669));
#669 = ORIENTED_EDGE('',*,*,#389,.T.);
#670 = FACE_BOUND('',#671,.T.);
#671 = EDGE_LOOP('',(#672));
#672 = ORIENTED_EDGE('',*,*,#673,.T.);
#673 = EDGE_CURVE('',#674,#674,#676,.T.);
#674 = VERTEX_POINT('',#675);
#675 = CARTESIAN_POINT('',(-34.1430515442,19.7125,25.));
#676 = CIRCLE('',#677,1.175);
#677 = AXIS2_PLACEMENT_3D('',#678,#679,#680);
#678 = CARTESIAN_POINT('',(-35.16063139364,20.3,25.));
#679 = DIRECTION('',(0.,-0.,-1.));
#680 = DIRECTION('',(0.866025403784,-0.5,0.));
#681 = PLANE('',#682);
#682 = AXIS2_PLACEMENT_3D('',#683,#684,#685);
#683 = CARTESIAN_POINT('',(-35.16063139364,20.3,25.));
#684 = DIRECTION('',(0.,0.,1.));
#685 = DIRECTION('',(0.866025403784,-0.5,0.));
#686 = ADVANCED_FACE('',(#687,#690),#701,.T.);
#687 = FACE_BOUND('',#688,.T.);
#688 = EDGE_LOOP('',(#689));
#689 = ORIENTED_EDGE('',*,*,#414,.T.);
#690 = FACE_BOUND('',#691,.T.);
#691 = EDGE_LOOP('',(#692));
#692 = ORIENTED_EDGE('',*,*,#693,.T.);
#693 = EDGE_CURVE('',#694,#694,#696,.T.);
#694 = VERTEX_POINT('',#695);
#695 = CARTESIAN_POINT('',(-19.7125,34.143051544202,25.));
#696 = CIRCLE('',#697,1.175);
#697 = AXIS2_PLACEMENT_3D('',#698,#699,#700);
#698 = CARTESIAN_POINT('',(-20.3,35.160631393648,25.));
#699 = DIRECTION('',(0.,-0.,-1.));
#700 = DIRECTION('',(0.5,-0.866025403784,0.));
#701 = PLANE('',#702);
#702 = AXIS2_PLACEMENT_3D('',#703,#704,#705);
#703 = CARTESIAN_POINT('',(-20.3,35.160631393648,25.));
#704 = DIRECTION('',(0.,0.,1.));
#705 = DIRECTION('',(0.5,-0.866025403784,0.));
#706 = ADVANCED_FACE('',(#707,#710),#721,.T.);
#707 = FACE_BOUND('',#708,.T.);
#708 = EDGE_LOOP('',(#709));
#709 = ORIENTED_EDGE('',*,*,#430,.F.);
#710 = FACE_BOUND('',#711,.T.);
#711 = EDGE_LOOP('',(#712));
#712 = ORIENTED_EDGE('',*,*,#713,.F.);
#713 = EDGE_CURVE('',#714,#714,#716,.T.);
#714 = VERTEX_POINT('',#715);
#715 = CARTESIAN_POINT('',(6.8,0.,5.));
#716 = CIRCLE('',#717,6.8);
#717 = AXIS2_PLACEMENT_3D('',#718,#719,#720);
#718 = CARTESIAN_POINT('',(0.,0.,5.));
#719 = DIRECTION('',(0.,0.,1.));
#720 = DIRECTION('',(1.,0.,0.));
#721 = PLANE('',#722);
#722 = AXIS2_PLACEMENT_3D('',#723,#724,#725);
#723 = CARTESIAN_POINT('',(-2.505714423346E-15,2.477788577387E-15,5.));
#724 = DIRECTION('',(0.,0.,1.));
#725 = DIRECTION('',(1.,0.,0.));
#726 = ADVANCED_FACE('',(#727,#730),#741,.T.);
#727 = FACE_BOUND('',#728,.T.);
#728 = EDGE_LOOP('',(#729));
#729 = ORIENTED_EDGE('',*,*,#464,.T.);
#730 = FACE_BOUND('',#731,.T.);
#731 = EDGE_LOOP('',(#732));
#732 = ORIENTED_EDGE('',*,*,#733,.T.);
#733 = EDGE_CURVE('',#734,#734,#736,.T.);
#734 = VERTEX_POINT('',#735);
#735 = CARTESIAN_POINT('',(34.143051544202,19.7125,25.));
#736 = CIRCLE('',#737,1.175);
#737 = AXIS2_PLACEMENT_3D('',#738,#739,#740);
#738 = CARTESIAN_POINT('',(35.160631393648,20.3,25.));
#739 = DIRECTION('',(0.,0.,-1.));
#740 = DIRECTION('',(-0.866025403784,-0.5,-0.));
#741 = PLANE('',#742);
#742 = AXIS2_PLACEMENT_3D('',#743,#744,#745);
#743 = CARTESIAN_POINT('',(35.160631393648,20.3,25.));
#744 = DIRECTION('',(0.,0.,1.));
#745 = DIRECTION('',(-0.866025403784,-0.5,0.));
#746 = ADVANCED_FACE('',(#747,#750),#761,.T.);
#747 = FACE_BOUND('',#748,.T.);
#748 = EDGE_LOOP('',(#749));
#749 = ORIENTED_EDGE('',*,*,#489,.T.);
#750 = FACE_BOUND('',#751,.T.);
#751 = EDGE_LOOP('',(#752));
#752 = ORIENTED_EDGE('',*,*,#753,.T.);
#753 = EDGE_CURVE('',#754,#754,#756,.T.);
#754 = VERTEX_POINT('',#755);
#755 = CARTESIAN_POINT('',(8.754108549169E-15,39.425,25.));
#756 = CIRCLE('',#757,1.175);
#757 = AXIS2_PLACEMENT_3D('',#758,#759,#760);
#758 = CARTESIAN_POINT('',(9.015010959956E-15,40.6,25.));
#759 = DIRECTION('',(0.,0.,-1.));
#760 = DIRECTION('',(-2.22044604925E-16,-1.,-0.));
#761 = PLANE('',#762);
#762 = AXIS2_PLACEMENT_3D('',#763,#764,#765);
#763 = CARTESIAN_POINT('',(9.293466953713E-15,40.6,25.));
#764 = DIRECTION('',(0.,0.,1.));
#765 = DIRECTION('',(-2.22044604925E-16,-1.,0.));
#766 = ADVANCED_FACE('',(#767,#770),#781,.T.);
#767 = FACE_BOUND('',#768,.T.);
#768 = EDGE_LOOP('',(#769));
#769 = ORIENTED_EDGE('',*,*,#514,.T.);
#770 = FACE_BOUND('',#771,.T.);
#771 = EDGE_LOOP('',(#772));
#772 = ORIENTED_EDGE('',*,*,#773,.T.);
#773 = EDGE_CURVE('',#774,#774,#776,.T.);
#774 = VERTEX_POINT('',#775);
#775 = CARTESIAN_POINT('',(19.7125,34.143051544201,25.));
#776 = CIRCLE('',#777,1.175);
#777 = AXIS2_PLACEMENT_3D('',#778,#779,#780);
#778 = CARTESIAN_POINT('',(20.3,35.160631393648,25.));
#779 = DIRECTION('',(0.,0.,-1.));
#780 = DIRECTION('',(-0.5,-0.866025403784,-0.));
#781 = PLANE('',#782);
#782 = AXIS2_PLACEMENT_3D('',#783,#784,#785);
#783 = CARTESIAN_POINT('',(20.3,35.160631393648,25.));
#784 = DIRECTION('',(0.,0.,1.));
#785 = DIRECTION('',(-0.5,-0.866025403784,0.));
#786 = ADVANCED_FACE('',(#787),#806,.F.);
#787 = FACE_BOUND('',#788,.T.);
#788 = EDGE_LOOP('',(#789,#797,#798,#799));
#789 = ORIENTED_EDGE('',*,*,#790,.T.);
#790 = EDGE_CURVE('',#791,#714,#793,.T.);
#791 = VERTEX_POINT('',#792);
#792 = CARTESIAN_POINT('',(6.8,0.,0.));
#793 = LINE('',#794,#795);
#794 = CARTESIAN_POINT('',(6.8,0.,0.));
#795 = VECTOR('',#796,1.);
#796 = DIRECTION('',(0.,0.,1.));
#797 = ORIENTED_EDGE('',*,*,#713,.T.);
#798 = ORIENTED_EDGE('',*,*,#790,.F.);
#799 = ORIENTED_EDGE('',*,*,#800,.F.);
#800 = EDGE_CURVE('',#791,#791,#801,.T.);
#801 = CIRCLE('',#802,6.8);
#802 = AXIS2_PLACEMENT_3D('',#803,#804,#805);
#803 = CARTESIAN_POINT('',(0.,0.,0.));
#804 = DIRECTION('',(0.,0.,1.));
#805 = DIRECTION('',(1.,0.,0.));
#806 = CYLINDRICAL_SURFACE('',#807,6.8);
#807 = AXIS2_PLACEMENT_3D('',#808,#809,#810);
#808 = CARTESIAN_POINT('',(0.,0.,0.));
#809 = DIRECTION('',(-0.,-0.,-1.));
#810 = DIRECTION('',(1.,0.,0.));
#811 = ADVANCED_FACE('',(#812),#831,.T.);
#812 = FACE_BOUND('',#813,.F.);
#813 = EDGE_LOOP('',(#814,#815,#823,#830));
#814 = ORIENTED_EDGE('',*,*,#533,.T.);
#815 = ORIENTED_EDGE('',*,*,#816,.T.);
#816 = EDGE_CURVE('',#534,#817,#819,.T.);
#817 = VERTEX_POINT('',#818);
#818 = CARTESIAN_POINT('',(-19.7125,-34.1430515442,30.));
#819 = LINE('',#820,#821);
#820 = CARTESIAN_POINT('',(-19.7125,-34.1430515442,0.));
#821 = VECTOR('',#822,1.);
#822 = DIRECTION('',(0.,0.,1.));
#823 = ORIENTED_EDGE('',*,*,#824,.T.);
#824 = EDGE_CURVE('',#817,#817,#825,.T.);
#825 = CIRCLE('',#826,1.175);
#826 = AXIS2_PLACEMENT_3D('',#827,#828,#829);
#827 = CARTESIAN_POINT('',(-20.3,-35.16063139364,30.));
#828 = DIRECTION('',(0.,-0.,1.));
#829 = DIRECTION('',(0.5,0.866025403784,0.));
#830 = ORIENTED_EDGE('',*,*,#816,.F.);
#831 = CYLINDRICAL_SURFACE('',#832,1.175);
#832 = AXIS2_PLACEMENT_3D('',#833,#834,#835);
#833 = CARTESIAN_POINT('',(-20.3,-35.16063139364,0.));
#834 = DIRECTION('',(0.,-0.,-1.));
#835 = DIRECTION('',(0.5,0.866025403784,0.));
#836 = ADVANCED_FACE('',(#837),#856,.T.);
#837 = FACE_BOUND('',#838,.F.);
#838 = EDGE_LOOP('',(#839,#840,#848,#855));
#839 = ORIENTED_EDGE('',*,*,#553,.T.);
#840 = ORIENTED_EDGE('',*,*,#841,.T.);
#841 = EDGE_CURVE('',#554,#842,#844,.T.);
#842 = VERTEX_POINT('',#843);
#843 = CARTESIAN_POINT('',(-34.1430515442,-19.7125,30.));
#844 = LINE('',#845,#846);
#845 = CARTESIAN_POINT('',(-34.1430515442,-19.7125,0.));
#846 = VECTOR('',#847,1.);
#847 = DIRECTION('',(0.,0.,1.));
#848 = ORIENTED_EDGE('',*,*,#849,.T.);
#849 = EDGE_CURVE('',#842,#842,#850,.T.);
#850 = CIRCLE('',#851,1.175);
#851 = AXIS2_PLACEMENT_3D('',#852,#853,#854);
#852 = CARTESIAN_POINT('',(-35.16063139364,-20.3,30.));
#853 = DIRECTION('',(0.,-0.,1.));
#854 = DIRECTION('',(0.866025403784,0.5,0.));
#855 = ORIENTED_EDGE('',*,*,#841,.F.);
#856 = CYLINDRICAL_SURFACE('',#857,1.175);
#857 = AXIS2_PLACEMENT_3D('',#858,#859,#860);
#858 = CARTESIAN_POINT('',(-35.16063139364,-20.3,0.));
#859 = DIRECTION('',(0.,0.,-1.));
#860 = DIRECTION('',(0.866025403784,0.5,0.));
#861 = ADVANCED_FACE('',(#862),#881,.T.);
#862 = FACE_BOUND('',#863,.F.);
#863 = EDGE_LOOP('',(#864,#865,#873,#880));
#864 = ORIENTED_EDGE('',*,*,#573,.T.);
#865 = ORIENTED_EDGE('',*,*,#866,.T.);
#866 = EDGE_CURVE('',#574,#867,#869,.T.);
#867 = VERTEX_POINT('',#868);
#868 = CARTESIAN_POINT('',(-4.377054274585E-15,-39.425,30.));
#869 = LINE('',#870,#871);
#870 = CARTESIAN_POINT('',(-4.377054274585E-15,-39.425,0.));
#871 = VECTOR('',#872,1.);
#872 = DIRECTION('',(0.,0.,1.));
#873 = ORIENTED_EDGE('',*,*,#874,.T.);
#874 = EDGE_CURVE('',#867,#867,#875,.T.);
#875 = CIRCLE('',#876,1.175);
#876 = AXIS2_PLACEMENT_3D('',#877,#878,#879);
#877 = CARTESIAN_POINT('',(-4.507505479978E-15,-40.6,30.));
#878 = DIRECTION('',(0.,-0.,1.));
#879 = DIRECTION('',(1.110223024625E-16,1.,0.));
#880 = ORIENTED_EDGE('',*,*,#866,.F.);
#881 = CYLINDRICAL_SURFACE('',#882,1.175);
#882 = AXIS2_PLACEMENT_3D('',#883,#884,#885);
#883 = CARTESIAN_POINT('',(-4.507505479978E-15,-40.6,0.));
#884 = DIRECTION('',(0.,-0.,-1.));
#885 = DIRECTION('',(1.110223024625E-16,1.,0.));
#886 = ADVANCED_FACE('',(#887),#906,.T.);
#887 = FACE_BOUND('',#888,.F.);
#888 = EDGE_LOOP('',(#889,#890,#898,#905));
#889 = ORIENTED_EDGE('',*,*,#593,.T.);
#890 = ORIENTED_EDGE('',*,*,#891,.T.);
#891 = EDGE_CURVE('',#594,#892,#894,.T.);
#892 = VERTEX_POINT('',#893);
#893 = CARTESIAN_POINT('',(19.7125,-34.1430515442,30.));
#894 = LINE('',#895,#896);
#895 = CARTESIAN_POINT('',(19.7125,-34.1430515442,0.));
#896 = VECTOR('',#897,1.);
#897 = DIRECTION('',(0.,0.,1.));
#898 = ORIENTED_EDGE('',*,*,#899,.T.);
#899 = EDGE_CURVE('',#892,#892,#900,.T.);
#900 = CIRCLE('',#901,1.175);
#901 = AXIS2_PLACEMENT_3D('',#902,#903,#904);
#902 = CARTESIAN_POINT('',(20.3,-35.16063139364,30.));
#903 = DIRECTION('',(0.,0.,1.));
#904 = DIRECTION('',(-0.5,0.866025403784,0.));
#905 = ORIENTED_EDGE('',*,*,#891,.F.);
#906 = CYLINDRICAL_SURFACE('',#907,1.175);
#907 = AXIS2_PLACEMENT_3D('',#908,#909,#910);
#908 = CARTESIAN_POINT('',(20.3,-35.16063139364,0.));
#909 = DIRECTION('',(-0.,0.,-1.));
#910 = DIRECTION('',(-0.5,0.866025403784,0.));
#911 = ADVANCED_FACE('',(#912),#931,.T.);
#912 = FACE_BOUND('',#913,.F.);
#913 = EDGE_LOOP('',(#914,#915,#923,#930));
#914 = ORIENTED_EDGE('',*,*,#613,.T.);
#915 = ORIENTED_EDGE('',*,*,#916,.T.);
#916 = EDGE_CURVE('',#614,#917,#919,.T.);
#917 = VERTEX_POINT('',#918);
#918 = CARTESIAN_POINT('',(34.143051544201,-19.7125,30.));
#919 = LINE('',#920,#921);
#920 = CARTESIAN_POINT('',(34.143051544201,-19.7125,0.));
#921 = VECTOR('',#922,1.);
#922 = DIRECTION('',(0.,0.,1.));
#923 = ORIENTED_EDGE('',*,*,#924,.T.);
#924 = EDGE_CURVE('',#917,#917,#925,.T.);
#925 = CIRCLE('',#926,1.175);
#926 = AXIS2_PLACEMENT_3D('',#927,#928,#929);
#927 = CARTESIAN_POINT('',(35.160631393648,-20.3,30.));
#928 = DIRECTION('',(0.,0.,1.));
#929 = DIRECTION('',(-0.866025403784,0.5,0.));
#930 = ORIENTED_EDGE('',*,*,#916,.F.);
#931 = CYLINDRICAL_SURFACE('',#932,1.175);
#932 = AXIS2_PLACEMENT_3D('',#933,#934,#935);
#933 = CARTESIAN_POINT('',(35.160631393648,-20.3,0.));
#934 = DIRECTION('',(0.,0.,-1.));
#935 = DIRECTION('',(-0.866025403784,0.5,0.));
#936 = ADVANCED_FACE('',(#937),#956,.T.);
#937 = FACE_BOUND('',#938,.F.);
#938 = EDGE_LOOP('',(#939,#940,#948,#955));
#939 = ORIENTED_EDGE('',*,*,#633,.T.);
#940 = ORIENTED_EDGE('',*,*,#941,.T.);
#941 = EDGE_CURVE('',#634,#942,#944,.T.);
#942 = VERTEX_POINT('',#943);
#943 = CARTESIAN_POINT('',(39.425,-4.828170005638E-15,30.));
#944 = LINE('',#945,#946);
#945 = CARTESIAN_POINT('',(39.425,-4.828170005638E-15,0.));
#946 = VECTOR('',#947,1.);
#947 = DIRECTION('',(0.,0.,1.));
#948 = ORIENTED_EDGE('',*,*,#949,.T.);
#949 = EDGE_CURVE('',#942,#942,#950,.T.);
#950 = CIRCLE('',#951,1.175);
#951 = AXIS2_PLACEMENT_3D('',#952,#953,#954);
#952 = CARTESIAN_POINT('',(40.6,-4.972066004538E-15,30.));
#953 = DIRECTION('',(0.,0.,1.));
#954 = DIRECTION('',(-1.,1.224646799147E-16,0.));
#955 = ORIENTED_EDGE('',*,*,#941,.F.);
#956 = CYLINDRICAL_SURFACE('',#957,1.175);
#957 = AXIS2_PLACEMENT_3D('',#958,#959,#960);
#958 = CARTESIAN_POINT('',(40.6,-4.972066004538E-15,0.));
#959 = DIRECTION('',(0.,0.,-1.));
#960 = DIRECTION('',(-1.,1.224646799147E-16,0.));
#961 = ADVANCED_FACE('',(#962),#981,.T.);
#962 = FACE_BOUND('',#963,.F.);
#963 = EDGE_LOOP('',(#964,#965,#973,#980));
#964 = ORIENTED_EDGE('',*,*,#653,.T.);
#965 = ORIENTED_EDGE('',*,*,#966,.T.);
#966 = EDGE_CURVE('',#654,#967,#969,.T.);
#967 = VERTEX_POINT('',#968);
#968 = CARTESIAN_POINT('',(-39.425,0.,30.));
#969 = LINE('',#970,#971);
#970 = CARTESIAN_POINT('',(-39.425,0.,0.));
#971 = VECTOR('',#972,1.);
#972 = DIRECTION('',(0.,0.,1.));
#973 = ORIENTED_EDGE('',*,*,#974,.T.);
#974 = EDGE_CURVE('',#967,#967,#975,.T.);
#975 = CIRCLE('',#976,1.175);
#976 = AXIS2_PLACEMENT_3D('',#977,#978,#979);
#977 = CARTESIAN_POINT('',(-40.6,0.,30.));
#978 = DIRECTION('',(0.,0.,1.));
#979 = DIRECTION('',(1.,0.,0.));
#980 = ORIENTED_EDGE('',*,*,#966,.F.);
#981 = CYLINDRICAL_SURFACE('',#982,1.175);
#982 = AXIS2_PLACEMENT_3D('',#983,#984,#985);
#983 = CARTESIAN_POINT('',(-40.6,0.,0.));
#984 = DIRECTION('',(-0.,-0.,-1.));
#985 = DIRECTION('',(1.,0.,0.));
#986 = ADVANCED_FACE('',(#987),#1006,.T.);
#987 = FACE_BOUND('',#988,.F.);
#988 = EDGE_LOOP('',(#989,#990,#998,#1005));
#989 = ORIENTED_EDGE('',*,*,#673,.T.);
#990 = ORIENTED_EDGE('',*,*,#991,.T.);
#991 = EDGE_CURVE('',#674,#992,#994,.T.);
#992 = VERTEX_POINT('',#993);
#993 = CARTESIAN_POINT('',(-34.1430515442,19.7125,30.));
#994 = LINE('',#995,#996);
#995 = CARTESIAN_POINT('',(-34.1430515442,19.7125,0.));
#996 = VECTOR('',#997,1.);
#997 = DIRECTION('',(0.,0.,1.));
#998 = ORIENTED_EDGE('',*,*,#999,.T.);
#999 = EDGE_CURVE('',#992,#992,#1000,.T.);
#1000 = CIRCLE('',#1001,1.175);
#1001 = AXIS2_PLACEMENT_3D('',#1002,#1003,#1004);
#1002 = CARTESIAN_POINT('',(-35.16063139364,20.3,30.));
#1003 = DIRECTION('',(-0.,0.,1.));
#1004 = DIRECTION('',(0.866025403784,-0.5,0.));
#1005 = ORIENTED_EDGE('',*,*,#991,.F.);
#1006 = CYLINDRICAL_SURFACE('',#1007,1.175);
#1007 = AXIS2_PLACEMENT_3D('',#1008,#1009,#1010);
#1008 = CARTESIAN_POINT('',(-35.16063139364,20.3,0.));
#1009 = DIRECTION('',(0.,0.,-1.));
#1010 = DIRECTION('',(0.866025403784,-0.5,0.));
#1011 = ADVANCED_FACE('',(#1012),#1031,.T.);
#1012 = FACE_BOUND('',#1013,.F.);
#1013 = EDGE_LOOP('',(#1014,#1015,#1023,#1030));
#1014 = ORIENTED_EDGE('',*,*,#693,.T.);
#1015 = ORIENTED_EDGE('',*,*,#1016,.T.);
#1016 = EDGE_CURVE('',#694,#1017,#1019,.T.);
#1017 = VERTEX_POINT('',#1018);
#1018 = CARTESIAN_POINT('',(-19.7125,34.143051544202,30.));
#1019 = LINE('',#1020,#1021);
#1020 = CARTESIAN_POINT('',(-19.7125,34.143051544202,0.));
#1021 = VECTOR('',#1022,1.);
#1022 = DIRECTION('',(0.,0.,1.));
#1023 = ORIENTED_EDGE('',*,*,#1024,.T.);
#1024 = EDGE_CURVE('',#1017,#1017,#1025,.T.);
#1025 = CIRCLE('',#1026,1.175);
#1026 = AXIS2_PLACEMENT_3D('',#1027,#1028,#1029);
#1027 = CARTESIAN_POINT('',(-20.3,35.160631393648,30.));
#1028 = DIRECTION('',(-0.,0.,1.));
#1029 = DIRECTION('',(0.5,-0.866025403784,0.));
#1030 = ORIENTED_EDGE('',*,*,#1016,.F.);
#1031 = CYLINDRICAL_SURFACE('',#1032,1.175);
#1032 = AXIS2_PLACEMENT_3D('',#1033,#1034,#1035);
#1033 = CARTESIAN_POINT('',(-20.3,35.160631393648,0.));
#1034 = DIRECTION('',(0.,0.,-1.));
#1035 = DIRECTION('',(0.5,-0.866025403784,0.));
#1036 = ADVANCED_FACE('',(#1037),#1056,.T.);
#1037 = FACE_BOUND('',#1038,.F.);
#1038 = EDGE_LOOP('',(#1039,#1040,#1048,#1055));
#1039 = ORIENTED_EDGE('',*,*,#733,.T.);
#1040 = ORIENTED_EDGE('',*,*,#1041,.T.);
#1041 = EDGE_CURVE('',#734,#1042,#1044,.T.);
#1042 = VERTEX_POINT('',#1043);
#1043 = CARTESIAN_POINT('',(34.143051544202,19.7125,30.));
#1044 = LINE('',#1045,#1046);
#1045 = CARTESIAN_POINT('',(34.143051544202,19.7125,0.));
#1046 = VECTOR('',#1047,1.);
#1047 = DIRECTION('',(0.,0.,1.));
#1048 = ORIENTED_EDGE('',*,*,#1049,.T.);
#1049 = EDGE_CURVE('',#1042,#1042,#1050,.T.);
#1050 = CIRCLE('',#1051,1.175);
#1051 = AXIS2_PLACEMENT_3D('',#1052,#1053,#1054);
#1052 = CARTESIAN_POINT('',(35.160631393648,20.3,30.));
#1053 = DIRECTION('',(0.,0.,1.));
#1054 = DIRECTION('',(-0.866025403784,-0.5,0.));
#1055 = ORIENTED_EDGE('',*,*,#1041,.F.);
#1056 = CYLINDRICAL_SURFACE('',#1057,1.175);
#1057 = AXIS2_PLACEMENT_3D('',#1058,#1059,#1060);
#1058 = CARTESIAN_POINT('',(35.160631393648,20.3,0.));
#1059 = DIRECTION('',(0.,0.,-1.));
#1060 = DIRECTION('',(-0.866025403784,-0.5,0.));
#1061 = ADVANCED_FACE('',(#1062),#1081,.T.);
#1062 = FACE_BOUND('',#1063,.F.);
#1063 = EDGE_LOOP('',(#1064,#1065,#1073,#1080));
#1064 = ORIENTED_EDGE('',*,*,#753,.T.);
#1065 = ORIENTED_EDGE('',*,*,#1066,.T.);
#1066 = EDGE_CURVE('',#754,#1067,#1069,.T.);
#1067 = VERTEX_POINT('',#1068);
#1068 = CARTESIAN_POINT('',(8.754108549169E-15,39.425,30.));
#1069 = LINE('',#1070,#1071);
#1070 = CARTESIAN_POINT('',(8.754108549169E-15,39.425,0.));
#1071 = VECTOR('',#1072,1.);
#1072 = DIRECTION('',(0.,0.,1.));
#1073 = ORIENTED_EDGE('',*,*,#1074,.T.);
#1074 = EDGE_CURVE('',#1067,#1067,#1075,.T.);
#1075 = CIRCLE('',#1076,1.175);
#1076 = AXIS2_PLACEMENT_3D('',#1077,#1078,#1079);
#1077 = CARTESIAN_POINT('',(9.015010959956E-15,40.6,30.));
#1078 = DIRECTION('',(0.,0.,1.));
#1079 = DIRECTION('',(-2.22044604925E-16,-1.,0.));
#1080 = ORIENTED_EDGE('',*,*,#1066,.F.);
#1081 = CYLINDRICAL_SURFACE('',#1082,1.175);
#1082 = AXIS2_PLACEMENT_3D('',#1083,#1084,#1085);
#1083 = CARTESIAN_POINT('',(9.015010959956E-15,40.6,0.));
#1084 = DIRECTION('',(0.,0.,-1.));
#1085 = DIRECTION('',(-2.22044604925E-16,-1.,0.));
#1086 = ADVANCED_FACE('',(#1087),#1106,.T.);
#1087 = FACE_BOUND('',#1088,.F.);
#1088 = EDGE_LOOP('',(#1089,#1090,#1098,#1105));
#1089 = ORIENTED_EDGE('',*,*,#773,.T.);
#1090 = ORIENTED_EDGE('',*,*,#1091,.T.);
#1091 = EDGE_CURVE('',#774,#1092,#1094,.T.);
#1092 = VERTEX_POINT('',#1093);
#1093 = CARTESIAN_POINT('',(19.7125,34.143051544201,30.));
#1094 = LINE('',#1095,#1096);
#1095 = CARTESIAN_POINT('',(19.7125,34.143051544201,0.));
#1096 = VECTOR('',#1097,1.);
#1097 = DIRECTION('',(0.,0.,1.));
#1098 = ORIENTED_EDGE('',*,*,#1099,.T.);
#1099 = EDGE_CURVE('',#1092,#1092,#1100,.T.);
#1100 = CIRCLE('',#1101,1.175);
#1101 = AXIS2_PLACEMENT_3D('',#1102,#1103,#1104);
#1102 = CARTESIAN_POINT('',(20.3,35.160631393648,30.));
#1103 = DIRECTION('',(0.,0.,1.));
#1104 = DIRECTION('',(-0.5,-0.866025403784,0.));
#1105 = ORIENTED_EDGE('',*,*,#1091,.F.);
#1106 = CYLINDRICAL_SURFACE('',#1107,1.175);
#1107 = AXIS2_PLACEMENT_3D('',#1108,#1109,#1110);
#1108 = CARTESIAN_POINT('',(20.3,35.160631393648,0.));
#1109 = DIRECTION('',(0.,0.,-1.));
#1110 = DIRECTION('',(-0.5,-0.866025403784,0.));
#1111 = ADVANCED_FACE('',(#1112),#1115,.T.);
#1112 = FACE_BOUND('',#1113,.T.);
#1113 = EDGE_LOOP('',(#1114));
#1114 = ORIENTED_EDGE('',*,*,#824,.T.);
#1115 = PLANE('',#1116);
#1116 = AXIS2_PLACEMENT_3D('',#1117,#1118,#1119);
#1117 = CARTESIAN_POINT('',(-20.3,-35.16063139364,30.));
#1118 = DIRECTION('',(0.,0.,1.));
#1119 = DIRECTION('',(0.5,0.866025403784,0.));
#1120 = ADVANCED_FACE('',(#1121),#1124,.T.);
#1121 = FACE_BOUND('',#1122,.T.);
#1122 = EDGE_LOOP('',(#1123));
#1123 = ORIENTED_EDGE('',*,*,#849,.T.);
#1124 = PLANE('',#1125);
#1125 = AXIS2_PLACEMENT_3D('',#1126,#1127,#1128);
#1126 = CARTESIAN_POINT('',(-35.16063139364,-20.3,30.));
#1127 = DIRECTION('',(0.,0.,1.));
#1128 = DIRECTION('',(0.866025403784,0.5,0.));
#1129 = ADVANCED_FACE('',(#1130),#1133,.T.);
#1130 = FACE_BOUND('',#1131,.T.);
#1131 = EDGE_LOOP('',(#1132));
#1132 = ORIENTED_EDGE('',*,*,#874,.T.);
#1133 = PLANE('',#1134);
#1134 = AXIS2_PLACEMENT_3D('',#1135,#1136,#1137);
#1135 = CARTESIAN_POINT('',(-4.510776756383E-15,-40.6,30.));
#1136 = DIRECTION('',(0.,0.,1.));
#1137 = DIRECTION('',(1.110223024625E-16,1.,0.));
#1138 = ADVANCED_FACE('',(#1139),#1142,.T.);
#1139 = FACE_BOUND('',#1140,.T.);
#1140 = EDGE_LOOP('',(#1141));
#1141 = ORIENTED_EDGE('',*,*,#899,.T.);
#1142 = PLANE('',#1143);
#1143 = AXIS2_PLACEMENT_3D('',#1144,#1145,#1146);
#1144 = CARTESIAN_POINT('',(20.3,-35.16063139364,30.));
#1145 = DIRECTION('',(0.,0.,1.));
#1146 = DIRECTION('',(-0.5,0.866025403784,0.));
#1147 = ADVANCED_FACE('',(#1148),#1151,.T.);
#1148 = FACE_BOUND('',#1149,.T.);
#1149 = EDGE_LOOP('',(#1150));
#1150 = ORIENTED_EDGE('',*,*,#924,.T.);
#1151 = PLANE('',#1152);
#1152 = AXIS2_PLACEMENT_3D('',#1153,#1154,#1155);
#1153 = CARTESIAN_POINT('',(35.160631393648,-20.3,30.));
#1154 = DIRECTION('',(0.,0.,1.));
#1155 = DIRECTION('',(-0.866025403784,0.5,0.));
#1156 = ADVANCED_FACE('',(#1157),#1160,.T.);
#1157 = FACE_BOUND('',#1158,.T.);
#1158 = EDGE_LOOP('',(#1159));
#1159 = ORIENTED_EDGE('',*,*,#949,.T.);
#1160 = PLANE('',#1161);
#1161 = AXIS2_PLACEMENT_3D('',#1162,#1163,#1164);
#1162 = CARTESIAN_POINT('',(40.6,-4.975337280943E-15,30.));
#1163 = DIRECTION('',(0.,0.,1.));
#1164 = DIRECTION('',(-1.,1.224646799147E-16,0.));
#1165 = ADVANCED_FACE('',(#1166),#1169,.T.);
#1166 = FACE_BOUND('',#1167,.T.);
#1167 = EDGE_LOOP('',(#1168));
#1168 = ORIENTED_EDGE('',*,*,#974,.T.);
#1169 = PLANE('',#1170);
#1170 = AXIS2_PLACEMENT_3D('',#1171,#1172,#1173);
#1171 = CARTESIAN_POINT('',(-40.6,3.271276404536E-18,30.));
#1172 = DIRECTION('',(0.,0.,1.));
#1173 = DIRECTION('',(1.,0.,0.));
#1174 = ADVANCED_FACE('',(#1175),#1178,.T.);
#1175 = FACE_BOUND('',#1176,.T.);
#1176 = EDGE_LOOP('',(#1177));
#1177 = ORIENTED_EDGE('',*,*,#999,.T.);
#1178 = PLANE('',#1179);
#1179 = AXIS2_PLACEMENT_3D('',#1180,#1181,#1182);
#1180 = CARTESIAN_POINT('',(-35.16063139364,20.3,30.));
#1181 = DIRECTION('',(0.,0.,1.));
#1182 = DIRECTION('',(0.866025403784,-0.5,0.));
#1183 = ADVANCED_FACE('',(#1184),#1187,.T.);
#1184 = FACE_BOUND('',#1185,.T.);
#1185 = EDGE_LOOP('',(#1186));
#1186 = ORIENTED_EDGE('',*,*,#1024,.T.);
#1187 = PLANE('',#1188);
#1188 = AXIS2_PLACEMENT_3D('',#1189,#1190,#1191);
#1189 = CARTESIAN_POINT('',(-20.3,35.160631393648,30.));
#1190 = DIRECTION('',(0.,0.,1.));
#1191 = DIRECTION('',(0.5,-0.866025403784,0.));
#1192 = ADVANCED_FACE('',(#1193),#1196,.T.);
#1193 = FACE_BOUND('',#1194,.T.);
#1194 = EDGE_LOOP('',(#1195));
#1195 = ORIENTED_EDGE('',*,*,#1049,.T.);
#1196 = PLANE('',#1197);
#1197 = AXIS2_PLACEMENT_3D('',#1198,#1199,#1200);
#1198 = CARTESIAN_POINT('',(35.160631393648,20.3,30.));
#1199 = DIRECTION('',(0.,0.,1.));
#1200 = DIRECTION('',(-0.866025403784,-0.5,0.));
#1201 = ADVANCED_FACE('',(#1202),#1205,.T.);
#1202 = FACE_BOUND('',#1203,.T.);
#1203 = EDGE_LOOP('',(#1204));
#1204 = ORIENTED_EDGE('',*,*,#1074,.T.);
#1205 = PLANE('',#1206);
#1206 = AXIS2_PLACEMENT_3D('',#1207,#1208,#1209);
#1207 = CARTESIAN_POINT('',(9.018282236361E-15,40.6,30.));
#1208 = DIRECTION('',(0.,0.,1.));
#1209 = DIRECTION('',(-2.22044604925E-16,-1.,0.));
#1210 = ADVANCED_FACE('',(#1211),#1214,.T.);
#1211 = FACE_BOUND('',#1212,.T.);
#1212 = EDGE_LOOP('',(#1213));
#1213 = ORIENTED_EDGE('',*,*,#1099,.T.);
#1214 = PLANE('',#1215);
#1215 = AXIS2_PLACEMENT_3D('',#1216,#1217,#1218);
#1216 = CARTESIAN_POINT('',(20.3,35.160631393648,30.));
#1217 = DIRECTION('',(0.,0.,1.));
#1218 = DIRECTION('',(-0.5,-0.866025403784,0.));
#1219 = ADVANCED_FACE('',(#1220,#1223,#1226,#1237,#1248,#1259,#1270,
    #1281,#1292,#1303,#1314,#1325,#1336,#1347),#1358,.T.);
#1220 = FACE_BOUND('',#1221,.T.);
#1221 = EDGE_LOOP('',(#1222));
#1222 = ORIENTED_EDGE('',*,*,#181,.F.);
#1223 = FACE_BOUND('',#1224,.T.);
#1224 = EDGE_LOOP('',(#1225));
#1225 = ORIENTED_EDGE('',*,*,#800,.T.);
#1226 = FACE_BOUND('',#1227,.T.);
#1227 = EDGE_LOOP('',(#1228));
#1228 = ORIENTED_EDGE('',*,*,#1229,.T.);
#1229 = EDGE_CURVE('',#1230,#1230,#1232,.T.);
#1230 = VERTEX_POINT('',#1231);
#1231 = CARTESIAN_POINT('',(19.5625,-33.88324392306,0.));
#1232 = CIRCLE('',#1233,1.475);
#1233 = AXIS2_PLACEMENT_3D('',#1234,#1235,#1236);
#1234 = CARTESIAN_POINT('',(20.3,-35.16063139364,0.));
#1235 = DIRECTION('',(0.,0.,1.));
#1236 = DIRECTION('',(-0.5,0.866025403784,0.));
#1237 = FACE_BOUND('',#1238,.T.);
#1238 = EDGE_LOOP('',(#1239));
#1239 = ORIENTED_EDGE('',*,*,#1240,.T.);
#1240 = EDGE_CURVE('',#1241,#1241,#1243,.T.);
#1241 = VERTEX_POINT('',#1242);
#1242 = CARTESIAN_POINT('',(33.883243923066,-19.5625,0.));
#1243 = CIRCLE('',#1244,1.475);
#1244 = AXIS2_PLACEMENT_3D('',#1245,#1246,#1247);
#1245 = CARTESIAN_POINT('',(35.160631393648,-20.3,0.));
#1246 = DIRECTION('',(0.,0.,1.));
#1247 = DIRECTION('',(-0.866025403784,0.5,0.));
#1248 = FACE_BOUND('',#1249,.T.);
#1249 = EDGE_LOOP('',(#1250));
#1250 = ORIENTED_EDGE('',*,*,#1251,.T.);
#1251 = EDGE_CURVE('',#1252,#1252,#1254,.T.);
#1252 = VERTEX_POINT('',#1253);
#1253 = CARTESIAN_POINT('',(-19.5625,-33.88324392306,0.));
#1254 = CIRCLE('',#1255,1.475);
#1255 = AXIS2_PLACEMENT_3D('',#1256,#1257,#1258);
#1256 = CARTESIAN_POINT('',(-20.3,-35.16063139364,0.));
#1257 = DIRECTION('',(0.,-0.,1.));
#1258 = DIRECTION('',(0.5,0.866025403784,0.));
#1259 = FACE_BOUND('',#1260,.T.);
#1260 = EDGE_LOOP('',(#1261));
#1261 = ORIENTED_EDGE('',*,*,#1262,.T.);
#1262 = EDGE_CURVE('',#1263,#1263,#1265,.T.);
#1263 = VERTEX_POINT('',#1264);
#1264 = CARTESIAN_POINT('',(-33.88324392306,-19.5625,0.));
#1265 = CIRCLE('',#1266,1.475);
#1266 = AXIS2_PLACEMENT_3D('',#1267,#1268,#1269);
#1267 = CARTESIAN_POINT('',(-35.16063139364,-20.3,0.));
#1268 = DIRECTION('',(0.,-0.,1.));
#1269 = DIRECTION('',(0.866025403784,0.5,0.));
#1270 = FACE_BOUND('',#1271,.T.);
#1271 = EDGE_LOOP('',(#1272));
#1272 = ORIENTED_EDGE('',*,*,#1273,.T.);
#1273 = EDGE_CURVE('',#1274,#1274,#1276,.T.);
#1274 = VERTEX_POINT('',#1275);
#1275 = CARTESIAN_POINT('',(33.883243923066,19.5625,0.));
#1276 = CIRCLE('',#1277,1.475);
#1277 = AXIS2_PLACEMENT_3D('',#1278,#1279,#1280);
#1278 = CARTESIAN_POINT('',(35.160631393648,20.3,0.));
#1279 = DIRECTION('',(0.,0.,1.));
#1280 = DIRECTION('',(-0.866025403784,-0.5,0.));
#1281 = FACE_BOUND('',#1282,.T.);
#1282 = EDGE_LOOP('',(#1283));
#1283 = ORIENTED_EDGE('',*,*,#1284,.T.);
#1284 = EDGE_CURVE('',#1285,#1285,#1287,.T.);
#1285 = VERTEX_POINT('',#1286);
#1286 = CARTESIAN_POINT('',(19.5625,33.883243923066,0.));
#1287 = CIRCLE('',#1288,1.475);
#1288 = AXIS2_PLACEMENT_3D('',#1289,#1290,#1291);
#1289 = CARTESIAN_POINT('',(20.3,35.160631393648,0.));
#1290 = DIRECTION('',(0.,0.,1.));
#1291 = DIRECTION('',(-0.5,-0.866025403784,0.));
#1292 = FACE_BOUND('',#1293,.T.);
#1293 = EDGE_LOOP('',(#1294));
#1294 = ORIENTED_EDGE('',*,*,#1295,.T.);
#1295 = EDGE_CURVE('',#1296,#1296,#1298,.T.);
#1296 = VERTEX_POINT('',#1297);
#1297 = CARTESIAN_POINT('',(-33.88324392306,19.5625,0.));
#1298 = CIRCLE('',#1299,1.475);
#1299 = AXIS2_PLACEMENT_3D('',#1300,#1301,#1302);
#1300 = CARTESIAN_POINT('',(-35.16063139364,20.3,0.));
#1301 = DIRECTION('',(-0.,0.,1.));
#1302 = DIRECTION('',(0.866025403784,-0.5,0.));
#1303 = FACE_BOUND('',#1304,.T.);
#1304 = EDGE_LOOP('',(#1305));
#1305 = ORIENTED_EDGE('',*,*,#1306,.T.);
#1306 = EDGE_CURVE('',#1307,#1307,#1309,.T.);
#1307 = VERTEX_POINT('',#1308);
#1308 = CARTESIAN_POINT('',(-19.5625,33.883243923066,0.));
#1309 = CIRCLE('',#1310,1.475);
#1310 = AXIS2_PLACEMENT_3D('',#1311,#1312,#1313);
#1311 = CARTESIAN_POINT('',(-20.3,35.160631393648,0.));
#1312 = DIRECTION('',(-0.,0.,1.));
#1313 = DIRECTION('',(0.5,-0.866025403784,0.));
#1314 = FACE_BOUND('',#1315,.T.);
#1315 = EDGE_LOOP('',(#1316));
#1316 = ORIENTED_EDGE('',*,*,#1317,.T.);
#1317 = EDGE_CURVE('',#1318,#1318,#1320,.T.);
#1318 = VERTEX_POINT('',#1319);
#1319 = CARTESIAN_POINT('',(-39.125,0.,0.));
#1320 = CIRCLE('',#1321,1.475);
#1321 = AXIS2_PLACEMENT_3D('',#1322,#1323,#1324);
#1322 = CARTESIAN_POINT('',(-40.6,0.,0.));
#1323 = DIRECTION('',(0.,0.,1.));
#1324 = DIRECTION('',(1.,0.,0.));
#1325 = FACE_BOUND('',#1326,.T.);
#1326 = EDGE_LOOP('',(#1327));
#1327 = ORIENTED_EDGE('',*,*,#1328,.T.);
#1328 = EDGE_CURVE('',#1329,#1329,#1331,.T.);
#1329 = VERTEX_POINT('',#1330);
#1330 = CARTESIAN_POINT('',(39.125,-4.791430601664E-15,0.));
#1331 = CIRCLE('',#1332,1.475);
#1332 = AXIS2_PLACEMENT_3D('',#1333,#1334,#1335);
#1333 = CARTESIAN_POINT('',(40.6,-4.972066004538E-15,0.));
#1334 = DIRECTION('',(0.,0.,1.));
#1335 = DIRECTION('',(-1.,1.224646799147E-16,0.));
#1336 = FACE_BOUND('',#1337,.T.);
#1337 = EDGE_LOOP('',(#1338));
#1338 = ORIENTED_EDGE('',*,*,#1339,.T.);
#1339 = EDGE_CURVE('',#1340,#1340,#1342,.T.);
#1340 = VERTEX_POINT('',#1341);
#1341 = CARTESIAN_POINT('',(-4.343747583846E-15,-39.125,0.));
#1342 = CIRCLE('',#1343,1.475);
#1343 = AXIS2_PLACEMENT_3D('',#1344,#1345,#1346);
#1344 = CARTESIAN_POINT('',(-4.507505479978E-15,-40.6,0.));
#1345 = DIRECTION('',(0.,-0.,1.));
#1346 = DIRECTION('',(1.110223024625E-16,1.,0.));
#1347 = FACE_BOUND('',#1348,.T.);
#1348 = EDGE_LOOP('',(#1349));
#1349 = ORIENTED_EDGE('',*,*,#1350,.T.);
#1350 = EDGE_CURVE('',#1351,#1351,#1353,.T.);
#1351 = VERTEX_POINT('',#1352);
#1352 = CARTESIAN_POINT('',(8.687495167692E-15,39.125,0.));
#1353 = CIRCLE('',#1354,1.475);
#1354 = AXIS2_PLACEMENT_3D('',#1355,#1356,#1357);
#1355 = CARTESIAN_POINT('',(9.015010959956E-15,40.6,0.));
#1356 = DIRECTION('',(0.,0.,1.));
#1357 = DIRECTION('',(-2.22044604925E-16,-1.,0.));
#1358 = PLANE('',#1359);
#1359 = AXIS2_PLACEMENT_3D('',#1360,#1361,#1362);
#1360 = CARTESIAN_POINT('',(-2.864427225004E-15,2.832503573728E-15,0.));
#1361 = DIRECTION('',(-0.,-0.,-1.));
#1362 = DIRECTION('',(-1.,0.,0.));
#1363 = ADVANCED_FACE('',(#1364),#1383,.F.);
#1364 = FACE_BOUND('',#1365,.T.);
#1365 = EDGE_LOOP('',(#1366,#1374,#1381,#1382));
#1366 = ORIENTED_EDGE('',*,*,#1367,.T.);
#1367 = EDGE_CURVE('',#1230,#1368,#1370,.T.);
#1368 = VERTEX_POINT('',#1369);
#1369 = CARTESIAN_POINT('',(19.5625,-33.88324392306,15.));
#1370 = LINE('',#1371,#1372);
#1371 = CARTESIAN_POINT('',(19.5625,-33.88324392306,0.));
#1372 = VECTOR('',#1373,1.);
#1373 = DIRECTION('',(0.,0.,1.));
#1374 = ORIENTED_EDGE('',*,*,#1375,.T.);
#1375 = EDGE_CURVE('',#1368,#1368,#1376,.T.);
#1376 = CIRCLE('',#1377,1.475);
#1377 = AXIS2_PLACEMENT_3D('',#1378,#1379,#1380);
#1378 = CARTESIAN_POINT('',(20.3,-35.16063139364,15.));
#1379 = DIRECTION('',(0.,0.,1.));
#1380 = DIRECTION('',(-0.5,0.866025403784,0.));
#1381 = ORIENTED_EDGE('',*,*,#1367,.F.);
#1382 = ORIENTED_EDGE('',*,*,#1229,.F.);
#1383 = CYLINDRICAL_SURFACE('',#1384,1.475);
#1384 = AXIS2_PLACEMENT_3D('',#1385,#1386,#1387);
#1385 = CARTESIAN_POINT('',(20.3,-35.16063139364,0.));
#1386 = DIRECTION('',(-0.,0.,-1.));
#1387 = DIRECTION('',(-0.5,0.866025403784,0.));
#1388 = ADVANCED_FACE('',(#1389),#1392,.F.);
#1389 = FACE_BOUND('',#1390,.F.);
#1390 = EDGE_LOOP('',(#1391));
#1391 = ORIENTED_EDGE('',*,*,#1375,.T.);
#1392 = PLANE('',#1393);
#1393 = AXIS2_PLACEMENT_3D('',#1394,#1395,#1396);
#1394 = CARTESIAN_POINT('',(20.3,-35.16063139364,15.));
#1395 = DIRECTION('',(0.,0.,1.));
#1396 = DIRECTION('',(-0.5,0.866025403784,0.));
#1397 = ADVANCED_FACE('',(#1398),#1417,.F.);
#1398 = FACE_BOUND('',#1399,.T.);
#1399 = EDGE_LOOP('',(#1400,#1408,#1415,#1416));
#1400 = ORIENTED_EDGE('',*,*,#1401,.T.);
#1401 = EDGE_CURVE('',#1241,#1402,#1404,.T.);
#1402 = VERTEX_POINT('',#1403);
#1403 = CARTESIAN_POINT('',(33.883243923066,-19.5625,15.));
#1404 = LINE('',#1405,#1406);
#1405 = CARTESIAN_POINT('',(33.883243923066,-19.5625,0.));
#1406 = VECTOR('',#1407,1.);
#1407 = DIRECTION('',(0.,0.,1.));
#1408 = ORIENTED_EDGE('',*,*,#1409,.T.);
#1409 = EDGE_CURVE('',#1402,#1402,#1410,.T.);
#1410 = CIRCLE('',#1411,1.475);
#1411 = AXIS2_PLACEMENT_3D('',#1412,#1413,#1414);
#1412 = CARTESIAN_POINT('',(35.160631393648,-20.3,15.));
#1413 = DIRECTION('',(0.,0.,1.));
#1414 = DIRECTION('',(-0.866025403784,0.5,0.));
#1415 = ORIENTED_EDGE('',*,*,#1401,.F.);
#1416 = ORIENTED_EDGE('',*,*,#1240,.F.);
#1417 = CYLINDRICAL_SURFACE('',#1418,1.475);
#1418 = AXIS2_PLACEMENT_3D('',#1419,#1420,#1421);
#1419 = CARTESIAN_POINT('',(35.160631393648,-20.3,0.));
#1420 = DIRECTION('',(0.,0.,-1.));
#1421 = DIRECTION('',(-0.866025403784,0.5,0.));
#1422 = ADVANCED_FACE('',(#1423),#1426,.F.);
#1423 = FACE_BOUND('',#1424,.F.);
#1424 = EDGE_LOOP('',(#1425));
#1425 = ORIENTED_EDGE('',*,*,#1409,.T.);
#1426 = PLANE('',#1427);
#1427 = AXIS2_PLACEMENT_3D('',#1428,#1429,#1430);
#1428 = CARTESIAN_POINT('',(35.160631393648,-20.3,15.));
#1429 = DIRECTION('',(0.,0.,1.));
#1430 = DIRECTION('',(-0.866025403784,0.5,0.));
#1431 = ADVANCED_FACE('',(#1432),#1451,.F.);
#1432 = FACE_BOUND('',#1433,.T.);
#1433 = EDGE_LOOP('',(#1434,#1442,#1449,#1450));
#1434 = ORIENTED_EDGE('',*,*,#1435,.T.);
#1435 = EDGE_CURVE('',#1252,#1436,#1438,.T.);
#1436 = VERTEX_POINT('',#1437);
#1437 = CARTESIAN_POINT('',(-19.5625,-33.88324392306,15.));
#1438 = LINE('',#1439,#1440);
#1439 = CARTESIAN_POINT('',(-19.5625,-33.88324392306,0.));
#1440 = VECTOR('',#1441,1.);
#1441 = DIRECTION('',(0.,0.,1.));
#1442 = ORIENTED_EDGE('',*,*,#1443,.T.);
#1443 = EDGE_CURVE('',#1436,#1436,#1444,.T.);
#1444 = CIRCLE('',#1445,1.475);
#1445 = AXIS2_PLACEMENT_3D('',#1446,#1447,#1448);
#1446 = CARTESIAN_POINT('',(-20.3,-35.16063139364,15.));
#1447 = DIRECTION('',(0.,-0.,1.));
#1448 = DIRECTION('',(0.5,0.866025403784,0.));
#1449 = ORIENTED_EDGE('',*,*,#1435,.F.);
#1450 = ORIENTED_EDGE('',*,*,#1251,.F.);
#1451 = CYLINDRICAL_SURFACE('',#1452,1.475);
#1452 = AXIS2_PLACEMENT_3D('',#1453,#1454,#1455);
#1453 = CARTESIAN_POINT('',(-20.3,-35.16063139364,0.));
#1454 = DIRECTION('',(0.,-0.,-1.));
#1455 = DIRECTION('',(0.5,0.866025403784,0.));
#1456 = ADVANCED_FACE('',(#1457),#1460,.F.);
#1457 = FACE_BOUND('',#1458,.F.);
#1458 = EDGE_LOOP('',(#1459));
#1459 = ORIENTED_EDGE('',*,*,#1443,.T.);
#1460 = PLANE('',#1461);
#1461 = AXIS2_PLACEMENT_3D('',#1462,#1463,#1464);
#1462 = CARTESIAN_POINT('',(-20.3,-35.16063139364,15.));
#1463 = DIRECTION('',(0.,0.,1.));
#1464 = DIRECTION('',(0.5,0.866025403784,0.));
#1465 = ADVANCED_FACE('',(#1466),#1485,.F.);
#1466 = FACE_BOUND('',#1467,.T.);
#1467 = EDGE_LOOP('',(#1468,#1476,#1483,#1484));
#1468 = ORIENTED_EDGE('',*,*,#1469,.T.);
#1469 = EDGE_CURVE('',#1263,#1470,#1472,.T.);
#1470 = VERTEX_POINT('',#1471);
#1471 = CARTESIAN_POINT('',(-33.88324392306,-19.5625,15.));
#1472 = LINE('',#1473,#1474);
#1473 = CARTESIAN_POINT('',(-33.88324392306,-19.5625,0.));
#1474 = VECTOR('',#1475,1.);
#1475 = DIRECTION('',(0.,0.,1.));
#1476 = ORIENTED_EDGE('',*,*,#1477,.T.);
#1477 = EDGE_CURVE('',#1470,#1470,#1478,.T.);
#1478 = CIRCLE('',#1479,1.475);
#1479 = AXIS2_PLACEMENT_3D('',#1480,#1481,#1482);
#1480 = CARTESIAN_POINT('',(-35.16063139364,-20.3,15.));
#1481 = DIRECTION('',(0.,-0.,1.));
#1482 = DIRECTION('',(0.866025403784,0.5,0.));
#1483 = ORIENTED_EDGE('',*,*,#1469,.F.);
#1484 = ORIENTED_EDGE('',*,*,#1262,.F.);
#1485 = CYLINDRICAL_SURFACE('',#1486,1.475);
#1486 = AXIS2_PLACEMENT_3D('',#1487,#1488,#1489);
#1487 = CARTESIAN_POINT('',(-35.16063139364,-20.3,0.));
#1488 = DIRECTION('',(0.,0.,-1.));
#1489 = DIRECTION('',(0.866025403784,0.5,0.));
#1490 = ADVANCED_FACE('',(#1491),#1494,.F.);
#1491 = FACE_BOUND('',#1492,.F.);
#1492 = EDGE_LOOP('',(#1493));
#1493 = ORIENTED_EDGE('',*,*,#1477,.T.);
#1494 = PLANE('',#1495);
#1495 = AXIS2_PLACEMENT_3D('',#1496,#1497,#1498);
#1496 = CARTESIAN_POINT('',(-35.16063139364,-20.3,15.));
#1497 = DIRECTION('',(0.,0.,1.));
#1498 = DIRECTION('',(0.866025403784,0.5,0.));
#1499 = ADVANCED_FACE('',(#1500),#1519,.F.);
#1500 = FACE_BOUND('',#1501,.T.);
#1501 = EDGE_LOOP('',(#1502,#1510,#1517,#1518));
#1502 = ORIENTED_EDGE('',*,*,#1503,.T.);
#1503 = EDGE_CURVE('',#1274,#1504,#1506,.T.);
#1504 = VERTEX_POINT('',#1505);
#1505 = CARTESIAN_POINT('',(33.883243923066,19.5625,15.));
#1506 = LINE('',#1507,#1508);
#1507 = CARTESIAN_POINT('',(33.883243923066,19.5625,0.));
#1508 = VECTOR('',#1509,1.);
#1509 = DIRECTION('',(0.,0.,1.));
#1510 = ORIENTED_EDGE('',*,*,#1511,.T.);
#1511 = EDGE_CURVE('',#1504,#1504,#1512,.T.);
#1512 = CIRCLE('',#1513,1.475);
#1513 = AXIS2_PLACEMENT_3D('',#1514,#1515,#1516);
#1514 = CARTESIAN_POINT('',(35.160631393648,20.3,15.));
#1515 = DIRECTION('',(0.,0.,1.));
#1516 = DIRECTION('',(-0.866025403784,-0.5,0.));
#1517 = ORIENTED_EDGE('',*,*,#1503,.F.);
#1518 = ORIENTED_EDGE('',*,*,#1273,.F.);
#1519 = CYLINDRICAL_SURFACE('',#1520,1.475);
#1520 = AXIS2_PLACEMENT_3D('',#1521,#1522,#1523);
#1521 = CARTESIAN_POINT('',(35.160631393648,20.3,0.));
#1522 = DIRECTION('',(0.,0.,-1.));
#1523 = DIRECTION('',(-0.866025403784,-0.5,0.));
#1524 = ADVANCED_FACE('',(#1525),#1528,.F.);
#1525 = FACE_BOUND('',#1526,.F.);
#1526 = EDGE_LOOP('',(#1527));
#1527 = ORIENTED_EDGE('',*,*,#1511,.T.);
#1528 = PLANE('',#1529);
#1529 = AXIS2_PLACEMENT_3D('',#1530,#1531,#1532);
#1530 = CARTESIAN_POINT('',(35.160631393648,20.3,15.));
#1531 = DIRECTION('',(0.,0.,1.));
#1532 = DIRECTION('',(-0.866025403784,-0.5,0.));
#1533 = ADVANCED_FACE('',(#1534),#1553,.F.);
#1534 = FACE_BOUND('',#1535,.T.);
#1535 = EDGE_LOOP('',(#1536,#1544,#1551,#1552));
#1536 = ORIENTED_EDGE('',*,*,#1537,.T.);
#1537 = EDGE_CURVE('',#1285,#1538,#1540,.T.);
#1538 = VERTEX_POINT('',#1539);
#1539 = CARTESIAN_POINT('',(19.5625,33.883243923066,15.));
#1540 = LINE('',#1541,#1542);
#1541 = CARTESIAN_POINT('',(19.5625,33.883243923066,0.));
#1542 = VECTOR('',#1543,1.);
#1543 = DIRECTION('',(0.,0.,1.));
#1544 = ORIENTED_EDGE('',*,*,#1545,.T.);
#1545 = EDGE_CURVE('',#1538,#1538,#1546,.T.);
#1546 = CIRCLE('',#1547,1.475);
#1547 = AXIS2_PLACEMENT_3D('',#1548,#1549,#1550);
#1548 = CARTESIAN_POINT('',(20.3,35.160631393648,15.));
#1549 = DIRECTION('',(0.,0.,1.));
#1550 = DIRECTION('',(-0.5,-0.866025403784,0.));
#1551 = ORIENTED_EDGE('',*,*,#1537,.F.);
#1552 = ORIENTED_EDGE('',*,*,#1284,.F.);
#1553 = CYLINDRICAL_SURFACE('',#1554,1.475);
#1554 = AXIS2_PLACEMENT_3D('',#1555,#1556,#1557);
#1555 = CARTESIAN_POINT('',(20.3,35.160631393648,0.));
#1556 = DIRECTION('',(0.,0.,-1.));
#1557 = DIRECTION('',(-0.5,-0.866025403784,0.));
#1558 = ADVANCED_FACE('',(#1559),#1562,.F.);
#1559 = FACE_BOUND('',#1560,.F.);
#1560 = EDGE_LOOP('',(#1561));
#1561 = ORIENTED_EDGE('',*,*,#1545,.T.);
#1562 = PLANE('',#1563);
#1563 = AXIS2_PLACEMENT_3D('',#1564,#1565,#1566);
#1564 = CARTESIAN_POINT('',(20.3,35.160631393648,15.));
#1565 = DIRECTION('',(0.,0.,1.));
#1566 = DIRECTION('',(-0.5,-0.866025403784,0.));
#1567 = ADVANCED_FACE('',(#1568),#1587,.F.);
#1568 = FACE_BOUND('',#1569,.T.);
#1569 = EDGE_LOOP('',(#1570,#1578,#1585,#1586));
#1570 = ORIENTED_EDGE('',*,*,#1571,.T.);
#1571 = EDGE_CURVE('',#1296,#1572,#1574,.T.);
#1572 = VERTEX_POINT('',#1573);
#1573 = CARTESIAN_POINT('',(-33.88324392306,19.5625,15.));
#1574 = LINE('',#1575,#1576);
#1575 = CARTESIAN_POINT('',(-33.88324392306,19.5625,0.));
#1576 = VECTOR('',#1577,1.);
#1577 = DIRECTION('',(0.,0.,1.));
#1578 = ORIENTED_EDGE('',*,*,#1579,.T.);
#1579 = EDGE_CURVE('',#1572,#1572,#1580,.T.);
#1580 = CIRCLE('',#1581,1.475);
#1581 = AXIS2_PLACEMENT_3D('',#1582,#1583,#1584);
#1582 = CARTESIAN_POINT('',(-35.16063139364,20.3,15.));
#1583 = DIRECTION('',(-0.,0.,1.));
#1584 = DIRECTION('',(0.866025403784,-0.5,0.));
#1585 = ORIENTED_EDGE('',*,*,#1571,.F.);
#1586 = ORIENTED_EDGE('',*,*,#1295,.F.);
#1587 = CYLINDRICAL_SURFACE('',#1588,1.475);
#1588 = AXIS2_PLACEMENT_3D('',#1589,#1590,#1591);
#1589 = CARTESIAN_POINT('',(-35.16063139364,20.3,0.));
#1590 = DIRECTION('',(0.,0.,-1.));
#1591 = DIRECTION('',(0.866025403784,-0.5,0.));
#1592 = ADVANCED_FACE('',(#1593),#1596,.F.);
#1593 = FACE_BOUND('',#1594,.F.);
#1594 = EDGE_LOOP('',(#1595));
#1595 = ORIENTED_EDGE('',*,*,#1579,.T.);
#1596 = PLANE('',#1597);
#1597 = AXIS2_PLACEMENT_3D('',#1598,#1599,#1600);
#1598 = CARTESIAN_POINT('',(-35.16063139364,20.3,15.));
#1599 = DIRECTION('',(0.,0.,1.));
#1600 = DIRECTION('',(0.866025403784,-0.5,0.));
#1601 = ADVANCED_FACE('',(#1602),#1621,.F.);
#1602 = FACE_BOUND('',#1603,.T.);
#1603 = EDGE_LOOP('',(#1604,#1612,#1619,#1620));
#1604 = ORIENTED_EDGE('',*,*,#1605,.T.);
#1605 = EDGE_CURVE('',#1307,#1606,#1608,.T.);
#1606 = VERTEX_POINT('',#1607);
#1607 = CARTESIAN_POINT('',(-19.5625,33.883243923066,15.));
#1608 = LINE('',#1609,#1610);
#1609 = CARTESIAN_POINT('',(-19.5625,33.883243923066,0.));
#1610 = VECTOR('',#1611,1.);
#1611 = DIRECTION('',(0.,0.,1.));
#1612 = ORIENTED_EDGE('',*,*,#1613,.T.);
#1613 = EDGE_CURVE('',#1606,#1606,#1614,.T.);
#1614 = CIRCLE('',#1615,1.475);
#1615 = AXIS2_PLACEMENT_3D('',#1616,#1617,#1618);
#1616 = CARTESIAN_POINT('',(-20.3,35.160631393648,15.));
#1617 = DIRECTION('',(-0.,0.,1.));
#1618 = DIRECTION('',(0.5,-0.866025403784,0.));
#1619 = ORIENTED_EDGE('',*,*,#1605,.F.);
#1620 = ORIENTED_EDGE('',*,*,#1306,.F.);
#1621 = CYLINDRICAL_SURFACE('',#1622,1.475);
#1622 = AXIS2_PLACEMENT_3D('',#1623,#1624,#1625);
#1623 = CARTESIAN_POINT('',(-20.3,35.160631393648,0.));
#1624 = DIRECTION('',(0.,0.,-1.));
#1625 = DIRECTION('',(0.5,-0.866025403784,0.));
#1626 = ADVANCED_FACE('',(#1627),#1630,.F.);
#1627 = FACE_BOUND('',#1628,.F.);
#1628 = EDGE_LOOP('',(#1629));
#1629 = ORIENTED_EDGE('',*,*,#1613,.T.);
#1630 = PLANE('',#1631);
#1631 = AXIS2_PLACEMENT_3D('',#1632,#1633,#1634);
#1632 = CARTESIAN_POINT('',(-20.3,35.160631393648,15.));
#1633 = DIRECTION('',(0.,0.,1.));
#1634 = DIRECTION('',(0.5,-0.866025403784,0.));
#1635 = ADVANCED_FACE('',(#1636),#1655,.F.);
#1636 = FACE_BOUND('',#1637,.T.);
#1637 = EDGE_LOOP('',(#1638,#1646,#1653,#1654));
#1638 = ORIENTED_EDGE('',*,*,#1639,.T.);
#1639 = EDGE_CURVE('',#1318,#1640,#1642,.T.);
#1640 = VERTEX_POINT('',#1641);
#1641 = CARTESIAN_POINT('',(-39.125,0.,15.));
#1642 = LINE('',#1643,#1644);
#1643 = CARTESIAN_POINT('',(-39.125,0.,0.));
#1644 = VECTOR('',#1645,1.);
#1645 = DIRECTION('',(0.,0.,1.));
#1646 = ORIENTED_EDGE('',*,*,#1647,.T.);
#1647 = EDGE_CURVE('',#1640,#1640,#1648,.T.);
#1648 = CIRCLE('',#1649,1.475);
#1649 = AXIS2_PLACEMENT_3D('',#1650,#1651,#1652);
#1650 = CARTESIAN_POINT('',(-40.6,0.,15.));
#1651 = DIRECTION('',(0.,0.,1.));
#1652 = DIRECTION('',(1.,0.,0.));
#1653 = ORIENTED_EDGE('',*,*,#1639,.F.);
#1654 = ORIENTED_EDGE('',*,*,#1317,.F.);
#1655 = CYLINDRICAL_SURFACE('',#1656,1.475);
#1656 = AXIS2_PLACEMENT_3D('',#1657,#1658,#1659);
#1657 = CARTESIAN_POINT('',(-40.6,0.,0.));
#1658 = DIRECTION('',(-0.,-0.,-1.));
#1659 = DIRECTION('',(1.,0.,0.));
#1660 = ADVANCED_FACE('',(#1661),#1664,.F.);
#1661 = FACE_BOUND('',#1662,.F.);
#1662 = EDGE_LOOP('',(#1663));
#1663 = ORIENTED_EDGE('',*,*,#1647,.T.);
#1664 = PLANE('',#1665);
#1665 = AXIS2_PLACEMENT_3D('',#1666,#1667,#1668);
#1666 = CARTESIAN_POINT('',(-40.6,-3.40762890335E-16,15.));
#1667 = DIRECTION('',(0.,0.,1.));
#1668 = DIRECTION('',(1.,0.,0.));
#1669 = ADVANCED_FACE('',(#1670),#1689,.F.);
#1670 = FACE_BOUND('',#1671,.T.);
#1671 = EDGE_LOOP('',(#1672,#1680,#1687,#1688));
#1672 = ORIENTED_EDGE('',*,*,#1673,.T.);
#1673 = EDGE_CURVE('',#1329,#1674,#1676,.T.);
#1674 = VERTEX_POINT('',#1675);
#1675 = CARTESIAN_POINT('',(39.125,-4.791430601664E-15,15.));
#1676 = LINE('',#1677,#1678);
#1677 = CARTESIAN_POINT('',(39.125,-4.791430601664E-15,0.));
#1678 = VECTOR('',#1679,1.);
#1679 = DIRECTION('',(0.,0.,1.));
#1680 = ORIENTED_EDGE('',*,*,#1681,.T.);
#1681 = EDGE_CURVE('',#1674,#1674,#1682,.T.);
#1682 = CIRCLE('',#1683,1.475);
#1683 = AXIS2_PLACEMENT_3D('',#1684,#1685,#1686);
#1684 = CARTESIAN_POINT('',(40.6,-4.972066004538E-15,15.));
#1685 = DIRECTION('',(0.,0.,1.));
#1686 = DIRECTION('',(-1.,1.224646799147E-16,0.));
#1687 = ORIENTED_EDGE('',*,*,#1673,.F.);
#1688 = ORIENTED_EDGE('',*,*,#1328,.F.);
#1689 = CYLINDRICAL_SURFACE('',#1690,1.475);
#1690 = AXIS2_PLACEMENT_3D('',#1691,#1692,#1693);
#1691 = CARTESIAN_POINT('',(40.6,-4.972066004538E-15,0.));
#1692 = DIRECTION('',(0.,0.,-1.));
#1693 = DIRECTION('',(-1.,1.224646799147E-16,0.));
#1694 = ADVANCED_FACE('',(#1695),#1698,.F.);
#1695 = FACE_BOUND('',#1696,.F.);
#1696 = EDGE_LOOP('',(#1697));
#1697 = ORIENTED_EDGE('',*,*,#1681,.T.);
#1698 = PLANE('',#1699);
#1699 = AXIS2_PLACEMENT_3D('',#1700,#1701,#1702);
#1700 = CARTESIAN_POINT('',(40.6,-4.631303114203E-15,15.));
#1701 = DIRECTION('',(0.,0.,1.));
#1702 = DIRECTION('',(-1.,1.224646799147E-16,0.));
#1703 = ADVANCED_FACE('',(#1704),#1723,.F.);
#1704 = FACE_BOUND('',#1705,.T.);
#1705 = EDGE_LOOP('',(#1706,#1714,#1721,#1722));
#1706 = ORIENTED_EDGE('',*,*,#1707,.T.);
#1707 = EDGE_CURVE('',#1340,#1708,#1710,.T.);
#1708 = VERTEX_POINT('',#1709);
#1709 = CARTESIAN_POINT('',(-4.343747583846E-15,-39.125,15.));
#1710 = LINE('',#1711,#1712);
#1711 = CARTESIAN_POINT('',(-4.343747583846E-15,-39.125,0.));
#1712 = VECTOR('',#1713,1.);
#1713 = DIRECTION('',(0.,0.,1.));
#1714 = ORIENTED_EDGE('',*,*,#1715,.T.);
#1715 = EDGE_CURVE('',#1708,#1708,#1716,.T.);
#1716 = CIRCLE('',#1717,1.475);
#1717 = AXIS2_PLACEMENT_3D('',#1718,#1719,#1720);
#1718 = CARTESIAN_POINT('',(-4.507505479978E-15,-40.6,15.));
#1719 = DIRECTION('',(0.,-0.,1.));
#1720 = DIRECTION('',(1.110223024625E-16,1.,0.));
#1721 = ORIENTED_EDGE('',*,*,#1707,.F.);
#1722 = ORIENTED_EDGE('',*,*,#1339,.F.);
#1723 = CYLINDRICAL_SURFACE('',#1724,1.475);
#1724 = AXIS2_PLACEMENT_3D('',#1725,#1726,#1727);
#1725 = CARTESIAN_POINT('',(-4.507505479978E-15,-40.6,0.));
#1726 = DIRECTION('',(0.,-0.,-1.));
#1727 = DIRECTION('',(1.110223024625E-16,1.,0.));
#1728 = ADVANCED_FACE('',(#1729),#1732,.F.);
#1729 = FACE_BOUND('',#1730,.F.);
#1730 = EDGE_LOOP('',(#1731));
#1731 = ORIENTED_EDGE('',*,*,#1715,.T.);
#1732 = PLANE('',#1733);
#1733 = AXIS2_PLACEMENT_3D('',#1734,#1735,#1736);
#1734 = CARTESIAN_POINT('',(-4.166742589643E-15,-40.6,15.));
#1735 = DIRECTION('',(0.,0.,1.));
#1736 = DIRECTION('',(1.110223024625E-16,1.,0.));
#1737 = ADVANCED_FACE('',(#1738),#1757,.F.);
#1738 = FACE_BOUND('',#1739,.T.);
#1739 = EDGE_LOOP('',(#1740,#1748,#1755,#1756));
#1740 = ORIENTED_EDGE('',*,*,#1741,.T.);
#1741 = EDGE_CURVE('',#1351,#1742,#1744,.T.);
#1742 = VERTEX_POINT('',#1743);
#1743 = CARTESIAN_POINT('',(8.687495167692E-15,39.125,15.));
#1744 = LINE('',#1745,#1746);
#1745 = CARTESIAN_POINT('',(8.687495167692E-15,39.125,0.));
#1746 = VECTOR('',#1747,1.);
#1747 = DIRECTION('',(0.,0.,1.));
#1748 = ORIENTED_EDGE('',*,*,#1749,.T.);
#1749 = EDGE_CURVE('',#1742,#1742,#1750,.T.);
#1750 = CIRCLE('',#1751,1.475);
#1751 = AXIS2_PLACEMENT_3D('',#1752,#1753,#1754);
#1752 = CARTESIAN_POINT('',(9.015010959956E-15,40.6,15.));
#1753 = DIRECTION('',(0.,0.,1.));
#1754 = DIRECTION('',(-2.22044604925E-16,-1.,0.));
#1755 = ORIENTED_EDGE('',*,*,#1741,.F.);
#1756 = ORIENTED_EDGE('',*,*,#1350,.F.);
#1757 = CYLINDRICAL_SURFACE('',#1758,1.475);
#1758 = AXIS2_PLACEMENT_3D('',#1759,#1760,#1761);
#1759 = CARTESIAN_POINT('',(9.015010959956E-15,40.6,0.));
#1760 = DIRECTION('',(0.,0.,-1.));
#1761 = DIRECTION('',(-2.22044604925E-16,-1.,0.));
#1762 = ADVANCED_FACE('',(#1763),#1766,.F.);
#1763 = FACE_BOUND('',#1764,.F.);
#1764 = EDGE_LOOP('',(#1765));
#1765 = ORIENTED_EDGE('',*,*,#1749,.T.);
#1766 = PLANE('',#1767);
#1767 = AXIS2_PLACEMENT_3D('',#1768,#1769,#1770);
#1768 = CARTESIAN_POINT('',(8.674248069621E-15,40.6,15.));
#1769 = DIRECTION('',(0.,0.,1.));
#1770 = DIRECTION('',(-2.22044604925E-16,-1.,0.));
#1771 = ( GEOMETRIC_REPRESENTATION_CONTEXT(3) 
GLOBAL_UNCERTAINTY_ASSIGNED_CONTEXT((#1775)) 
GLOBAL_UNIT_ASSIGNED_CONTEXT((#1772,#1773,#1774)) REPRESENTATION_CONTEXT
('Context #1','3D Context with UNIT and UNCERTAINTY') );
#1772 = ( LENGTH_UNIT() NAMED_UNIT(*) SI_UNIT(.MILLI.,.METRE.) );
#1773 = ( NAMED_UNIT(*) PLANE_ANGLE_UNIT() SI_UNIT($,.RADIAN.) );
#1774 = ( NAMED_UNIT(*) SI_UNIT($,.STERADIAN.) SOLID_ANGLE_UNIT() );
#1775 = UNCERTAINTY_MEASURE_WITH_UNIT(LENGTH_MEASURE(2.E-07),#1772,
  'distance_accuracy_value','confusion accuracy');
#1776 = PRODUCT_RELATED_PRODUCT_CATEGORY('part',$,(#7));
ENDSEC;
END-ISO-10303-21;
